{"glyphs":{"0":{"ha":819,"x_min":0,"x_max":0,"o":"m 410 36 b 33 565 200 36 33 161 b 410 1093 33 969 211 1093 b 786 565 608 1093 786 969 b 410 36 786 161 619 36 z m 410 244 b 554 565 482 244 554 319 b 410 885 554 819 482 885 b 265 565 338 885 265 819 b 410 244 265 319 338 244 z "},"1":{"ha":453,"x_min":0,"x_max":0,"o":"m 139 783 l 28 775 l 28 986 b 196 1081 93 996 169 1025 l 382 1081 l 382 50 l 139 50 z "},"2":{"ha":819,"x_min":0,"x_max":0,"o":"m 61 50 l 61 221 b 389 542 203 350 278 418 b 511 768 479 643 517 715 b 407 861 507 828 453 864 b 289 708 347 858 296 804 l 49 750 b 397 1099 76 957 193 1093 b 732 910 549 1104 681 1022 b 679 543 774 822 761 667 b 428 268 610 439 556 385 l 603 268 b 785 281 676 268 740 271 l 785 68 b 551 50 728 56 611 50 z "},"3":{"ha":819,"x_min":0,"x_max":0,"o":"m 328 483 l 314 663 b 525 782 454 668 521 708 b 390 878 529 846 475 896 b 274 735 333 865 279 817 l 47 778 b 357 1096 72 963 189 1074 b 742 932 532 1119 686 1058 b 669 596 790 822 764 675 b 775 251 786 528 814 368 b 367 33 725 100 569 18 b 21 389 178 50 42 179 l 249 433 b 386 261 258 351 318 272 b 544 365 463 247 539 292 b 413 488 550 442 490 493 b 328 483 383 486 342 485 z "},"4":{"ha":819,"x_min":0,"x_max":0,"o":"m 449 765 l 296 439 l 449 439 z m 378 1081 l 678 1081 l 678 439 l 710 439 b 801 447 736 439 775 440 l 801 239 b 696 228 765 229 722 228 l 678 228 l 678 50 l 442 50 l 442 228 l 39 228 l 39 414 z "},"5":{"ha":819,"x_min":0,"x_max":0,"o":"m 336 718 b 654 665 428 744 564 732 b 771 278 761 586 818 432 b 360 33 718 99 568 19 b 31 311 210 42 75 142 l 244 376 b 382 256 267 311 318 261 b 549 379 469 249 536 293 b 429 544 560 453 521 524 b 267 490 361 558 306 536 l 72 544 l 126 1081 l 714 1081 l 714 863 l 350 863 z "},"6":{"ha":819,"x_min":0,"x_max":0,"o":"m 267 401 b 390 249 256 324 308 261 b 558 358 464 238 546 282 b 433 515 572 428 519 504 b 267 401 351 528 279 485 z m 51 294 b 86 668 26 422 42 532 b 290 1108 131 804 200 963 l 533 1060 b 367 708 464 944 404 821 l 367 697 b 663 646 449 717 582 699 b 776 274 764 579 822 431 b 371 33 726 103 556 18 b 51 294 207 47 81 146 z "},"7":{"ha":819,"x_min":0,"x_max":0,"o":"m 235 54 b 492 850 261 328 349 624 l 492 863 l 47 863 l 47 1081 l 788 1081 l 788 910 b 476 31 608 650 513 385 z "},"8":{"ha":819,"x_min":0,"x_max":0,"o":"m 410 32 b 42 263 247 32 83 110 b 171 599 6 400 63 535 b 88 914 76 665 42 799 b 410 1100 135 1035 276 1100 b 732 914 543 1100 685 1035 b 649 599 778 799 743 665 b 778 263 757 535 814 400 b 410 32 736 110 572 32 z m 410 681 b 531 788 478 681 531 722 b 410 894 531 854 471 894 b 289 788 349 894 289 854 b 410 681 289 722 342 681 z m 410 244 b 544 360 485 244 544 292 b 410 486 544 439 483 486 b 275 360 336 486 275 439 b 410 244 275 292 335 244 z "},"9":{"ha":819,"x_min":0,"x_max":0,"o":"m 561 733 b 435 888 571 808 533 872 b 269 778 361 899 282 857 b 392 621 258 708 300 633 b 561 733 485 608 551 661 z m 775 839 b 742 465 800 711 785 608 b 549 25 700 328 639 179 l 301 63 b 465 425 371 178 432 317 l 465 436 b 165 488 383 417 246 435 b 51 860 64 554 6 703 b 457 1100 101 1031 272 1115 b 775 839 621 1086 746 988 z "},"¦":{"ha":1389,"x_min":0,"x_max":0,"o":"m 139 -62 l 139 1049 l 1250 1049 l 1250 -62 z m 208 7 l 1181 7 l 1181 979 l 208 979 z "},"¬":{"ha":1389,"x_min":0,"x_max":0,"o":"m 139 -62 l 139 1049 l 1250 1049 l 1250 -62 z m 208 7 l 1181 7 l 1181 979 l 208 979 z "},"¯":{"ha":1389,"x_min":0,"x_max":0,"o":"m 139 -62 l 139 1049 l 1250 1049 l 1250 -62 z m 208 7 l 1181 7 l 1181 979 l 208 979 z "},"µ":{"ha":1389,"x_min":0,"x_max":0,"o":"m 139 -62 l 139 1049 l 1250 1049 l 1250 -62 z m 208 7 l 1181 7 l 1181 979 l 208 979 z "},"˜":{"ha":1389,"x_min":0,"x_max":0,"o":"m 139 -62 l 139 1049 l 1250 1049 l 1250 -62 z m 208 7 l 1181 7 l 1181 979 l 208 979 z "},"⇓":{"ha":1389,"x_min":0,"x_max":0,"o":"m 139 -62 l 139 1049 l 1250 1049 l 1250 -62 z m 208 7 l 1181 7 l 1181 979 l 208 979 z "},"∁":{"ha":1389,"x_min":0,"x_max":0,"o":"m 139 -62 l 139 1049 l 1250 1049 l 1250 -62 z m 208 7 l 1181 7 l 1181 979 l 208 979 z "},"∉":{"ha":1389,"x_min":0,"x_max":0,"o":"m 139 -62 l 139 1049 l 1250 1049 l 1250 -62 z m 208 7 l 1181 7 l 1181 979 l 208 979 z "},"∊":{"ha":1389,"x_min":0,"x_max":0,"o":"m 139 -62 l 139 1049 l 1250 1049 l 1250 -62 z m 208 7 l 1181 7 l 1181 979 l 208 979 z "},"∐":{"ha":1389,"x_min":0,"x_max":0,"o":"m 139 -62 l 139 1049 l 1250 1049 l 1250 -62 z m 208 7 l 1181 7 l 1181 979 l 208 979 z "},"∟":{"ha":1389,"x_min":0,"x_max":0,"o":"m 139 -62 l 139 1049 l 1250 1049 l 1250 -62 z m 208 7 l 1181 7 l 1181 979 l 208 979 z "},"∭":{"ha":1389,"x_min":0,"x_max":0,"o":"m 139 -62 l 139 1049 l 1250 1049 l 1250 -62 z m 208 7 l 1181 7 l 1181 979 l 208 979 z "},"▢":{"ha":1389,"x_min":0,"x_max":0,"o":"m 139 -62 l 139 1049 l 1250 1049 l 1250 -62 z m 208 7 l 1181 7 l 1181 979 l 208 979 z "},"▴":{"ha":1389,"x_min":0,"x_max":0,"o":"m 139 -62 l 139 1049 l 1250 1049 l 1250 -62 z m 208 7 l 1181 7 l 1181 979 l 208 979 z "},"▵":{"ha":1389,"x_min":0,"x_max":0,"o":"m 139 -62 l 139 1049 l 1250 1049 l 1250 -62 z m 208 7 l 1181 7 l 1181 979 l 208 979 z "},"▾":{"ha":1389,"x_min":0,"x_max":0,"o":"m 139 -62 l 139 1049 l 1250 1049 l 1250 -62 z m 208 7 l 1181 7 l 1181 979 l 208 979 z "},"▿":{"ha":1389,"x_min":0,"x_max":0,"o":"m 139 -62 l 139 1049 l 1250 1049 l 1250 -62 z m 208 7 l 1181 7 l 1181 979 l 208 979 z "},"◉":{"ha":1389,"x_min":0,"x_max":0,"o":"m 139 -62 l 139 1049 l 1250 1049 l 1250 -62 z m 208 7 l 1181 7 l 1181 979 l 208 979 z "},"◌":{"ha":1389,"x_min":0,"x_max":0,"o":"m 139 -62 l 139 1049 l 1250 1049 l 1250 -62 z m 208 7 l 1181 7 l 1181 979 l 208 979 z "},"◍":{"ha":1389,"x_min":0,"x_max":0,"o":"m 139 -62 l 139 1049 l 1250 1049 l 1250 -62 z m 208 7 l 1181 7 l 1181 979 l 208 979 z "},"☝":{"ha":1389,"x_min":0,"x_max":0,"o":"m 139 -62 l 139 1049 l 1250 1049 l 1250 -62 z m 208 7 l 1181 7 l 1181 979 l 208 979 z "},"♁":{"ha":1389,"x_min":0,"x_max":0,"o":"m 139 -62 l 139 1049 l 1250 1049 l 1250 -62 z m 208 7 l 1181 7 l 1181 979 l 208 979 z "},"♦":{"ha":1389,"x_min":0,"x_max":0,"o":"m 139 -62 l 139 1049 l 1250 1049 l 1250 -62 z m 208 7 l 1181 7 l 1181 979 l 208 979 z "},"♫":{"ha":1389,"x_min":0,"x_max":0,"o":"m 139 -62 l 139 1049 l 1250 1049 l 1250 -62 z m 208 7 l 1181 7 l 1181 979 l 208 979 z "},"㏑":{"ha":1389,"x_min":0,"x_max":0,"o":"m 139 -62 l 139 1049 l 1250 1049 l 1250 -62 z m 208 7 l 1181 7 l 1181 979 l 208 979 z "},"㏒":{"ha":1389,"x_min":0,"x_max":0,"o":"m 139 -62 l 139 1049 l 1250 1049 l 1250 -62 z m 208 7 l 1181 7 l 1181 979 l 208 979 z "},"㏔":{"ha":1389,"x_min":0,"x_max":0,"o":"m 139 -62 l 139 1049 l 1250 1049 l 1250 -62 z m 208 7 l 1181 7 l 1181 979 l 208 979 z "},"㏕":{"ha":1389,"x_min":0,"x_max":0,"o":"m 139 -62 l 139 1049 l 1250 1049 l 1250 -62 z m 208 7 l 1181 7 l 1181 979 l 208 979 z "},"㏗":{"ha":1389,"x_min":0,"x_max":0,"o":"m 139 -62 l 139 1049 l 1250 1049 l 1250 -62 z m 208 7 l 1181 7 l 1181 979 l 208 979 z "},"㏙":{"ha":1389,"x_min":0,"x_max":0,"o":"m 139 -62 l 139 1049 l 1250 1049 l 1250 -62 z m 208 7 l 1181 7 l 1181 979 l 208 979 z "},"㏚":{"ha":1389,"x_min":0,"x_max":0,"o":"m 139 -62 l 139 1049 l 1250 1049 l 1250 -62 z m 208 7 l 1181 7 l 1181 979 l 208 979 z "},"￤":{"ha":1389,"x_min":0,"x_max":0,"o":"m 139 -62 l 139 1049 l 1250 1049 l 1250 -62 z m 208 7 l 1181 7 l 1181 979 l 208 979 z "}," ":{"ha":347,"x_min":0,"x_max":0,"o":""},"!":{"ha":444,"x_min":0,"x_max":0,"o":"m 101 1106 l 344 1106 l 344 421 l 101 421 z m 100 297 l 343 297 l 343 25 l 100 25 z "},"\"":{"ha":529,"x_min":0,"x_max":0,"o":"m 471 761 l 304 761 l 297 1146 l 485 1146 l 485 1007 z m 215 761 l 49 761 l 42 1146 l 229 1146 l 229 1007 z "},"#":{"ha":1074,"x_min":0,"x_max":0,"o":"m 1017 706 l 861 706 l 846 467 l 1000 467 l 1000 238 l 831 238 l 818 25 l 583 25 l 596 238 l 426 238 l 414 25 l 181 25 l 194 238 l 56 238 l 56 467 l 208 467 l 224 706 l 75 706 l 75 935 l 239 935 l 250 1104 l 479 1104 l 468 935 l 640 935 l 651 1104 l 886 1104 l 875 935 l 1017 935 z m 626 706 l 454 706 l 440 467 l 611 467 z "},"$":{"ha":868,"x_min":0,"x_max":0,"o":"m 596 82 b 561 74 585 79 572 76 l 561 -18 l 311 -18 l 311 76 b 267 88 296 79 281 83 b 42 242 201 108 96 168 l 190 413 b 479 301 314 324 400 300 b 511 413 538 303 571 379 b 272 536 440 453 382 472 b 131 910 110 631 76 792 b 311 1053 168 986 231 1031 l 311 1146 l 561 1146 l 561 1060 b 799 918 657 1039 739 990 l 653 746 b 435 835 596 797 497 839 b 389 765 386 832 374 793 b 550 654 401 743 433 711 b 807 388 710 576 793 479 b 596 82 831 233 756 126 z "},"%":{"ha":1139,"x_min":0,"x_max":0,"o":"m 811 1118 l 996 1000 l 332 1 l 146 133 z m 525 850 b 274 599 525 714 410 599 b 22 850 138 599 22 714 b 274 1101 22 986 138 1101 b 525 850 410 1101 525 986 z m 338 850 b 274 914 338 882 306 914 b 210 850 242 914 210 882 b 274 786 210 818 242 786 b 338 850 306 786 338 818 z m 1124 265 b 872 14 1124 129 1008 14 b 621 265 736 14 621 129 b 872 517 621 401 736 517 b 1124 265 1008 517 1124 401 z m 936 265 b 872 329 936 297 904 329 b 808 265 840 329 808 297 b 872 201 808 233 840 201 b 936 265 904 201 936 233 z "},"&":{"ha":950,"x_min":0,"x_max":0,"o":"m 429 700 b 529 825 490 731 529 775 b 433 904 529 882 485 911 b 356 797 374 897 336 851 b 429 700 367 764 389 736 z m 371 431 b 313 307 315 401 299 346 b 410 236 326 264 358 240 b 522 282 457 231 494 247 z m 571 550 l 672 454 l 760 568 l 939 438 l 832 304 l 968 176 l 800 10 l 686 118 b 406 4 619 49 521 10 b 75 194 242 -3 126 85 b 218 594 17 318 51 504 b 121 888 119 688 96 800 b 410 1108 154 1017 250 1092 b 733 938 538 1122 682 1061 b 571 550 789 810 758 672 z "},"'":{"ha":296,"x_min":0,"x_max":0,"o":"m 235 761 l 53 761 l 46 1146 l 249 1146 l 249 1015 z "},"(":{"ha":521,"x_min":0,"x_max":0,"o":"m 76 565 b 261 1158 76 794 136 1004 l 469 1081 b 313 565 367 932 313 742 b 469 50 313 389 360 231 l 261 -28 b 76 565 136 126 76 336 z "},")":{"ha":521,"x_min":0,"x_max":0,"o":"m 450 565 b 265 -28 450 336 390 126 l 57 50 b 214 565 167 231 214 389 b 57 1081 214 742 160 932 l 265 1158 b 450 565 390 1004 450 794 z "},"*":{"ha":679,"x_min":0,"x_max":0,"o":"m 339 400 l 249 272 l 60 406 l 157 517 l 28 556 l 96 774 l 221 738 l 218 876 l 460 876 l 457 738 l 582 774 l 650 556 l 522 517 l 618 410 l 429 274 z "},"+":{"ha":824,"x_min":0,"x_max":0,"o":"m 286 689 l 286 943 l 538 943 l 538 689 l 765 689 l 765 460 l 538 460 l 538 207 l 286 207 l 286 460 l 58 460 l 58 689 z "},",":{"ha":458,"x_min":0,"x_max":0,"o":"m 44 289 l 318 289 l 318 128 l 293 -67 l 114 -67 l 121 51 l 44 51 z "},"-":{"ha":722,"x_min":0,"x_max":0,"o":"m 664 682 l 664 460 l 58 460 l 58 682 z "},".":{"ha":458,"x_min":0,"x_max":0,"o":"m 332 24 l 58 24 l 58 275 l 332 275 z "},"/":{"ha":549,"x_min":0,"x_max":0,"o":"m 36 14 l 250 1156 l 513 1114 l 300 -28 z "},":":{"ha":375,"x_min":0,"x_max":0,"o":"m 310 190 l 65 190 l 65 469 l 310 469 z m 310 663 l 65 663 l 65 942 l 310 942 z "},";":{"ha":376,"x_min":0,"x_max":0,"o":"m 314 663 l 63 663 l 63 942 l 314 942 z m 63 497 l 314 497 l 314 308 l 289 114 l 117 114 l 124 232 l 63 232 z "},"<":{"ha":674,"x_min":0,"x_max":0,"o":"m 283 560 l 650 157 l 482 -22 l 43 446 l 43 674 l 482 1142 l 650 963 z "},"=":{"ha":810,"x_min":0,"x_max":0,"o":"m 57 821 l 750 821 l 750 608 l 57 608 z m 57 513 l 750 513 l 750 297 l 57 297 z "},">":{"ha":674,"x_min":0,"x_max":0,"o":"m 396 560 l 29 963 l 197 1142 l 636 674 l 636 446 l 197 -22 l 29 157 z "},"?":{"ha":754,"x_min":0,"x_max":0,"o":"m 247 269 l 490 269 l 490 25 l 247 25 z m 471 788 b 368 876 471 839 432 882 b 257 769 304 871 274 835 l 42 835 b 346 1115 85 1007 194 1106 b 704 899 549 1129 668 1031 b 590 535 746 747 699 639 b 489 350 531 478 496 433 l 242 350 l 242 383 b 324 572 242 454 271 521 b 471 788 440 685 471 724 z "},"@":{"ha":1176,"x_min":0,"x_max":0,"o":"m 564 442 b 654 529 601 442 646 464 b 656 561 656 535 656 560 b 565 681 656 642 613 681 b 475 561 514 681 481 635 b 564 442 469 483 506 442 z m 885 244 b 676 322 771 226 688 297 b 542 275 643 293 593 275 b 278 561 389 275 275 360 b 539 840 281 758 410 840 b 665 788 588 840 639 822 l 665 835 l 857 835 l 857 467 b 903 450 857 433 881 428 b 946 586 931 481 946 533 b 588 936 946 831 811 936 b 222 563 396 936 222 810 b 588 193 222 310 376 193 b 804 238 683 193 746 206 l 878 64 b 600 3 789 17 711 3 b 24 557 253 3 24 200 b 588 1122 24 892 253 1122 b 1151 593 938 1122 1151 925 b 885 244 1151 407 1049 269 z "},"A":{"ha":1008,"x_min":0,"x_max":0,"o":"m 1000 50 l 731 50 l 657 238 l 343 238 l 275 50 l 7 50 l 389 1081 l 607 1081 z m 503 779 l 410 460 l 590 460 z "},"B":{"ha":935,"x_min":0,"x_max":0,"o":"m 69 50 l 69 1081 l 483 1081 b 867 836 743 1081 854 983 b 746 606 879 750 833 643 b 893 317 853 557 906 435 b 535 50 875 146 760 50 z m 311 863 l 311 693 l 528 693 b 625 779 589 697 625 728 b 519 863 625 829 588 863 z m 311 483 l 311 268 l 525 268 b 650 376 622 267 650 315 b 514 483 650 433 614 483 z "},"C":{"ha":917,"x_min":0,"x_max":0,"o":"m 35 564 b 275 1047 35 794 124 953 b 636 1096 367 1103 532 1118 b 908 924 726 1078 814 1028 l 758 768 b 460 860 668 869 556 892 b 276 564 343 822 276 722 b 461 267 276 404 372 289 b 758 361 561 243 689 267 l 908 203 b 636 31 818 97 732 49 b 275 79 532 11 367 25 b 35 564 124 174 35 332 z "},"D":{"ha":969,"x_min":0,"x_max":0,"o":"m 693 565 b 478 861 693 744 622 861 l 313 861 l 313 269 l 478 269 b 693 565 622 269 693 383 z m 926 565 b 421 50 925 247 767 51 l 69 50 l 69 1081 l 421 1081 b 926 565 767 1079 925 882 z "},"E":{"ha":919,"x_min":0,"x_max":0,"o":"m 856 861 l 313 861 l 313 674 l 829 675 l 829 460 l 313 460 l 313 269 l 642 269 b 863 285 743 269 797 276 l 863 69 b 610 50 801 54 689 50 l 69 50 l 69 1081 l 856 1081 z "},"F":{"ha":892,"x_min":0,"x_max":0,"o":"m 69 50 l 69 1081 l 842 1081 l 842 858 l 318 858 l 318 657 l 594 657 b 815 668 696 657 749 660 l 815 453 b 564 436 753 438 642 436 l 318 436 l 318 50 z "},"G":{"ha":986,"x_min":0,"x_max":0,"o":"m 632 288 b 692 428 668 313 692 372 l 479 428 l 479 640 l 950 640 l 950 539 b 879 213 943 414 943 313 b 615 31 814 100 713 50 b 261 79 510 10 354 24 b 35 564 110 174 35 332 b 274 1047 35 794 122 953 b 617 1096 365 1103 511 1118 b 888 924 707 1078 792 1028 l 738 768 b 453 864 646 869 549 896 b 276 564 338 826 276 722 b 443 260 276 404 344 289 b 632 288 500 244 579 249 z "},"H":{"ha":988,"x_min":0,"x_max":0,"o":"m 69 1081 l 317 1081 l 317 692 l 669 692 l 669 1081 l 917 1081 l 917 50 l 669 50 l 669 469 l 317 469 l 317 50 l 69 50 z "},"I":{"ha":388,"x_min":0,"x_max":0,"o":"m 69 1081 l 317 1081 l 317 50 l 69 50 z "},"J":{"ha":686,"x_min":0,"x_max":0,"o":"m 369 1081 l 615 1081 l 615 396 b 531 101 615 251 597 174 b 260 26 469 36 354 17 b 7 183 193 35 85 85 l 154 358 b 294 278 207 299 251 275 b 369 396 335 281 369 315 z "},"K":{"ha":931,"x_min":0,"x_max":0,"o":"m 313 258 l 313 50 l 69 50 l 69 1081 l 313 1081 l 313 621 l 642 1081 l 911 1081 l 603 643 l 922 50 l 658 50 l 443 435 z "},"L":{"ha":782,"x_min":0,"x_max":0,"o":"m 507 50 l 69 50 l 69 1081 l 317 1081 l 317 274 l 539 274 b 760 289 642 274 694 281 l 760 69 b 507 50 699 54 586 50 z "},"M":{"ha":1213,"x_min":0,"x_max":0,"o":"m 488 50 l 301 718 l 294 718 l 289 50 l 35 50 l 99 1081 l 383 1081 l 601 365 l 608 365 l 828 1081 l 1113 1081 l 1176 50 l 922 50 l 917 718 l 910 718 l 724 50 z "},"N":{"ha":988,"x_min":0,"x_max":0,"o":"m 314 690 l 314 50 l 69 50 l 69 1081 l 310 1081 l 672 461 l 672 1081 l 917 1081 l 917 50 l 689 50 z "},"O":{"ha":1250,"x_min":0,"x_max":0,"o":"m 622 24 b 131 564 311 24 131 231 b 622 1104 131 897 311 1104 b 1119 564 936 1104 1119 897 b 622 24 1119 231 936 24 z m 625 260 b 869 564 771 260 869 378 b 625 868 869 740 768 868 b 381 564 482 868 381 740 b 625 260 381 378 479 260 z "},"P":{"ha":926,"x_min":0,"x_max":0,"o":"m 69 1081 l 463 1081 b 897 718 744 1081 897 947 b 490 364 897 529 749 364 l 315 364 l 315 50 l 69 50 z m 315 585 l 501 585 b 657 724 607 585 657 656 b 504 858 657 799 603 858 l 315 858 z "},"Q":{"ha":1065,"x_min":0,"x_max":0,"o":"m 907 208 l 986 58 l 754 -37 l 692 76 b 529 57 643 64 588 57 b 38 581 218 57 38 253 b 529 1104 38 908 218 1104 b 1026 581 843 1104 1026 908 b 907 208 1026 425 985 299 z m 529 285 b 776 581 675 285 776 385 b 529 878 776 772 672 878 b 288 581 389 878 288 772 b 529 285 288 385 386 285 z "},"R":{"ha":929,"x_min":0,"x_max":0,"o":"m 726 450 l 900 50 l 631 50 l 485 396 l 315 396 l 315 50 l 69 50 l 69 1081 l 463 1081 b 897 733 744 1081 897 963 b 726 450 897 613 833 507 z m 315 615 l 501 615 b 657 739 607 615 657 671 b 504 858 657 814 603 858 l 315 858 z "},"S":{"ha":894,"x_min":0,"x_max":0,"o":"m 619 44 b 264 50 521 17 388 15 b 21 207 194 74 82 139 l 185 385 b 511 265 324 288 432 246 b 536 407 583 283 599 367 b 269 538 465 456 394 471 b 110 904 93 636 49 785 b 465 1106 172 1036 307 1106 b 843 950 622 1106 753 1047 l 682 771 b 446 871 614 829 513 871 b 369 803 407 871 369 849 b 574 650 369 758 424 724 b 847 374 763 564 833 478 b 619 44 872 225 793 93 z "},"T":{"ha":828,"x_min":0,"x_max":0,"o":"m 21 1081 l 806 1081 l 806 853 l 533 853 l 533 50 l 286 50 l 286 853 l 21 853 z "},"U":{"ha":960,"x_min":0,"x_max":0,"o":"m 476 249 b 642 418 567 249 642 301 l 642 1081 l 889 1081 l 889 397 b 476 19 889 156 722 19 b 69 397 233 19 69 156 l 69 1081 l 317 1081 l 317 418 b 476 249 317 301 388 249 z "},"V":{"ha":935,"x_min":0,"x_max":0,"o":"m 340 50 l 7 1081 l 274 1081 l 467 401 l 660 1081 l 926 1081 l 593 50 z "},"W":{"ha":1204,"x_min":0,"x_max":0,"o":"m 722 1081 l 856 367 l 860 367 l 913 1081 l 1169 1081 l 1026 50 l 746 50 l 593 771 l 583 771 l 429 50 l 163 50 l 6 1081 l 263 1081 l 317 367 l 321 367 l 453 1081 z "},"X":{"ha":988,"x_min":0,"x_max":0,"o":"m 19 1081 l 319 1081 l 494 761 l 671 1081 l 968 1081 l 668 565 l 979 50 l 681 50 l 494 369 l 307 50 l 7 50 l 304 565 z "},"Y":{"ha":974,"x_min":0,"x_max":0,"o":"m 614 450 l 614 50 l 361 50 l 361 450 l 7 1081 l 293 1081 l 486 689 l 679 1081 l 965 1081 z "},"Z":{"ha":803,"x_min":0,"x_max":0,"o":"m 549 272 b 767 288 647 272 701 278 l 767 69 b 513 50 706 54 593 50 l 35 50 l 35 138 l 413 858 l 61 858 l 61 1081 l 750 1081 l 750 975 l 381 272 z "},"[":{"ha":458,"x_min":0,"x_max":0,"o":"m 93 1132 l 417 1132 l 417 917 l 322 917 l 322 211 l 417 211 l 417 -4 l 93 -4 z "},"\\":{"ha":1250,"x_min":0,"x_max":0,"o":"m 760 1081 l 811 703 l 889 703 l 908 1081 l 1151 1081 l 1108 703 l 1217 703 l 1217 481 l 1085 481 l 1036 50 l 756 50 l 688 481 l 563 481 l 494 50 l 228 50 l 174 481 l 33 481 l 33 703 l 146 703 l 99 1081 l 342 1081 l 361 703 l 439 703 l 490 1081 z m 842 481 l 865 311 l 869 311 l 878 481 z m 651 703 l 631 840 l 621 840 l 599 703 z m 374 481 l 382 311 l 386 311 l 408 481 z "},"]":{"ha":458,"x_min":0,"x_max":0,"o":"m 371 1132 l 371 -4 l 47 -4 l 47 211 l 142 211 l 142 917 l 47 917 l 47 1132 z "},"^":{"ha":726,"x_min":0,"x_max":0,"o":"m 478 1143 l 713 633 l 453 633 l 367 861 l 282 633 l 14 633 l 257 1143 z "},"_":{"ha":675,"x_min":0,"x_max":0,"o":"m 19 232 l 656 232 l 656 24 l 19 24 z "},"`":{"ha":408,"x_min":0,"x_max":0,"o":"m 292 1146 l 360 758 l 157 758 l 51 1146 z "},"a":{"ha":897,"x_min":0,"x_max":0,"o":"m 600 50 l 600 117 b 401 40 554 69 482 40 b 42 436 199 40 35 165 b 411 829 50 710 222 838 b 600 744 492 825 558 789 l 600 814 l 840 814 l 840 50 z m 431 253 b 592 376 513 253 575 292 b 594 414 593 382 594 408 b 436 617 594 544 525 617 b 282 436 361 621 282 561 b 431 253 282 315 346 253 z "},"b":{"ha":896,"x_min":0,"x_max":0,"o":"m 493 39 b 294 118 414 39 339 69 l 294 50 l 56 50 l 56 1081 l 294 1081 l 294 743 b 500 828 335 788 408 825 b 856 428 703 838 853 689 b 493 39 860 158 699 39 z m 447 251 b 622 435 533 246 622 294 b 464 615 622 561 539 615 b 303 414 371 615 303 536 b 447 251 303 328 356 257 z "},"c":{"ha":821,"x_min":0,"x_max":0,"o":"m 35 435 b 460 842 35 690 200 842 b 781 689 583 842 692 796 l 638 525 b 456 619 574 594 529 619 b 275 435 365 618 275 544 b 458 249 275 322 363 249 b 643 343 538 249 589 285 l 785 181 b 460 26 701 72 585 26 b 35 435 206 25 35 164 z "},"d":{"ha":899,"x_min":0,"x_max":0,"o":"m 399 39 b 38 428 197 39 35 158 b 394 828 42 689 192 838 b 603 743 485 825 560 789 l 603 1081 l 842 1081 l 842 50 l 603 50 l 603 118 b 399 39 556 69 481 39 z m 447 251 b 594 414 539 257 594 328 b 428 615 594 536 524 615 b 275 435 356 615 275 561 b 447 251 275 294 361 246 z "},"e":{"ha":819,"x_min":0,"x_max":0,"o":"m 39 428 b 419 842 39 683 194 842 b 783 425 650 842 783 672 l 778 349 l 276 349 b 429 239 282 278 350 239 b 596 322 501 239 551 268 l 753 186 b 419 22 671 74 560 22 b 39 428 196 22 35 178 z m 549 535 b 421 629 539 599 483 629 b 290 535 351 629 299 594 z "},"f":{"ha":518,"x_min":0,"x_max":0,"o":"m 21 814 l 138 814 l 138 860 b 343 1111 138 1033 208 1111 l 489 1111 l 489 897 l 440 897 b 378 835 388 897 378 882 l 378 814 l 496 814 l 496 597 l 378 597 l 378 50 l 138 50 l 138 597 l 21 597 z "},"g":{"ha":892,"x_min":0,"x_max":0,"o":"m 433 293 b 588 446 533 294 588 360 b 433 626 588 567 517 622 b 279 458 365 631 285 586 b 433 293 274 344 347 292 z m 835 182 b 704 -136 835 39 815 -57 b 371 -201 618 -194 494 -207 b 74 -112 286 -197 176 -172 l 174 76 b 467 4 269 22 360 -7 b 592 119 560 15 592 69 l 592 153 b 396 88 556 114 476 88 b 43 447 232 88 35 197 b 410 832 53 722 218 842 b 592 760 490 829 551 800 l 592 814 l 835 814 z "},"h":{"ha":825,"x_min":0,"x_max":0,"o":"m 56 50 l 56 1081 l 299 1081 l 299 778 b 468 835 333 807 401 829 l 486 835 b 771 517 672 835 771 700 l 771 50 l 528 50 l 528 426 b 414 600 528 569 485 607 b 299 546 367 596 329 578 l 299 50 z "},"i":{"ha":353,"x_min":0,"x_max":0,"o":"m 56 814 l 296 814 l 296 50 l 56 50 z m 296 894 l 56 894 l 56 1081 l 296 1081 z "},"j":{"ha":383,"x_min":0,"x_max":0,"o":"m 338 894 l 97 894 l 97 1081 l 338 1081 z m 338 118 b 207 -154 338 -31 303 -114 b -47 -157 126 -187 32 -181 l -36 44 b 57 39 -6 33 39 28 b 97 146 92 53 97 88 l 97 814 l 338 814 z "},"k":{"ha":836,"x_min":0,"x_max":0,"o":"m 297 281 l 297 50 l 56 50 l 56 1081 l 297 1081 l 297 590 l 506 814 l 792 814 l 517 519 l 828 50 l 546 50 l 356 344 z "},"l":{"ha":354,"x_min":0,"x_max":0,"o":"m 56 1101 l 297 1101 l 297 50 l 56 50 z "},"m":{"ha":1246,"x_min":0,"x_max":0,"o":"m 56 50 l 56 814 l 290 814 l 290 767 b 475 833 351 810 407 826 l 490 833 b 686 746 585 833 649 800 b 899 833 750 794 843 833 l 922 833 b 1189 538 1100 833 1189 724 l 1189 50 l 958 50 l 958 413 b 853 597 958 565 918 600 b 747 556 806 596 779 583 b 749 517 749 543 749 529 l 749 50 l 519 50 l 519 413 b 413 597 519 556 479 600 b 290 546 358 596 329 578 l 290 50 z "},"n":{"ha":822,"x_min":0,"x_max":0,"o":"m 56 50 l 56 814 l 299 814 l 299 769 b 469 832 333 799 403 826 l 492 832 b 765 517 678 832 764 707 l 765 50 l 522 50 l 522 413 b 415 597 522 572 483 600 b 299 550 363 594 339 581 l 299 50 z "},"o":{"ha":899,"x_min":0,"x_max":0,"o":"m 446 251 b 624 433 539 251 624 311 b 446 615 624 550 539 615 b 274 433 356 615 274 550 b 446 251 274 311 356 251 z m 449 32 b 33 433 206 32 33 192 b 449 835 33 685 221 835 b 864 433 676 835 864 685 b 449 32 864 192 692 32 z "},"p":{"ha":896,"x_min":0,"x_max":0,"o":"m 493 39 b 294 118 414 39 339 69 l 294 -124 l 56 -124 l 56 814 l 294 814 l 294 746 b 500 826 335 790 408 824 b 856 426 703 832 853 688 b 493 39 860 157 699 39 z m 453 251 b 622 433 538 247 622 293 b 464 614 622 561 540 614 b 303 411 371 614 303 535 b 453 251 303 331 367 257 z "},"q":{"ha":899,"x_min":0,"x_max":0,"o":"m 399 39 b 38 426 197 39 35 157 b 394 826 42 688 192 832 b 603 744 485 824 560 790 l 603 814 l 842 814 l 842 -124 l 603 -124 l 603 118 b 399 39 556 68 481 39 z m 442 251 b 594 411 528 257 594 331 b 428 614 594 535 524 614 b 275 433 354 614 275 561 b 442 251 275 293 357 247 z "},"r":{"ha":500,"x_min":0,"x_max":0,"o":"m 492 821 l 492 592 l 469 592 b 303 540 413 592 353 576 l 303 50 l 56 50 l 56 814 l 303 814 l 303 758 b 467 821 354 797 400 814 z "},"s":{"ha":715,"x_min":0,"x_max":0,"o":"m 511 38 b 243 36 438 17 347 19 b 17 136 171 50 89 86 l 114 325 b 369 232 204 278 289 243 b 386 303 421 221 432 283 b 151 406 326 332 247 347 b 61 686 60 461 14 575 b 335 843 96 778 181 838 b 668 731 458 847 564 811 l 543 557 b 349 628 467 604 407 624 b 332 560 317 632 299 578 b 549 469 389 528 471 511 b 685 228 651 417 700 335 b 511 38 672 124 607 65 z "},"t":{"ha":556,"x_min":0,"x_max":0,"o":"m 379 371 b 417 274 379 313 386 285 b 500 283 438 267 456 268 l 540 71 b 269 57 468 38 351 25 b 139 326 174 96 139 181 l 139 597 l 14 597 l 14 814 l 139 814 l 139 1081 l 379 1081 l 379 814 l 535 814 l 535 597 l 379 597 z "},"u":{"ha":804,"x_min":0,"x_max":0,"o":"m 747 814 l 747 50 l 504 50 l 504 94 b 342 32 469 65 408 38 l 324 32 b 56 333 138 32 56 150 l 56 814 l 299 814 l 299 438 b 396 267 299 297 340 265 b 504 314 444 268 475 282 l 504 814 z "},"v":{"ha":794,"x_min":0,"x_max":0,"o":"m 0 814 l 260 814 l 397 381 l 535 814 l 793 814 l 500 50 l 289 50 z "},"w":{"ha":1132,"x_min":0,"x_max":0,"o":"m 565 447 l 436 50 l 235 50 l 7 814 l 257 814 l 356 376 l 463 814 l 667 814 l 775 376 l 872 814 l 1124 814 l 896 50 l 694 50 z "},"x":{"ha":847,"x_min":0,"x_max":0,"o":"m 15 814 l 293 814 l 421 600 l 549 814 l 819 814 l 576 432 l 839 50 l 564 50 l 421 253 l 278 50 l 7 50 l 265 432 z "},"y":{"ha":835,"x_min":0,"x_max":0,"o":"m 303 226 l 4 814 l 279 814 l 429 500 l 560 814 l 829 814 l 397 -158 l 156 -90 z "},"z":{"ha":658,"x_min":0,"x_max":0,"o":"m 378 50 l 25 50 l 25 149 l 293 597 l 36 597 l 36 814 l 625 814 l 625 735 l 346 267 l 414 267 b 632 275 508 267 567 267 l 632 63 b 378 50 571 47 458 50 z "},"{":{"ha":525,"x_min":0,"x_max":0,"o":"m 268 564 b 322 525 289 560 307 539 b 378 297 364 479 378 453 b 446 201 378 226 394 203 l 513 200 l 513 7 l 472 6 b 306 18 433 6 354 7 b 185 161 239 33 188 90 b 178 332 182 225 181 299 b 26 442 172 410 124 440 l 26 686 b 178 796 124 688 172 718 b 185 967 181 829 182 903 b 306 1110 188 1038 239 1094 b 472 1122 354 1121 433 1122 l 513 1121 l 513 928 l 446 926 b 378 831 394 925 378 901 b 322 603 378 675 364 649 b 268 564 307 589 289 568 z "},"|":{"ha":810,"x_min":0,"x_max":0,"o":"m 283 1147 l 526 1147 l 526 -17 l 283 -17 z "},"}":{"ha":525,"x_min":0,"x_max":0,"o":"m 268 564 b 214 603 247 568 229 589 b 158 831 172 649 158 675 b 90 926 158 901 142 925 l 24 928 l 24 1121 l 64 1122 b 231 1110 103 1122 182 1121 b 351 967 297 1094 349 1038 b 358 796 354 903 356 829 b 510 686 364 718 413 688 l 510 442 b 358 332 413 440 364 410 b 351 161 356 299 354 225 b 231 18 349 90 297 33 b 64 6 182 7 103 6 l 24 7 l 24 200 l 90 201 b 158 297 142 203 158 226 b 214 525 158 453 172 479 b 268 564 229 539 247 560 z "},"~":{"ha":865,"x_min":0,"x_max":0,"o":"m 550 669 b 599 731 579 669 590 679 l 604 775 l 828 713 l 824 665 b 642 431 804 508 735 435 b 447 478 561 426 510 444 b 325 517 390 508 349 524 b 276 453 300 510 286 490 l 265 404 l 42 467 l 49 514 b 196 754 68 660 118 731 b 390 736 269 776 324 768 b 550 669 449 708 511 669 z "},"₩":{"ha":1250,"x_min":0,"x_max":0,"o":"m 760 1081 l 811 703 l 889 703 l 908 1081 l 1151 1081 l 1108 703 l 1217 703 l 1217 481 l 1085 481 l 1036 50 l 756 50 l 688 481 l 563 481 l 494 50 l 228 50 l 174 481 l 33 481 l 33 703 l 146 703 l 99 1081 l 342 1081 l 361 703 l 439 703 l 490 1081 z m 842 481 l 865 311 l 869 311 l 878 481 z m 651 703 l 631 840 l 621 840 l 599 703 z m 374 481 l 382 311 l 386 311 l 408 481 z "},"©":{"ha":1125,"x_min":0,"x_max":0,"o":"m 1100 499 b 1057 292 1100 425 1085 356 b 940 119 1028 225 989 168 b 771 3 892 69 835 31 b 561 -40 704 -26 635 -40 b 351 3 486 -40 415 -26 b 179 119 285 31 228 69 b 65 292 131 168 93 225 b 24 499 38 356 24 425 b 65 704 24 571 38 639 b 179 875 93 768 131 825 b 351 993 228 924 285 963 b 561 1036 415 1021 486 1036 b 771 993 635 1036 704 1021 b 940 875 835 963 892 924 b 1057 704 989 825 1028 768 b 1100 499 1085 639 1100 571 z m 175 499 b 214 318 175 428 188 368 b 313 193 239 267 272 225 b 439 122 351 160 394 136 b 561 99 483 106 524 99 b 714 131 615 99 667 108 b 838 215 761 150 801 179 b 918 343 871 251 897 294 b 949 499 938 390 949 443 b 918 654 949 553 938 604 b 836 781 897 701 869 744 b 713 867 800 817 760 844 b 561 897 665 886 614 897 b 431 868 519 897 475 888 b 306 786 385 847 343 819 b 213 660 267 750 236 708 b 175 499 188 610 175 557 z m 796 736 l 717 629 b 657 678 700 646 681 663 b 571 699 632 692 603 699 b 500 683 543 699 519 693 b 450 642 479 672 463 658 b 424 579 438 622 429 601 b 414 501 417 554 414 529 b 428 410 414 465 418 435 b 463 349 436 383 447 363 b 513 314 476 332 493 319 b 572 306 531 307 550 304 b 657 324 603 304 632 310 b 717 374 681 335 700 351 l 803 272 b 760 231 789 256 774 242 b 711 199 744 217 728 207 b 650 179 693 190 672 183 b 571 171 625 174 599 171 b 438 197 518 171 474 179 b 344 268 399 214 368 238 b 293 374 321 297 304 332 b 276 501 281 414 275 457 b 290 614 275 538 279 575 b 338 721 299 651 315 688 b 429 801 360 753 390 779 b 572 832 467 821 514 832 b 651 824 601 832 628 829 b 713 800 674 817 694 808 b 758 769 729 790 744 781 b 796 736 771 757 783 746 z "},"　":{"ha":1250,"x_min":0,"x_max":0,"o":""},"ㅤ":{"ha":1250,"x_min":0,"x_max":0,"o":""},"·":{"ha":788,"x_min":0,"x_max":0,"o":"m 268 647 l 519 647 l 519 413 l 268 413 z "},"‥":{"ha":1250,"x_min":0,"x_max":0,"o":"m 763 647 l 1010 647 l 1010 413 l 763 413 z m 240 647 l 486 647 l 486 413 l 240 413 z "},"…":{"ha":1250,"x_min":0,"x_max":0,"o":"m 882 647 l 1106 647 l 1106 413 l 882 413 z m 511 647 l 742 647 l 742 413 l 511 413 z m 144 647 l 374 647 l 374 413 l 144 413 z "},"¨":{"ha":1250,"x_min":0,"x_max":0,"o":"m 763 1147 l 1010 1147 l 1010 913 l 763 913 z m 240 1147 l 486 1147 l 486 913 l 240 913 z "},"〃":{"ha":1250,"x_min":0,"x_max":0,"o":"m 706 321 l 558 411 l 756 761 l 924 660 l 842 528 z m 479 392 l 325 468 l 493 833 l 665 747 l 594 608 z "},"­":{"ha":1250,"x_min":0,"x_max":0,"o":"m 242 682 l 1007 682 l 1007 460 l 242 460 z "},"―":{"ha":1250,"x_min":0,"x_max":0,"o":"m 158 682 l 1090 682 l 1090 460 l 158 460 z "},"∥":{"ha":1250,"x_min":0,"x_max":0,"o":"m 665 21 l 665 1107 l 901 1107 l 901 21 z m 347 21 l 347 1107 l 583 1107 l 583 21 z "},"＼":{"ha":1250,"x_min":0,"x_max":0,"o":"m 863 26 l 599 -15 l 386 1092 l 649 1133 z "},"∼":{"ha":1250,"x_min":0,"x_max":0,"o":"m 724 1069 b 763 1118 750 1071 758 1085 l 768 1157 l 958 1103 l 956 1063 b 800 865 939 931 879 868 b 635 906 732 861 688 876 b 531 933 588 931 551 940 b 492 883 510 928 500 915 l 482 843 l 292 896 l 297 936 b 425 1139 314 1058 360 1118 b 588 1124 488 1157 536 1150 b 724 1069 636 1099 690 1068 z "},"～":{"ha":1250,"x_min":0,"x_max":0,"o":"m 724 1069 b 763 1118 750 1071 758 1085 l 768 1157 l 958 1103 l 956 1063 b 800 865 939 931 879 868 b 635 906 732 861 688 876 b 531 933 588 931 551 940 b 492 883 510 928 500 915 l 482 843 l 292 896 l 297 936 b 425 1139 314 1058 360 1118 b 588 1124 488 1157 536 1150 b 724 1069 636 1099 690 1068 z "},"‘":{"ha":349,"x_min":0,"x_max":0,"o":"m 294 760 l 56 760 l 56 965 l 94 1146 l 253 1146 l 232 1014 l 294 1014 z "},"’":{"ha":349,"x_min":0,"x_max":0,"o":"m 47 1146 l 286 1146 l 286 982 l 261 760 l 103 760 l 110 892 l 47 892 z "},"“":{"ha":650,"x_min":0,"x_max":0,"o":"m 301 760 l 69 760 l 69 965 l 108 1146 l 260 1146 l 239 1014 l 301 1014 z m 593 760 l 361 760 l 361 965 l 400 1146 l 551 1146 l 531 1014 l 593 1014 z "},"”":{"ha":650,"x_min":0,"x_max":0,"o":"m 347 1146 l 579 1146 l 579 982 l 554 760 l 403 760 l 410 892 l 347 892 z m 56 1146 l 288 1146 l 288 982 l 263 760 l 111 760 l 118 892 l 56 892 z "},"〔":{"ha":431,"x_min":0,"x_max":0,"o":"m 86 1083 l 396 1174 l 396 944 l 315 917 l 315 211 l 396 183 l 396 -46 l 86 44 z "},"〕":{"ha":431,"x_min":0,"x_max":0,"o":"m 350 1083 l 350 44 l 40 -46 l 40 183 l 121 211 l 121 917 l 40 944 l 40 1174 z "},"〈":{"ha":514,"x_min":0,"x_max":0,"o":"m 19 589 l 267 1142 l 485 1054 l 274 567 l 482 78 l 265 -10 l 19 543 z "},"〉":{"ha":514,"x_min":0,"x_max":0,"o":"m 497 589 l 497 543 l 251 -10 l 35 78 l 243 567 l 32 1054 l 250 1142 z "},"《":{"ha":750,"x_min":0,"x_max":0,"o":"m 71 588 l 235 1168 l 439 1122 l 299 565 l 436 7 l 233 -39 l 71 542 z m 367 588 l 508 1124 l 706 1078 l 574 565 l 703 39 l 507 -7 l 367 542 z "},"》":{"ha":750,"x_min":0,"x_max":0,"o":"m 686 588 l 686 542 l 524 -39 l 321 7 l 458 565 l 318 1122 l 522 1168 z m 390 588 l 390 542 l 250 -7 l 54 39 l 183 565 l 51 1078 l 249 1124 z "},"「":{"ha":410,"x_min":0,"x_max":0,"o":"m 25 649 l 25 1174 l 388 1174 l 388 951 l 268 951 l 268 649 z "},"」":{"ha":397,"x_min":0,"x_max":0,"o":"m 375 479 l 375 -46 l 13 -46 l 13 176 l 132 176 l 132 479 z "},"『":{"ha":410,"x_min":0,"x_max":0,"o":"m 283 1079 l 129 1079 l 129 764 l 167 764 l 167 1042 l 283 1042 z m 25 649 l 25 1174 l 388 1174 l 388 951 l 268 951 l 268 649 z "},"』":{"ha":397,"x_min":0,"x_max":0,"o":"m 117 49 l 271 49 l 271 364 l 233 364 l 233 86 l 117 86 z m 375 479 l 375 -46 l 13 -46 l 13 176 l 132 176 l 132 479 z "},"【":{"ha":500,"x_min":0,"x_max":0,"o":"m 50 1174 l 482 1174 b 315 564 375 1019 314 753 b 482 -46 314 375 375 108 l 50 -46 z "},"】":{"ha":500,"x_min":0,"x_max":0,"o":"m 451 -46 l 19 -46 b 186 564 126 108 188 375 b 19 1174 188 753 126 1019 l 451 1174 z "},"±":{"ha":808,"x_min":0,"x_max":0,"o":"m 286 814 l 286 1026 l 524 1026 l 524 814 l 731 814 l 731 599 l 524 599 l 524 388 l 286 388 l 286 599 l 79 599 l 79 814 z m 65 321 l 743 321 l 743 113 l 65 113 z "},"×":{"ha":829,"x_min":0,"x_max":0,"o":"m 413 736 l 610 936 l 772 774 l 572 575 l 771 378 l 610 215 l 413 414 l 214 215 l 51 378 l 250 575 l 51 772 l 214 935 z "},"÷":{"ha":764,"x_min":0,"x_max":0,"o":"m 726 667 l 726 458 l 51 458 l 51 667 z m 389 758 b 242 899 304 758 242 810 b 389 1039 242 983 313 1039 b 536 899 465 1039 536 983 b 389 758 536 810 474 758 z m 389 93 b 242 233 304 93 242 144 b 389 374 242 318 313 374 b 536 233 465 374 536 318 b 389 93 536 144 474 93 z "},"≠":{"ha":836,"x_min":0,"x_max":0,"o":"m 57 842 l 350 842 l 410 1156 l 665 1114 l 614 842 l 778 842 l 778 629 l 575 629 l 549 492 l 778 492 l 778 276 l 508 276 l 453 -28 l 196 14 l 244 276 l 57 276 l 57 492 l 285 492 l 311 629 l 57 629 z "},"≤":{"ha":1181,"x_min":0,"x_max":0,"o":"m 361 713 l 1006 490 l 949 283 l 121 585 l 121 840 l 949 1128 l 1006 921 z m 96 233 l 1028 233 l 1028 32 l 96 32 z "},"≥":{"ha":1181,"x_min":0,"x_max":0,"o":"m 764 713 l 119 921 l 176 1128 l 1004 840 l 1004 585 l 176 283 l 119 490 z m 1029 233 l 1029 32 l 97 32 l 97 233 z "},"∞":{"ha":1250,"x_min":0,"x_max":0,"o":"m 357 400 b 497 522 413 394 468 442 b 519 583 504 542 513 563 b 374 686 475 658 426 686 b 247 536 306 686 249 619 b 357 400 246 458 294 406 z m 606 743 b 829 864 663 814 738 860 b 1135 686 982 871 1074 810 b 1058 285 1215 524 1133 347 b 835 207 993 228 936 201 b 607 328 736 211 658 264 b 508 235 581 289 547 254 b 228 225 436 194 315 192 b 49 488 135 261 60 360 b 151 785 36 606 69 708 b 375 864 217 842 304 871 b 606 743 471 858 544 815 z m 682 483 b 835 389 719 424 768 390 b 968 536 901 388 968 442 b 833 678 968 644 901 678 b 690 507 767 678 724 607 b 682 483 688 499 685 492 z "},"∴":{"ha":1250,"x_min":0,"x_max":0,"o":"m 625 710 b 486 843 546 710 486 758 b 625 976 486 924 553 976 b 764 843 697 976 764 924 b 625 710 764 758 704 710 z m 321 168 b 182 301 242 168 182 217 b 321 435 182 382 249 435 b 461 301 394 435 461 382 b 321 168 461 217 401 168 z m 929 168 b 789 301 849 168 789 217 b 929 435 789 382 856 435 b 1068 301 1001 435 1068 382 b 929 168 1068 217 1008 168 z "},"°":{"ha":1250,"x_min":0,"x_max":0,"o":"m 625 808 b 442 983 519 808 442 871 b 625 1158 442 1089 529 1158 b 808 983 721 1158 808 1089 b 625 808 808 871 731 808 z m 625 942 b 668 983 650 942 668 963 b 625 1025 668 1004 653 1025 b 582 983 597 1025 582 1004 b 625 942 582 963 600 942 z "},"′":{"ha":1250,"x_min":0,"x_max":0,"o":"m 539 1126 l 779 1126 l 674 758 l 471 758 z "},"″":{"ha":1250,"x_min":0,"x_max":0,"o":"m 421 1126 l 633 1126 l 535 758 l 353 758 z m 692 1126 l 897 1126 l 792 758 l 596 758 z "},"℃":{"ha":1250,"x_min":0,"x_max":0,"o":"m 361 514 b 592 951 361 726 450 864 b 925 996 676 1003 828 1018 b 1179 838 1008 979 1090 933 l 1039 692 b 778 776 954 786 853 796 b 588 514 682 751 588 660 b 779 250 588 367 694 265 b 1039 338 865 235 975 250 l 1179 189 b 925 31 1094 92 1014 47 b 592 75 828 11 676 25 b 361 514 450 164 361 300 z m 267 815 b 83 990 161 815 83 878 b 267 1165 83 1096 171 1165 b 450 990 363 1165 450 1096 b 267 815 450 878 372 815 z m 267 949 b 310 990 292 949 310 969 b 267 1032 310 1011 294 1032 b 224 990 239 1032 224 1011 b 267 949 224 969 242 949 z "},"Å":{"ha":1250,"x_min":0,"x_max":0,"o":"m 624 719 l 525 438 l 717 438 z m 628 942 b 671 983 653 942 671 963 b 628 1025 671 1004 656 1025 b 585 983 600 1025 585 1004 b 628 942 585 963 603 942 z m 1096 49 l 849 49 l 772 238 l 469 238 l 399 49 l 153 49 l 479 858 b 436 983 453 889 436 931 b 628 1167 436 1093 528 1167 b 819 983 728 1167 819 1093 b 765 847 819 924 799 878 z "},"¢":{"ha":1250,"x_min":0,"x_max":0,"o":"m 189 564 b 432 1010 189 782 288 921 b 681 1065 490 1046 590 1064 l 717 1178 l 954 1115 l 919 1008 b 1060 893 965 982 1013 944 l 917 744 b 853 799 897 767 876 785 l 690 286 b 917 385 772 288 867 317 l 1060 233 b 794 71 974 133 885 88 b 621 65 747 61 683 60 l 585 -46 l 346 17 l 388 147 b 189 564 267 238 189 368 z m 604 829 b 419 564 497 792 419 710 b 468 401 419 500 439 444 z "},"￠":{"ha":1250,"x_min":0,"x_max":0,"o":"m 189 564 b 432 1010 189 782 288 921 b 681 1065 490 1046 590 1064 l 717 1178 l 954 1115 l 919 1008 b 1060 893 965 982 1013 944 l 917 744 b 853 799 897 767 876 785 l 690 286 b 917 385 772 288 867 317 l 1060 233 b 794 71 974 133 885 88 b 621 65 747 61 683 60 l 585 -46 l 346 17 l 388 147 b 189 564 267 238 189 368 z m 604 829 b 419 564 497 792 419 710 b 468 401 419 500 439 444 z "},"£":{"ha":1250,"x_min":0,"x_max":0,"o":"m 1004 768 l 775 768 b 663 900 772 863 732 900 b 556 774 601 900 556 858 l 556 674 l 797 674 l 797 465 l 554 465 l 554 428 b 529 258 554 350 549 294 l 744 258 b 843 344 810 258 843 289 l 843 361 l 1072 361 l 1072 335 b 760 50 1072 139 956 50 l 206 50 l 206 258 l 288 258 b 311 433 304 281 311 336 l 311 465 l 221 465 l 221 674 l 311 674 l 313 753 b 671 1108 313 994 474 1108 b 1004 768 901 1108 1001 971 z "},"￡":{"ha":1250,"x_min":0,"x_max":0,"o":"m 1004 768 l 775 768 b 663 900 772 863 732 900 b 556 774 601 900 556 858 l 556 674 l 797 674 l 797 465 l 554 465 l 554 428 b 529 258 554 350 549 294 l 744 258 b 843 344 810 258 843 289 l 843 361 l 1072 361 l 1072 335 b 760 50 1072 139 956 50 l 206 50 l 206 258 l 288 258 b 311 433 304 281 311 336 l 311 465 l 221 465 l 221 674 l 311 674 l 313 753 b 671 1108 313 994 474 1108 b 1004 768 901 1108 1001 971 z "},"¥":{"ha":1250,"x_min":0,"x_max":0,"o":"m 760 456 l 760 374 l 1021 374 l 1021 172 l 760 172 l 760 50 l 507 50 l 507 172 l 217 172 l 217 374 l 507 374 l 507 456 l 217 456 l 217 654 l 446 654 l 167 1081 l 432 1081 l 632 772 l 818 1081 l 1083 1081 l 818 654 l 1021 654 l 1021 456 z "},"￥":{"ha":1250,"x_min":0,"x_max":0,"o":"m 760 456 l 760 374 l 1021 374 l 1021 172 l 760 172 l 760 50 l 507 50 l 507 172 l 217 172 l 217 374 l 507 374 l 507 456 l 217 456 l 217 654 l 446 654 l 167 1081 l 432 1081 l 632 772 l 818 1081 l 1083 1081 l 818 654 l 1021 654 l 1021 456 z "},"♂":{"ha":1250,"x_min":0,"x_max":0,"o":"m 625 1138 l 1051 786 l 906 619 l 743 750 l 743 625 b 976 332 881 588 976 481 b 625 22 976 144 840 22 b 274 332 410 22 274 144 b 507 625 274 481 368 588 l 507 750 l 344 619 l 199 786 z m 625 231 b 747 332 688 231 747 265 b 625 433 747 399 683 433 b 503 332 567 433 503 399 b 625 231 503 265 563 231 z "},"♀":{"ha":1250,"x_min":0,"x_max":0,"o":"m 503 510 b 274 804 360 547 274 654 b 625 1114 274 993 426 1114 b 976 804 824 1114 976 993 b 746 508 976 654 889 547 l 746 432 l 986 432 l 986 210 l 746 210 l 746 22 l 503 22 l 503 210 l 263 210 l 263 432 l 503 432 z m 625 703 b 747 804 688 703 747 738 b 625 906 747 871 683 906 b 503 804 567 906 503 871 b 625 703 503 738 563 703 z "},"∠":{"ha":1250,"x_min":0,"x_max":0,"o":"m 128 128 l 847 1161 l 1039 1032 l 500 243 l 1121 243 l 1121 21 l 128 21 z "},"⊥":{"ha":1250,"x_min":0,"x_max":0,"o":"m 114 243 l 503 243 l 503 1079 l 746 1079 l 746 243 l 1135 243 l 1135 21 l 114 21 z "},"⌒":{"ha":1250,"x_min":0,"x_max":0,"o":"m 625 735 b 333 451 474 735 364 639 l 106 493 b 625 957 142 785 342 957 b 1144 493 908 957 1108 785 l 917 451 b 625 735 886 639 776 735 z "},"∂":{"ha":1375,"x_min":0,"x_max":0,"o":"m 551 288 b 606 308 568 288 586 294 b 658 353 624 318 642 333 b 697 410 672 372 686 390 b 718 456 708 429 714 444 b 658 444 697 453 678 450 b 600 414 633 436 617 428 b 554 369 582 401 567 386 b 536 307 540 349 536 329 b 538 290 536 294 536 290 b 551 288 538 288 540 288 z m 490 588 l 322 588 b 486 793 379 678 433 747 b 679 860 539 835 604 860 b 786 832 719 860 754 849 b 864 765 817 814 843 793 b 911 674 885 738 900 707 b 928 569 921 639 928 603 b 893 390 928 504 917 446 b 799 246 869 332 836 285 b 667 147 758 204 714 172 b 518 111 619 124 569 111 b 446 129 492 111 467 115 b 388 176 421 142 401 157 b 350 240 371 194 357 217 b 338 310 340 264 338 285 b 372 449 338 363 349 410 b 463 540 396 485 424 514 b 588 593 499 564 540 581 b 725 610 631 603 678 608 b 708 665 722 636 718 657 b 656 681 697 676 679 681 b 579 664 626 681 601 675 b 490 588 556 650 525 626 z "},"∇":{"ha":1250,"x_min":0,"x_max":0,"o":"m 431 917 l 658 472 l 885 917 z m 625 19 l 103 1079 l 1146 1079 z "},"≡":{"ha":1250,"x_min":0,"x_max":0,"o":"m 172 950 l 1076 950 l 1076 763 l 172 763 z m 172 422 l 1076 422 l 1076 235 l 172 235 z m 172 686 l 1076 686 l 1076 499 l 172 499 z "},"≒":{"ha":1250,"x_min":0,"x_max":0,"o":"m 376 850 b 244 975 301 850 244 896 b 376 1100 244 1050 308 1100 b 508 975 444 1100 508 1050 b 376 850 508 896 451 850 z m 215 800 l 1033 800 l 1033 601 l 215 601 z m 215 526 l 1033 526 l 1033 325 l 215 325 z m 874 29 b 742 154 799 29 742 75 b 874 279 742 229 806 279 b 1006 154 942 279 1006 229 b 874 29 1006 75 949 29 z "},"§":{"ha":1250,"x_min":0,"x_max":0,"o":"m 597 519 b 649 471 610 504 632 483 b 699 450 668 458 682 453 b 714 464 707 449 714 456 b 706 506 714 469 715 485 b 661 572 693 529 683 546 b 569 640 629 611 599 636 b 551 618 556 642 551 629 b 597 519 551 592 569 553 z m 435 911 b 443 999 432 942 435 971 b 476 1072 449 1026 461 1050 b 538 1121 493 1092 513 1108 b 618 1139 560 1133 588 1139 b 703 1121 650 1139 678 1133 b 761 1076 725 1108 744 1093 b 797 1024 776 1058 788 1042 b 807 979 803 1004 807 989 b 799 942 807 967 804 954 b 769 910 792 928 782 918 b 711 908 753 901 733 901 b 668 939 689 914 675 924 b 649 985 658 949 651 964 b 644 1019 646 1004 644 1017 b 643 1025 644 1019 643 1021 b 639 1028 642 1025 639 1026 b 629 1031 636 1028 632 1029 b 608 1032 622 1031 617 1031 b 575 1018 592 1032 582 1028 b 567 963 569 1008 567 989 b 571 913 565 943 567 926 b 592 867 574 897 582 882 b 633 815 601 850 615 833 b 697 750 649 797 669 774 l 763 681 b 826 582 786 653 807 621 b 842 460 842 540 847 499 b 806 379 835 428 825 401 b 758 343 788 358 771 346 b 788 292 764 333 772 317 b 818 183 801 264 813 229 b 811 96 819 153 817 124 b 775 22 803 67 790 42 b 715 -26 758 1 739 -15 b 635 -44 692 -39 664 -44 b 551 -26 601 -44 574 -39 b 492 17 526 -15 507 -3 b 456 69 475 33 463 51 b 446 115 449 88 446 103 b 454 154 446 128 449 140 b 483 185 460 165 468 175 b 540 186 499 192 519 192 b 586 157 561 176 576 168 b 604 111 596 146 601 131 b 608 74 607 89 608 78 b 611 69 608 71 608 69 b 614 65 611 67 611 65 b 624 64 615 64 618 64 b 646 63 629 63 636 63 b 678 78 661 63 672 67 b 688 133 683 86 688 104 b 681 181 688 149 683 165 b 658 225 676 194 668 210 b 618 279 647 240 633 260 b 556 344 600 297 581 318 l 490 413 b 428 513 464 438 443 471 b 413 635 408 553 404 592 b 451 715 418 667 431 694 b 519 757 471 738 494 751 b 464 826 500 774 482 797 b 435 911 444 853 435 881 z "},"※":{"ha":1250,"x_min":0,"x_max":0,"o":"m 769 565 l 1083 253 l 939 110 l 626 424 l 313 110 l 171 253 l 485 565 l 171 879 l 314 1022 l 626 708 l 938 1022 l 1082 879 z m 626 840 b 492 969 551 840 492 889 b 626 1099 492 1046 558 1099 b 763 969 697 1099 763 1046 b 626 840 763 889 703 840 z m 626 31 b 492 160 551 31 492 79 b 626 289 492 236 558 289 b 763 160 697 289 763 236 b 626 31 763 79 703 31 z m 235 439 b 99 567 158 439 99 488 b 235 697 99 644 165 697 b 371 567 306 697 371 644 b 235 439 371 488 311 439 z m 1015 439 b 879 567 939 439 879 488 b 1015 697 879 644 944 697 b 1151 567 1085 697 1151 644 b 1015 439 1151 488 1092 439 z "},"☆":{"ha":1250,"x_min":0,"x_max":0,"o":"m 725 657 l 625 850 l 525 657 l 331 631 l 471 485 l 438 288 l 625 382 l 813 288 l 778 485 l 918 631 z m 1029 0 b 625 172 881 56 760 108 b 219 0 489 108 364 57 b 276 431 236 149 251 286 b 22 750 183 536 113 624 b 401 828 160 781 274 804 b 625 1182 472 950 543 1067 b 849 828 707 1060 774 953 b 1228 750 976 807 1092 782 b 974 431 1143 632 1065 535 b 1029 0 997 286 1015 149 z "},"★":{"ha":1250,"x_min":0,"x_max":0,"o":"m 1029 0 b 625 172 881 56 760 108 b 219 0 489 108 364 57 b 276 431 236 149 251 286 b 22 750 183 536 113 624 b 401 828 160 781 274 804 b 625 1182 472 950 543 1067 b 849 828 707 1060 774 953 b 1228 750 976 807 1092 782 b 974 431 1143 632 1065 535 b 1029 0 997 286 1015 149 z "},"○":{"ha":1250,"x_min":0,"x_max":0,"o":"m 1169 564 b 625 19 1169 264 925 19 b 81 564 325 19 81 264 b 625 1108 81 864 325 1108 b 1169 564 925 1108 1169 864 z m 943 564 b 625 882 943 736 797 882 b 307 564 453 882 307 736 b 625 246 307 392 453 246 b 943 564 797 246 943 392 z "},"●":{"ha":1250,"x_min":0,"x_max":0,"o":"m 1169 564 b 625 19 1169 264 925 19 b 81 564 325 19 81 264 b 625 1108 81 864 325 1108 b 1169 564 925 1108 1169 864 z "},"◎":{"ha":1250,"x_min":0,"x_max":0,"o":"m 625 25 b 78 565 293 25 78 246 b 625 1106 78 885 293 1106 b 1172 565 957 1106 1172 885 b 625 25 1172 246 957 25 z m 625 140 b 1057 565 881 140 1057 311 b 625 990 1057 819 881 990 b 193 565 369 990 193 819 b 625 140 193 311 369 140 z m 625 214 b 268 565 408 214 268 358 b 625 917 268 772 408 917 b 982 565 842 917 982 772 b 625 214 982 358 842 214 z m 625 339 b 857 565 765 339 857 439 b 625 792 857 692 765 792 b 393 565 485 792 393 692 b 625 339 393 439 485 339 z "},"◇":{"ha":1313,"x_min":0,"x_max":0,"o":"m 11 565 l 625 1178 l 1239 565 l 625 -49 z m 321 565 l 625 261 l 929 565 l 625 869 z "},"◆":{"ha":1313,"x_min":0,"x_max":0,"o":"m 11 565 l 625 1178 l 1239 565 l 625 -49 z "},"□":{"ha":1250,"x_min":0,"x_max":0,"o":"m 329 861 l 329 269 l 921 269 l 921 861 z m 110 1081 l 1140 1081 l 1140 50 l 110 50 z "},"■":{"ha":1250,"x_min":0,"x_max":0,"o":"m 110 1081 l 1140 1081 l 1140 50 l 110 50 z "},"△":{"ha":1250,"x_min":0,"x_max":0,"o":"m 49 50 l 625 1136 l 1200 50 z m 399 253 l 850 253 l 625 681 z "},"▲":{"ha":1250,"x_min":0,"x_max":0,"o":"m 49 50 l 625 1136 l 1200 50 z "},"▽":{"ha":1250,"x_min":0,"x_max":0,"o":"m 49 1081 l 1200 1081 l 625 -6 z m 399 878 l 625 450 l 850 878 z "},"▼":{"ha":1250,"x_min":0,"x_max":0,"o":"m 49 1081 l 1200 1081 l 625 -6 z "},"→":{"ha":1250,"x_min":0,"x_max":0,"o":"m 1147 524 l 796 97 l 629 243 l 774 413 l 101 413 l 101 635 l 774 635 l 629 804 l 796 950 z "},"←":{"ha":1250,"x_min":0,"x_max":0,"o":"m 101 524 l 453 950 l 619 804 l 475 635 l 1147 635 l 1147 413 l 475 413 l 619 243 l 453 97 z "},"↑":{"ha":1250,"x_min":0,"x_max":0,"o":"m 625 1131 l 1051 779 l 903 613 l 743 754 l 743 50 l 507 50 l 507 754 l 347 613 l 199 779 z "},"↓":{"ha":1250,"x_min":0,"x_max":0,"o":"m 625 0 l 199 351 l 347 518 l 507 376 l 507 1081 l 743 1081 l 743 376 l 903 518 l 1051 351 z "},"↔":{"ha":1250,"x_min":0,"x_max":0,"o":"m 865 413 l 385 413 l 515 236 l 349 97 l 53 524 l 349 950 l 515 811 l 385 635 l 865 635 l 735 811 l 901 950 l 1197 524 l 901 97 l 735 236 z "},"〓":{"ha":1250,"x_min":0,"x_max":0,"o":"m 186 833 l 1063 833 l 1063 618 l 186 618 z m 186 503 l 1063 503 l 1063 288 l 186 288 z "},"«":{"ha":1250,"x_min":0,"x_max":0,"o":"m 92 519 l 92 589 l 622 1146 l 776 1006 l 351 554 l 774 99 l 621 -37 z m 488 518 l 488 588 l 1004 1131 l 1158 983 l 740 553 l 1156 118 l 1003 -25 z "},"≪":{"ha":1250,"x_min":0,"x_max":0,"o":"m 92 519 l 92 589 l 622 1146 l 776 1006 l 351 554 l 774 99 l 621 -37 z m 488 518 l 488 588 l 1004 1131 l 1158 983 l 740 553 l 1156 118 l 1003 -25 z "},"»":{"ha":1250,"x_min":0,"x_max":0,"o":"m 1158 519 l 629 -37 l 476 99 l 899 554 l 474 1006 l 628 1146 l 1158 589 z m 763 518 l 247 -25 l 94 118 l 510 553 l 92 983 l 246 1131 l 763 588 z "},"≫":{"ha":1250,"x_min":0,"x_max":0,"o":"m 1158 519 l 629 -37 l 476 99 l 899 554 l 474 1006 l 628 1146 l 1158 589 z m 763 518 l 247 -25 l 94 118 l 510 553 l 92 983 l 246 1131 l 763 588 z "},"√":{"ha":1250,"x_min":0,"x_max":0,"o":"m 242 126 l 372 589 l 606 589 l 672 390 l 797 1051 l 1007 1051 l 836 78 l 599 78 l 500 332 l 458 126 z "},"∽":{"ha":1250,"x_min":0,"x_max":0,"o":"m 357 400 b 497 522 413 394 468 442 b 604 742 526 603 558 683 b 829 864 664 825 724 860 b 1135 686 982 872 1074 810 b 1058 285 1215 524 1133 347 b 835 207 993 228 936 207 b 624 282 738 207 683 231 l 706 433 b 835 389 754 400 801 386 b 968 536 901 394 968 442 b 833 678 968 644 901 678 b 690 507 767 678 724 607 b 508 235 657 404 600 282 b 228 225 436 194 308 193 b 49 488 136 263 60 360 b 151 785 36 606 69 708 b 375 864 217 842 304 871 b 588 785 481 858 513 840 l 504 636 b 374 686 458 674 431 686 b 247 536 306 686 239 619 b 357 400 253 444 294 406 z "},"∝":{"ha":1250,"x_min":0,"x_max":0,"o":"m 1049 621 b 918 671 1018 657 965 675 b 775 507 850 663 801 601 b 592 235 747 403 681 283 b 313 225 521 194 393 193 b 132 489 221 263 144 360 b 236 785 119 606 154 708 b 461 864 300 842 389 871 b 683 738 553 858 639 811 b 686 742 683 739 685 740 b 913 864 749 825 810 860 b 1121 793 989 869 1068 839 z m 606 585 b 457 686 553 660 510 686 b 331 536 390 686 324 619 b 440 401 338 444 378 406 b 582 522 497 394 553 443 b 606 585 589 543 597 564 z m 928 406 b 1047 454 963 406 1011 413 l 1131 278 b 919 203 1079 222 997 203 b 706 283 846 203 768 231 l 789 443 b 928 406 839 418 894 403 z "},"∵":{"ha":1250,"x_min":0,"x_max":0,"o":"m 625 407 b 764 274 704 407 764 358 b 625 140 764 193 697 140 b 486 274 553 140 486 193 b 625 407 486 358 546 407 z m 929 949 b 1068 815 1008 949 1068 900 b 929 682 1068 735 1001 682 b 789 815 856 682 789 735 b 929 949 789 900 849 949 z m 321 949 b 461 815 401 949 461 900 b 321 682 461 735 394 682 b 182 815 249 682 182 735 b 321 949 182 900 242 949 z "},"∫":{"ha":1250,"x_min":0,"x_max":0,"o":"m 525 497 b 542 846 518 628 525 751 b 707 1107 568 997 631 1078 b 844 1100 751 1124 817 1117 b 906 982 886 1078 911 1038 b 814 886 901 942 876 893 b 721 906 781 882 736 886 l 726 893 b 738 733 729 857 732 817 b 743 479 743 647 747 578 b 693 169 739 389 725 253 b 549 3 657 76 611 25 b 415 13 500 -11 447 -4 b 351 101 385 26 354 64 b 408 215 349 140 357 188 b 519 219 446 236 504 232 l 519 208 b 525 497 535 272 532 361 z "},"∬":{"ha":1250,"x_min":0,"x_max":0,"o":"m 315 497 b 332 846 308 628 315 751 b 497 1107 358 997 421 1078 b 635 1100 542 1124 607 1117 b 696 982 676 1078 701 1038 b 604 886 692 942 667 893 b 511 906 571 882 526 886 l 517 893 b 528 733 519 857 522 817 b 533 479 533 647 538 578 b 483 169 529 389 515 253 b 339 3 447 76 401 25 b 206 13 290 -11 238 -4 b 142 101 175 26 144 64 b 199 215 139 140 147 188 b 310 219 236 236 294 232 l 310 208 b 315 497 325 272 322 361 z m 725 497 b 742 846 718 628 725 751 b 907 1107 768 997 831 1078 b 1044 1100 951 1124 1017 1117 b 1106 982 1086 1078 1111 1038 b 1014 886 1101 942 1076 893 b 921 906 981 882 936 886 l 926 893 b 938 733 929 857 932 817 b 943 479 943 647 947 578 b 893 169 939 389 925 253 b 749 3 857 76 811 25 b 615 13 700 -11 647 -4 b 551 101 585 26 554 64 b 608 215 549 140 557 188 b 719 219 646 236 704 232 l 719 208 b 725 497 735 272 732 361 z "},"∈":{"ha":1250,"x_min":0,"x_max":0,"o":"m 538 104 b 122 563 278 104 122 299 b 538 1021 122 826 278 1021 l 1126 1021 l 1126 826 l 557 826 b 363 660 451 826 375 754 l 1126 660 l 1126 465 l 363 465 b 557 299 375 371 451 299 l 1126 299 l 1126 104 z "},"∋":{"ha":1250,"x_min":0,"x_max":0,"o":"m 711 104 l 122 104 l 122 299 l 692 299 b 886 465 797 299 874 371 l 122 465 l 122 660 l 886 660 b 692 826 874 754 797 826 l 122 826 l 122 1021 l 711 1021 b 1126 563 971 1021 1126 826 b 711 104 1126 299 971 104 z "},"⊆":{"ha":1250,"x_min":0,"x_max":0,"o":"m 1126 257 l 1126 49 l 139 49 l 139 257 z m 358 733 b 601 601 358 635 442 601 l 1126 601 l 1126 386 l 579 386 b 122 733 290 386 122 497 b 579 1081 122 961 290 1081 l 1126 1081 l 1126 865 l 601 865 b 358 733 442 865 358 832 z "},"⊇":{"ha":1250,"x_min":0,"x_max":0,"o":"m 122 257 l 1110 257 l 1110 49 l 122 49 z m 890 733 b 647 865 890 832 807 865 l 122 865 l 122 1081 l 669 1081 b 1126 733 958 1081 1126 961 b 669 386 1126 497 958 386 l 122 386 l 122 601 l 647 601 b 890 733 807 601 890 635 z "},"⊂":{"ha":1250,"x_min":0,"x_max":0,"o":"m 358 563 b 611 319 371 371 506 319 l 1126 319 l 1126 111 l 565 111 b 122 563 306 111 122 299 b 565 1014 122 826 306 1014 l 1126 1014 l 1126 806 l 611 806 b 358 563 506 806 371 754 z "},"⊃":{"ha":1250,"x_min":0,"x_max":0,"o":"m 890 563 b 638 806 878 754 743 806 l 122 806 l 122 1014 l 683 1014 b 1126 563 943 1014 1126 826 b 683 111 1126 299 943 111 l 122 111 l 122 319 l 638 319 b 890 563 743 319 878 371 z "},"∪":{"ha":1250,"x_min":0,"x_max":0,"o":"m 625 229 b 861 482 817 242 861 376 l 861 1079 l 1090 1079 l 1090 436 b 625 21 1090 176 889 21 b 160 436 361 21 160 176 l 160 1079 l 389 1079 l 389 482 b 625 229 389 376 433 242 z "},"∩":{"ha":1250,"x_min":0,"x_max":0,"o":"m 625 899 b 389 646 433 886 389 751 l 389 49 l 160 49 l 160 692 b 625 1107 160 951 361 1107 b 1090 692 889 1107 1090 951 l 1090 49 l 861 49 l 861 646 b 625 899 861 751 817 886 z "},"∧":{"ha":1250,"x_min":0,"x_max":0,"o":"m 625 1139 l 1163 50 l 940 50 l 626 694 l 311 50 l 88 50 z "},"∨":{"ha":1250,"x_min":0,"x_max":0,"o":"m 625 -10 l 88 1079 l 311 1079 l 626 435 l 940 1079 l 1163 1079 z "},"￢":{"ha":1250,"x_min":0,"x_max":0,"o":"m 1144 -76 l 890 -76 l 890 51 l 104 51 l 104 260 l 1144 260 z "},"⇒":{"ha":1250,"x_min":0,"x_max":0,"o":"m 910 524 l 851 607 l 101 607 l 101 781 l 728 781 l 643 901 l 824 1006 l 1147 524 l 824 42 l 643 146 l 728 267 l 101 267 l 101 440 l 850 440 z "},"⇔":{"ha":1250,"x_min":0,"x_max":0,"o":"m 972 524 l 914 606 l 335 606 l 278 524 l 338 439 l 913 439 z m 792 779 l 706 901 l 886 1006 l 1210 524 l 886 42 l 706 146 l 789 265 l 460 265 l 544 146 l 364 42 l 40 524 l 364 1006 l 544 901 l 458 779 z "},"∀":{"ha":1250,"x_min":0,"x_max":0,"o":"m 1121 1081 l 731 50 l 513 50 l 128 1081 l 396 1081 l 474 865 l 774 865 l 851 1081 z m 626 351 l 710 643 l 538 643 z "},"∃":{"ha":1250,"x_min":0,"x_max":0,"o":"m 235 861 l 235 1081 l 1021 1081 l 1021 50 l 481 50 b 228 69 401 50 289 54 l 228 285 b 449 269 293 276 347 269 l 778 269 l 778 460 l 261 460 l 261 675 l 778 674 l 778 861 z "},"´":{"ha":1250,"x_min":0,"x_max":0,"o":"m 539 1146 l 779 1146 l 674 758 l 471 758 z "},"ˇ":{"ha":1250,"x_min":0,"x_max":0,"o":"m 626 1019 l 753 1146 l 975 1146 l 626 813 l 275 1146 l 497 1146 z "},"˘":{"ha":1250,"x_min":0,"x_max":0,"o":"m 625 799 b 275 1146 379 799 275 932 l 490 1146 b 625 993 497 1042 539 993 b 760 1146 711 993 753 1042 l 975 1146 b 625 799 975 932 871 799 z "},"˝":{"ha":1250,"x_min":0,"x_max":0,"o":"m 433 1146 l 646 1146 l 507 813 l 339 813 z m 704 1146 l 910 1146 l 750 813 l 568 813 z "},"˚":{"ha":1250,"x_min":0,"x_max":0,"o":"m 625 815 b 442 990 519 815 442 878 b 625 1165 442 1096 529 1165 b 808 990 721 1165 808 1096 b 625 815 808 878 731 815 z m 625 949 b 668 990 650 949 668 969 b 625 1032 668 1011 653 1032 b 582 990 597 1032 582 1011 b 625 949 582 969 600 949 z "},"˙":{"ha":1250,"x_min":0,"x_max":0,"o":"m 625 819 b 446 990 522 819 446 881 b 625 1161 446 1093 532 1161 b 804 990 718 1161 804 1093 b 625 819 804 881 728 819 z "},"¸":{"ha":1250,"x_min":0,"x_max":0,"o":"m 450 465 l 799 153 l 450 -154 l 450 56 l 575 153 l 450 251 z "},"˛":{"ha":1250,"x_min":0,"x_max":0,"o":"m 800 -154 l 450 154 l 800 467 l 800 253 l 675 154 l 800 57 z "},"¡":{"ha":1250,"x_min":0,"x_max":0,"o":"m 746 25 l 503 25 l 503 710 l 746 710 z m 746 833 l 503 833 l 503 1106 l 746 1106 z "},"¿":{"ha":1250,"x_min":0,"x_max":0,"o":"m 771 886 l 528 886 l 528 1131 l 771 1131 z m 547 368 b 650 279 547 317 586 274 b 761 386 714 285 744 321 l 976 321 b 672 40 933 149 824 50 b 314 257 469 26 350 125 b 428 621 272 408 319 517 b 529 806 488 678 522 722 l 776 806 l 776 772 b 694 583 776 701 747 635 b 547 368 578 471 547 432 z "},"ː":{"ha":1250,"x_min":0,"x_max":0,"o":"m 825 1013 l 622 632 l 422 1013 z m 422 113 l 622 486 l 826 113 z "},"∮":{"ha":1250,"x_min":0,"x_max":0,"o":"m 525 497 b 524 676 521 560 521 621 b 456 557 479 656 456 617 b 528 436 456 497 482 458 b 525 497 526 456 525 475 z m 543 854 b 707 1107 571 1000 632 1078 b 844 1100 751 1124 817 1117 b 906 982 886 1078 911 1038 b 814 886 901 942 876 893 b 721 906 781 882 736 886 l 726 893 b 729 854 726 881 728 868 b 993 557 900 824 993 707 b 717 258 993 419 890 289 b 693 169 710 225 703 194 b 549 3 657 76 611 25 b 415 13 500 -11 447 -4 b 351 101 385 26 354 64 b 408 215 349 140 357 188 b 519 219 446 236 504 232 l 519 208 b 528 264 524 225 526 243 b 279 557 372 303 279 426 b 543 854 279 707 372 824 z m 740 681 b 743 479 744 617 746 557 b 740 435 742 465 742 450 b 817 557 789 456 817 496 b 740 681 817 621 790 660 z "},"∑":{"ha":1250,"x_min":0,"x_max":0,"o":"m 569 565 l 208 1024 l 208 1081 l 1042 1081 l 1042 879 l 588 879 l 831 565 l 588 251 l 1042 251 l 1042 50 l 208 50 l 208 107 z "},"∏":{"ha":1250,"x_min":0,"x_max":0,"o":"m 539 50 l 157 50 l 157 244 l 238 244 l 238 886 l 157 886 l 157 1081 l 1092 1081 l 1092 886 l 1011 886 l 1011 244 l 1092 244 l 1092 50 l 710 50 l 710 244 l 789 244 l 789 886 l 460 886 l 460 244 l 539 244 z "},"¤":{"ha":1250,"x_min":0,"x_max":0,"o":"m 631 85 b 408 128 547 85 472 99 l 307 4 l 114 151 l 222 282 b 143 571 171 358 143 457 b 218 846 143 675 169 769 l 113 965 l 293 1128 l 399 1007 b 631 1057 465 1039 543 1057 b 878 1000 724 1057 807 1036 l 990 1128 l 1168 965 l 1051 832 b 1118 571 1093 757 1117 669 b 1049 297 1117 464 1093 372 l 1169 151 l 976 4 l 869 135 b 631 85 801 101 721 85 z m 631 308 b 881 571 769 308 881 394 b 631 833 881 738 767 833 b 381 571 494 833 381 738 b 631 308 381 394 492 308 z "},"℉":{"ha":1250,"x_min":0,"x_max":0,"o":"m 250 815 b 67 990 144 815 67 878 b 250 1165 67 1096 154 1165 b 433 990 346 1165 433 1096 b 250 815 433 878 356 815 z m 250 949 b 293 990 275 949 293 969 b 250 1032 293 1011 278 1032 b 207 990 222 1032 207 1011 b 250 949 207 969 225 949 z m 500 50 l 500 1081 l 1196 1081 l 1196 858 l 749 858 l 749 657 l 949 657 b 1169 668 1050 657 1103 660 l 1169 453 b 918 436 1107 438 996 436 l 749 436 l 749 50 z "},"‰":{"ha":1250,"x_min":0,"x_max":0,"o":"m 765 1132 l 914 1004 l 167 28 l 18 168 z m 222 697 b 24 933 104 697 24 771 b 222 1169 24 1097 106 1169 b 421 933 339 1169 421 1097 b 222 697 421 771 340 697 z m 222 860 b 269 933 253 860 269 886 b 222 1007 269 988 247 1007 b 175 933 197 1007 175 988 b 222 860 175 886 192 860 z m 615 -35 b 417 201 497 -35 417 39 b 615 438 417 365 499 438 b 814 201 732 438 814 365 b 615 -35 814 39 733 -35 z m 615 128 b 663 201 646 128 663 154 b 615 275 663 256 640 275 b 568 201 590 275 568 256 b 615 128 568 154 585 128 z m 1035 -35 b 836 201 917 -35 836 39 b 1035 438 836 365 918 438 b 1233 201 1151 438 1233 365 b 1035 -35 1233 39 1153 -35 z m 1035 128 b 1082 201 1065 128 1082 154 b 1035 275 1082 256 1060 275 b 988 201 1010 275 988 256 b 1035 128 988 154 1004 128 z "},"◁":{"ha":1250,"x_min":0,"x_max":0,"o":"m 1118 1124 l 1118 1 l 131 561 z m 918 774 l 554 561 l 918 351 z "},"◀":{"ha":1250,"x_min":0,"x_max":0,"o":"m 1118 1124 l 1118 1 l 131 561 z "},"▷":{"ha":1250,"x_min":0,"x_max":0,"o":"m 131 1124 l 1118 561 l 131 1 z m 331 774 l 331 351 l 694 561 z "},"▶":{"ha":1250,"x_min":0,"x_max":0,"o":"m 131 1124 l 1118 561 l 131 1 z "},"♤":{"ha":1275,"x_min":0,"x_max":0,"o":"m 1004 244 b 833 243 961 225 871 226 b 886 207 849 221 869 213 b 1035 185 926 194 985 186 l 1035 29 l 215 29 l 215 185 b 364 207 265 186 324 194 b 417 243 381 213 401 221 b 246 244 379 226 289 225 b 88 458 149 282 94 364 b 299 818 81 581 136 689 b 571 1140 421 914 532 1028 l 679 1140 b 951 818 718 1028 829 914 b 1163 458 1114 689 1169 581 b 1004 244 1156 364 1101 282 z m 625 915 b 426 710 576 825 483 758 b 285 513 328 628 288 578 b 385 386 282 449 326 396 b 585 439 447 372 543 394 l 594 429 b 578 160 603 361 599 211 l 672 160 b 656 429 651 211 647 361 l 665 439 b 865 386 707 394 803 372 b 965 513 924 396 968 449 b 824 710 963 578 922 628 b 625 915 767 758 674 825 z "},"♠":{"ha":1275,"x_min":0,"x_max":0,"o":"m 1004 244 b 804 243 961 225 842 226 b 872 207 818 221 854 213 b 1035 185 911 194 985 186 l 1035 29 l 215 29 l 215 185 b 378 207 265 186 339 194 b 446 243 396 213 432 221 b 246 244 408 226 289 225 b 88 458 149 282 94 364 b 299 818 81 581 136 689 b 571 1140 421 914 532 1028 l 679 1140 b 951 818 718 1028 829 914 b 1163 458 1114 689 1169 581 b 1004 244 1156 364 1101 282 z "},"♡":{"ha":1238,"x_min":0,"x_max":0,"o":"m 631 35 l 619 35 b 253 325 469 125 353 213 b 58 746 138 454 58 590 b 336 1093 58 942 169 1076 b 625 956 463 1106 571 1049 b 914 1093 679 1049 788 1106 b 1192 746 1081 1076 1192 942 b 997 325 1192 590 1113 454 b 631 35 897 213 781 125 z m 625 267 b 838 436 699 318 769 368 b 986 692 938 540 975 619 b 861 897 1006 821 949 886 b 632 708 778 908 689 842 l 618 708 b 389 897 561 842 472 908 b 264 692 301 886 244 821 b 413 436 275 619 313 540 b 625 267 481 368 551 318 z "},"♥":{"ha":1238,"x_min":0,"x_max":0,"o":"m 58 746 b 333 1093 58 942 167 1075 b 625 881 464 1107 579 1013 b 917 1093 671 1013 786 1107 b 1192 746 1083 1075 1192 942 b 997 325 1192 590 1113 454 b 631 35 897 213 781 125 l 619 35 b 253 325 469 125 353 213 b 58 746 138 454 58 590 z "},"♧":{"ha":1275,"x_min":0,"x_max":0,"o":"m 625 1150 b 917 996 767 1150 865 1096 b 926 785 949 932 947 836 l 931 776 b 1064 729 981 775 1017 763 b 1146 404 1163 663 1193 528 b 831 244 1101 288 997 219 b 872 207 839 224 856 213 b 1035 185 913 194 964 186 l 1035 29 l 215 29 l 215 185 b 378 207 286 186 338 194 b 419 244 394 213 411 224 b 104 404 253 219 149 288 b 186 733 57 528 88 665 b 319 776 233 765 275 775 l 324 785 b 333 996 303 836 300 933 b 625 1150 390 1100 483 1150 z m 625 972 b 476 871 551 972 493 928 b 515 671 458 807 472 728 l 499 651 b 346 654 461 676 388 676 b 268 482 286 625 251 567 b 444 369 285 403 358 364 b 578 432 506 374 543 394 l 594 425 b 578 160 601 343 599 211 l 672 160 b 656 425 651 211 649 343 l 672 432 b 806 369 707 394 744 374 b 982 482 892 364 965 403 b 904 654 999 567 964 625 b 751 651 863 676 789 676 l 735 671 b 774 871 778 728 792 807 b 625 972 757 928 699 972 z "},"♣":{"ha":1275,"x_min":0,"x_max":0,"o":"m 625 1150 b 917 996 767 1150 865 1096 b 926 785 949 932 947 836 l 931 776 b 1064 729 981 775 1017 763 b 1146 404 1163 663 1193 528 b 803 251 1101 288 968 226 b 847 207 810 231 819 217 b 1035 185 886 193 964 186 l 1035 29 l 215 29 l 215 185 b 403 207 286 186 364 193 b 447 251 426 215 440 231 b 104 404 282 226 149 288 b 186 733 57 528 88 665 b 319 776 233 765 275 775 l 324 785 b 333 996 303 836 300 933 b 625 1150 390 1100 483 1150 z "},"⊙":{"ha":1250,"x_min":0,"x_max":0,"o":"m 625 1106 b 1171 563 963 1106 1171 890 b 625 19 1171 235 963 19 b 79 563 288 19 79 235 b 625 1106 79 890 288 1106 z m 625 951 b 226 563 375 951 226 804 b 625 174 226 321 375 174 b 1024 563 875 174 1024 321 b 625 951 1024 804 875 951 z m 625 840 b 901 563 790 840 901 732 b 625 285 901 393 790 285 b 349 563 460 285 349 393 b 625 840 349 732 460 840 z "},"◈":{"ha":1313,"x_min":0,"x_max":0,"o":"m 11 565 l 625 1178 l 1239 565 l 625 -49 z m 336 565 l 625 854 l 914 565 l 625 276 z m 204 565 l 625 144 l 1046 565 l 625 986 z "},"▣":{"ha":1250,"x_min":0,"x_max":0,"o":"m 260 931 l 260 200 l 990 200 l 990 931 z m 110 1081 l 1140 1081 l 1140 50 l 110 50 z m 357 833 l 893 833 l 893 297 l 357 297 z "},"◐":{"ha":1250,"x_min":0,"x_max":0,"o":"m 1169 564 b 625 19 1169 264 925 19 b 81 564 325 19 81 264 b 625 1108 81 864 325 1108 b 1169 564 925 1108 1169 864 z m 628 917 l 628 211 b 971 564 828 219 971 354 b 628 917 971 774 828 908 z "},"◑":{"ha":1250,"x_min":0,"x_max":0,"o":"m 81 564 b 625 1108 81 864 325 1108 b 1169 564 925 1108 1169 864 b 625 19 1169 264 925 19 b 81 564 325 19 81 264 z m 622 917 b 279 564 422 908 279 774 b 622 211 279 354 422 219 z "},"▒":{"ha":1313,"x_min":0,"x_max":0,"o":"m 331 972 b 213 856 331 914 271 856 b 97 972 154 856 97 914 b 213 1088 97 1029 154 1088 b 331 972 271 1088 331 1029 z m 607 972 b 489 856 607 914 549 856 b 374 972 431 856 374 914 b 489 1088 374 1029 431 1088 b 607 972 549 1088 607 1029 z m 878 972 b 763 856 878 914 818 856 b 644 972 704 856 644 914 b 763 1088 644 1031 704 1088 b 878 972 818 1088 878 1031 z m 1154 972 b 1039 856 1154 914 1096 856 b 921 972 979 856 921 914 b 1039 1088 921 1029 979 1088 b 1154 972 1096 1088 1154 1029 z m 331 704 b 213 586 331 643 271 586 b 97 704 154 586 97 643 b 213 819 97 761 154 819 b 331 704 271 819 331 761 z m 607 704 b 489 586 607 643 549 586 b 374 704 431 586 374 643 b 489 819 374 761 431 819 b 607 704 549 819 607 761 z m 878 704 b 763 586 878 643 818 586 b 644 704 704 586 644 643 b 763 819 644 763 704 819 b 878 704 818 819 878 763 z m 1154 704 b 1039 586 1154 643 1096 586 b 921 704 979 586 921 643 b 1039 819 921 761 979 819 b 1154 704 1096 819 1154 761 z m 331 431 b 213 315 331 375 272 315 b 97 431 154 315 97 375 b 213 549 97 489 154 549 b 331 431 272 549 331 489 z m 607 431 b 489 315 607 375 550 315 b 374 431 431 315 374 375 b 489 549 374 489 431 549 b 607 431 550 549 607 489 z m 878 431 b 763 315 878 374 818 315 b 644 431 703 315 644 374 b 763 549 644 489 703 549 b 878 431 818 549 878 489 z m 1154 431 b 1039 315 1154 375 1097 315 b 921 431 979 315 921 375 b 1039 549 921 489 979 549 b 1154 431 1097 549 1154 489 z m 331 163 b 213 47 331 104 271 47 b 97 163 154 47 97 104 b 213 281 97 218 154 281 b 331 163 271 281 331 218 z m 607 163 b 489 47 607 104 549 47 b 374 163 431 47 374 104 b 489 281 374 218 431 281 b 607 163 549 281 607 218 z m 878 163 b 763 47 878 104 818 47 b 644 163 704 47 644 104 b 763 281 644 221 704 281 b 878 163 818 281 878 221 z m 1154 163 b 1039 47 1154 104 1096 47 b 921 163 979 47 921 104 b 1039 281 921 218 979 281 b 1154 163 1096 281 1154 218 z "},"▤":{"ha":1313,"x_min":0,"x_max":0,"o":"m 979 924 l 271 924 l 271 858 l 979 858 z m 979 210 l 979 275 l 271 275 l 271 210 z m 979 429 l 979 493 l 271 493 l 271 429 z m 979 640 l 979 704 l 271 704 l 271 640 z m 110 51 l 110 1082 l 1140 1082 l 1140 51 z "},"▥":{"ha":1313,"x_min":0,"x_max":0,"o":"m 981 208 l 981 925 l 919 925 l 919 208 z m 269 208 l 331 208 l 331 925 l 269 925 z m 488 208 l 551 208 l 551 925 l 488 925 z m 701 208 l 763 208 l 763 925 l 701 925 z m 110 1082 l 1140 1082 l 1140 51 l 110 51 z "},"▨":{"ha":1313,"x_min":0,"x_max":0,"o":"m 982 803 l 388 210 l 543 210 l 982 647 z m 982 424 l 768 210 l 982 210 z m 268 924 l 268 713 l 479 924 z m 708 924 l 268 485 l 268 331 l 861 924 z m 110 51 l 110 1082 l 1140 1082 l 1140 51 z "},"▧":{"ha":1313,"x_min":0,"x_max":0,"o":"m 268 803 l 268 647 l 707 210 l 863 210 z m 268 424 l 268 210 l 482 210 z m 982 924 l 771 924 l 982 713 z m 542 924 l 389 924 l 982 331 l 982 485 z m 1140 51 l 110 51 l 110 1082 l 1140 1082 z "},"▦":{"ha":1313,"x_min":0,"x_max":0,"o":"m 981 922 l 919 922 l 919 860 l 981 860 z m 763 922 l 703 922 l 703 860 l 763 860 z m 551 922 l 488 922 l 488 860 l 551 860 z m 331 922 l 269 922 l 269 860 l 331 860 z m 981 211 l 981 274 l 919 274 l 919 211 z m 763 274 l 703 274 l 703 211 l 763 211 z m 551 274 l 488 274 l 488 211 l 551 211 z m 331 274 l 269 274 l 269 211 l 331 211 z m 981 431 l 981 492 l 919 492 l 919 431 z m 763 492 l 703 492 l 703 431 l 763 431 z m 551 492 l 488 492 l 488 431 l 551 431 z m 331 492 l 269 492 l 269 431 l 331 431 z m 981 642 l 981 703 l 919 703 l 919 642 z m 763 703 l 703 703 l 703 642 l 763 642 z m 551 703 l 488 703 l 488 642 l 551 642 z m 331 703 l 269 703 l 269 642 l 331 642 z m 110 51 l 110 1082 l 1140 1082 l 1140 51 z "},"▩":{"ha":1313,"x_min":0,"x_max":0,"o":"m 976 215 l 976 256 l 935 215 z m 976 338 l 976 424 l 931 379 z m 814 261 l 768 215 l 856 215 z m 976 713 l 976 796 l 932 756 z m 814 638 l 743 567 l 815 493 l 889 567 z m 625 450 l 551 376 l 625 301 l 697 376 z m 433 258 l 394 215 l 475 215 z m 856 918 l 771 918 l 814 872 z m 625 829 l 553 757 l 625 683 l 697 754 z m 435 639 l 360 567 l 435 493 l 507 567 z m 274 417 l 274 336 l 317 375 z m 482 918 l 397 918 l 436 872 z m 274 796 l 274 713 l 318 756 z m 110 1082 l 1140 1082 l 1140 51 l 110 51 z "},"♨":{"ha":1250,"x_min":0,"x_max":0,"o":"m 569 171 b 526 200 551 171 539 181 b 510 253 514 215 510 233 b 515 313 510 275 511 294 b 529 364 519 331 524 346 b 549 432 535 383 543 407 b 558 508 554 454 558 481 b 550 585 558 542 554 567 b 529 639 544 603 539 621 b 508 699 521 657 514 676 b 497 781 501 719 497 747 b 513 875 497 814 503 844 b 544 956 522 903 531 931 b 560 992 549 968 553 979 b 569 1028 563 1004 567 1015 b 579 1065 572 1039 576 1051 b 582 1103 581 1076 582 1089 b 588 1132 582 1108 583 1119 b 613 1163 590 1144 599 1156 b 653 1147 624 1163 638 1157 b 679 1111 665 1136 675 1124 b 681 1103 679 1107 679 1106 b 692 1057 683 1094 692 1076 b 694 1028 692 1050 693 1042 l 694 985 b 690 936 694 967 693 949 b 681 899 688 922 683 911 b 668 854 674 883 671 868 b 663 797 664 839 663 819 b 671 747 663 782 664 765 b 692 685 675 726 682 706 b 704 639 694 669 699 654 l 718 594 b 729 553 721 579 726 567 b 733 510 732 539 733 524 b 711 411 733 478 726 447 b 663 310 694 375 679 340 b 639 253 651 286 643 265 b 626 215 633 240 631 228 b 606 183 624 203 617 190 b 569 171 594 174 582 171 z m 618 -18 b 389 0 539 -19 458 -12 b 69 163 228 28 119 92 b 72 429 21 231 19 360 b 281 551 118 489 179 529 b 340 563 301 557 336 561 l 339 565 b 301 668 319 614 313 629 b 292 742 294 686 292 710 b 306 825 292 769 296 797 b 358 967 322 876 343 922 b 372 1060 367 1008 367 1039 b 394 1086 376 1069 382 1079 b 439 1074 410 1089 424 1086 b 475 1001 464 1036 469 1018 b 479 924 475 982 478 956 b 465 844 478 894 474 867 b 449 756 457 817 447 792 b 488 617 451 729 465 675 b 511 538 500 582 504 563 b 510 454 515 510 515 483 b 474 363 499 421 486 392 b 432 276 457 332 450 313 b 394 211 421 253 415 231 b 321 215 374 190 338 196 b 310 319 306 251 306 285 b 342 431 326 383 338 417 b 349 439 344 433 349 438 b 274 415 317 435 299 431 b 214 324 240 396 214 356 b 342 183 214 250 272 203 b 706 157 457 151 604 146 b 993 244 843 174 926 196 b 1014 372 1035 275 1038 344 b 918 429 983 408 950 422 b 861 304 915 415 883 353 b 826 221 839 257 839 240 b 781 206 817 207 801 203 b 729 281 749 221 732 251 b 765 444 728 333 744 388 b 774 511 769 464 774 486 b 763 610 772 556 769 586 b 726 713 754 636 739 674 b 729 840 718 754 717 785 b 758 917 738 865 746 892 b 782 981 767 938 775 958 b 792 1047 788 1000 792 1024 b 819 1101 793 1063 800 1085 b 863 1089 835 1104 847 1101 b 894 1039 883 1065 890 1051 b 903 939 899 1008 901 971 b 878 818 900 897 883 844 b 896 711 874 789 882 743 b 936 557 924 642 933 596 l 954 556 b 1100 490 1018 540 1058 524 b 1192 297 1161 444 1189 394 b 1036 60 1194 215 1133 113 b 618 -18 926 1 781 -15 z "},"☏":{"ha":1250,"x_min":0,"x_max":0,"o":"m 760 674 l 625 683 l 490 674 b 467 625 483 653 475 636 b 436 594 457 613 446 601 b 415 568 431 589 425 581 b 393 521 406 556 399 539 l 307 201 l 310 175 l 942 175 l 946 203 l 858 525 b 835 568 851 540 844 556 b 813 594 825 581 818 589 b 783 625 801 601 792 613 b 760 674 774 636 764 653 z m 375 703 b 401 721 383 707 397 714 b 408 757 406 726 408 738 l 408 789 b 390 769 407 783 396 778 b 375 703 383 758 379 733 z m 875 700 b 860 769 869 733 865 758 b 843 783 856 775 844 781 l 843 757 b 849 721 843 738 843 726 b 875 700 851 714 865 707 z m 772 957 b 476 957 657 974 592 974 l 383 942 b 296 915 351 933 322 924 b 192 836 246 900 210 864 b 158 733 171 813 161 778 b 160 714 157 722 157 714 b 175 711 163 711 167 711 l 242 711 b 257 714 249 711 254 711 b 263 729 260 715 261 722 b 300 815 271 765 283 793 b 347 864 314 836 331 853 b 464 904 372 876 410 892 b 625 921 515 914 571 921 b 788 904 679 921 735 914 b 903 864 840 892 876 876 b 950 815 918 853 933 836 b 989 729 967 793 979 765 b 993 714 989 722 990 715 b 1007 711 996 711 999 711 l 1074 711 b 1090 714 1082 711 1088 711 b 1093 733 1092 714 1093 722 b 1060 836 1090 778 1079 813 b 954 915 1039 864 1004 900 b 867 942 926 924 897 933 b 772 957 833 946 803 953 z m 625 206 b 429 429 497 206 429 292 b 625 660 429 576 525 660 b 821 429 732 660 821 576 b 625 206 821 292 749 206 z m 625 319 b 718 436 674 319 718 364 b 625 551 718 514 675 551 b 532 436 575 551 532 514 b 625 319 532 364 576 319 z m 626 832 b 558 790 593 832 572 818 l 558 781 b 692 781 565 781 625 781 b 690 790 692 781 692 783 b 626 832 679 817 656 832 z m 138 586 b 67 619 117 586 83 597 b 40 725 49 640 40 675 b 233 1003 47 851 117 957 b 625 1067 392 1065 524 1067 b 1017 1003 718 1067 858 1065 b 1210 725 1133 957 1203 851 b 1183 619 1210 675 1201 640 b 1113 586 1167 597 1133 586 l 985 586 b 964 589 975 586 969 586 b 954 590 960 589 957 589 l 956 585 l 1089 219 l 1076 104 b 1058 63 1075 85 1068 69 b 1021 49 1046 51 1032 49 l 226 49 b 190 64 215 49 200 56 b 174 104 179 74 174 86 l 163 219 l 297 583 l 299 585 l 299 586 b 300 592 299 586 299 589 b 296 594 300 592 300 593 b 288 589 300 592 293 589 b 264 586 281 586 271 586 z "},"☎":{"ha":1250,"x_min":0,"x_max":0,"o":"m 888 686 b 865 761 883 724 876 746 b 843 785 857 772 851 776 l 843 735 b 849 711 843 721 844 715 b 888 686 856 707 868 700 z m 626 832 b 558 790 593 832 572 818 l 558 781 b 692 781 565 781 625 781 b 690 790 692 781 692 783 b 626 832 679 817 656 832 z m 625 206 b 821 436 732 206 821 299 b 625 660 821 583 719 660 b 429 436 531 660 429 583 b 625 206 429 299 518 206 z m 364 686 b 403 711 383 700 396 707 b 408 735 407 715 408 721 l 408 785 b 386 761 400 776 394 772 b 364 686 375 746 368 724 z m 138 586 b 67 619 117 586 83 597 b 40 725 49 640 40 675 b 233 1003 47 851 117 957 b 625 1067 392 1065 524 1067 b 1017 1003 718 1067 858 1065 b 1210 725 1133 957 1203 851 b 1183 619 1210 675 1201 640 b 1113 586 1167 597 1133 586 l 985 586 b 954 590 969 586 960 589 l 956 585 l 1074 219 l 1058 104 b 1006 49 1053 67 1031 51 l 242 49 b 190 104 217 56 194 64 l 178 219 l 297 583 l 299 585 l 299 586 b 300 592 299 586 299 589 b 296 594 300 592 300 593 b 288 589 300 592 293 589 b 264 586 281 586 271 586 z "},"☜":{"ha":1250,"x_min":0,"x_max":0,"o":"m 246 821 l 549 821 b 581 839 557 826 568 835 b 621 843 592 842 604 843 b 689 836 644 843 667 840 b 749 811 710 828 729 821 l 799 785 b 843 756 814 774 829 763 b 847 750 844 751 846 750 b 851 746 847 747 849 746 b 856 744 851 744 853 744 b 861 743 857 743 858 743 l 861 789 l 1131 789 l 1131 263 l 861 263 l 861 333 l 854 333 b 832 324 849 333 840 326 b 799 307 821 319 810 315 b 768 293 788 303 778 299 b 736 281 757 288 747 285 b 704 272 725 276 715 274 b 668 269 692 269 679 269 l 564 269 b 532 243 556 257 546 250 b 475 235 518 238 499 235 b 439 239 463 235 450 235 b 404 244 426 239 415 240 b 313 299 361 258 331 276 b 285 367 293 318 285 340 b 292 396 285 378 286 385 b 308 429 294 407 300 415 b 303 468 306 442 303 456 b 306 489 301 476 303 482 b 317 515 308 497 311 506 b 335 544 321 524 326 532 b 332 563 332 556 332 557 b 331 571 331 565 331 567 l 331 576 b 332 597 331 578 331 581 l 246 597 b 200 601 233 597 218 597 b 144 618 181 603 163 607 b 97 653 125 624 110 636 b 78 708 83 668 78 685 b 97 764 78 729 83 747 b 144 801 110 779 125 792 b 200 818 163 807 181 813 b 246 821 218 819 233 821 z m 246 675 l 428 675 l 469 743 l 246 743 b 231 742 242 743 236 742 b 208 735 222 739 215 736 b 190 728 201 732 196 731 b 182 710 185 725 182 718 b 190 688 182 694 185 690 b 208 681 196 685 201 681 b 231 678 215 678 222 678 b 246 675 236 675 242 675 z m 707 664 l 651 592 b 658 575 654 579 656 576 b 663 568 660 572 661 571 b 668 561 664 565 665 561 b 672 556 668 558 669 557 b 681 551 674 553 676 551 b 690 549 683 550 686 549 b 706 546 694 546 700 546 l 726 546 b 785 556 740 546 760 549 b 861 579 807 560 833 568 l 861 643 b 825 658 850 647 838 651 b 786 685 811 667 797 674 b 704 736 761 701 733 719 b 629 763 674 754 649 763 b 608 757 621 763 614 760 b 590 742 601 751 596 747 l 501 629 b 500 604 499 621 499 607 b 508 596 500 599 503 596 l 517 596 b 538 603 522 596 529 599 b 560 621 544 606 551 610 l 638 715 z m 850 413 l 861 413 l 861 513 b 763 479 825 494 793 486 b 682 474 731 474 704 472 b 660 433 676 457 668 443 b 631 408 649 422 639 413 b 624 385 628 400 626 392 b 613 349 619 376 615 369 l 668 349 b 689 351 674 349 681 349 b 711 357 696 351 703 354 b 735 368 719 361 726 364 b 757 379 742 371 749 375 b 768 386 758 379 763 382 b 788 394 774 388 779 392 b 817 407 796 397 806 401 b 850 413 826 410 838 411 z m 968 350 l 968 704 l 942 704 l 942 350 z m 567 478 b 583 483 572 478 578 479 b 592 508 589 486 592 492 b 583 529 592 515 589 519 b 567 547 578 539 572 543 b 539 538 557 540 547 538 b 514 536 529 536 521 536 b 488 538 503 536 494 536 b 467 547 479 538 472 540 b 450 557 460 547 454 550 b 442 576 444 563 442 567 b 435 563 438 572 435 568 b 436 536 432 550 433 539 b 450 524 438 531 442 528 b 479 507 457 519 467 514 b 531 488 496 497 514 490 b 567 478 546 479 558 478 z m 432 418 b 479 401 449 408 465 403 b 511 397 492 397 503 397 b 528 401 518 397 524 397 b 532 429 531 403 532 411 b 492 440 524 429 510 433 b 453 458 472 446 458 453 b 428 474 443 467 435 471 b 408 479 419 476 414 479 b 403 474 406 479 403 476 b 401 461 401 471 401 468 b 410 432 401 446 404 439 b 432 418 414 426 421 422 z m 464 304 b 486 307 469 304 478 304 b 497 338 493 307 497 311 l 493 338 b 490 339 492 338 490 338 b 488 339 489 339 488 339 b 458 346 475 340 465 342 b 424 356 450 349 438 351 b 400 367 414 360 406 363 b 382 381 392 369 386 372 b 379 375 381 381 379 378 b 376 353 376 371 376 364 b 407 318 376 336 386 325 b 464 304 426 307 444 304 z "},"☞":{"ha":1250,"x_min":0,"x_max":0,"o":"m 1004 821 b 1050 818 1017 821 1032 819 b 1106 801 1069 813 1088 807 b 1153 764 1125 792 1140 779 b 1172 708 1167 747 1172 729 b 1153 653 1172 685 1167 668 b 1106 618 1140 636 1125 624 b 1050 601 1088 607 1069 603 b 1004 597 1032 597 1017 597 l 918 597 b 919 576 919 581 919 578 l 919 571 b 918 563 919 567 919 565 b 915 544 918 557 918 556 b 933 515 924 532 929 524 b 944 489 939 506 942 497 b 947 468 947 482 949 476 b 942 429 947 456 944 442 b 958 396 950 415 956 407 b 965 367 964 385 965 378 b 938 299 965 340 957 318 b 846 244 919 276 889 258 b 811 239 835 240 824 239 b 775 235 800 235 788 235 b 718 243 751 235 732 238 b 686 269 704 250 694 257 l 582 269 b 546 272 571 269 558 269 b 514 281 535 274 525 276 b 482 293 503 285 493 288 b 451 307 472 299 463 303 b 418 324 440 315 429 319 b 396 333 410 326 401 333 l 389 333 l 389 263 l 119 263 l 119 789 l 389 789 l 389 743 b 394 744 392 743 393 743 b 399 746 397 744 399 744 b 403 750 401 746 403 747 b 407 756 404 750 406 751 b 451 785 421 763 436 774 l 501 811 b 561 836 521 821 540 828 b 629 843 583 840 606 843 b 669 839 646 843 658 842 b 701 821 682 835 693 826 z m 1004 675 b 1019 678 1008 675 1014 675 b 1042 681 1028 678 1035 678 b 1060 688 1049 681 1054 685 b 1068 710 1065 690 1068 694 b 1060 728 1068 718 1065 725 b 1042 735 1054 731 1049 732 b 1019 742 1035 736 1028 739 b 1004 743 1014 742 1008 743 l 781 743 l 822 675 z m 543 664 l 613 715 l 690 621 b 713 603 699 610 706 606 b 733 596 721 599 728 596 l 742 596 b 750 604 747 596 750 599 b 749 629 751 607 751 621 l 660 742 b 642 757 654 747 649 751 b 621 763 636 760 629 763 b 546 736 601 763 576 754 b 464 685 517 719 489 701 b 425 658 453 674 439 667 b 389 643 413 651 400 647 l 389 579 b 465 556 417 568 443 560 b 524 546 490 549 510 546 l 544 546 b 560 549 550 546 556 546 b 569 551 564 549 567 550 b 578 556 574 551 576 553 b 582 561 581 557 582 558 b 588 568 585 561 586 565 b 592 575 589 571 590 572 b 599 592 594 576 596 579 z m 400 413 b 433 407 413 411 424 410 b 463 394 444 401 454 397 b 482 386 471 392 476 388 b 493 379 488 382 492 379 b 515 368 501 375 508 371 b 539 357 524 364 531 361 b 561 351 547 354 554 351 b 582 349 569 349 576 349 l 638 349 b 626 385 635 369 631 376 b 619 408 624 392 622 400 b 590 433 611 413 601 422 b 568 474 582 443 574 457 b 488 479 546 472 519 474 b 389 513 457 486 425 494 l 389 413 z m 282 350 l 308 350 l 308 704 l 282 704 z m 683 478 b 719 488 692 478 704 479 b 771 507 736 490 754 497 b 800 524 783 514 793 519 b 814 536 808 528 813 531 b 815 563 817 539 818 550 b 808 576 815 568 813 572 b 800 557 808 567 806 563 b 783 547 796 550 790 547 b 763 538 778 540 771 538 b 736 536 756 536 747 536 b 711 538 729 536 721 536 b 683 547 703 538 693 540 b 667 529 678 543 672 539 b 658 508 661 519 658 515 b 667 483 658 492 661 486 b 683 478 672 479 678 478 z m 818 418 b 840 432 829 422 836 426 b 849 461 846 439 849 446 b 847 474 849 468 849 471 b 842 479 847 476 844 479 b 822 474 836 479 831 476 b 797 458 815 471 807 467 b 758 440 792 453 778 446 b 718 429 740 433 726 429 b 722 401 718 411 719 403 b 739 397 726 397 732 397 b 771 401 747 397 758 397 b 818 418 785 403 801 408 z m 786 304 b 843 318 806 304 824 307 b 874 353 864 325 874 336 b 871 375 874 364 874 371 b 868 381 871 378 869 381 b 850 367 864 372 858 369 b 826 356 844 363 836 360 b 792 346 813 351 800 349 b 763 339 785 342 775 340 b 760 339 763 339 761 339 b 757 338 760 338 758 338 l 753 338 b 764 307 753 311 757 307 b 786 304 772 304 781 304 z "},"¶":{"ha":1250,"x_min":0,"x_max":0,"o":"m 794 1081 l 1017 1081 l 1017 50 l 794 50 z m 453 1081 l 724 1081 l 724 50 l 501 50 l 501 636 l 453 636 b 233 858 311 636 233 740 b 453 1081 233 976 311 1081 z "},"†":{"ha":1250,"x_min":0,"x_max":0,"o":"m 510 814 l 510 1081 l 739 1081 l 739 814 l 1003 814 l 1003 606 l 739 606 l 739 50 l 510 50 l 510 606 l 246 606 l 246 814 z "},"‡":{"ha":1250,"x_min":0,"x_max":0,"o":"m 513 883 l 513 1081 l 736 1081 l 736 883 l 1003 883 l 1003 682 l 736 682 l 736 578 l 961 578 l 961 376 l 736 376 l 736 50 l 513 50 l 513 376 l 288 376 l 288 578 l 513 578 l 513 682 l 246 682 l 246 883 z "},"↕":{"ha":1250,"x_min":0,"x_max":0,"o":"m 507 796 l 347 654 l 199 821 l 625 1172 l 1051 821 l 903 654 l 743 796 l 743 328 l 903 469 l 1051 303 l 625 -49 l 199 303 l 347 469 l 507 328 z "},"↗":{"ha":1250,"x_min":0,"x_max":0,"o":"m 1071 1115 l 1139 569 l 928 551 l 903 738 l 292 8 l 201 85 l 110 160 l 722 889 l 535 879 l 514 1101 z "},"↙":{"ha":1250,"x_min":0,"x_max":0,"o":"m 178 10 l 110 556 l 321 574 l 346 388 l 957 1117 l 1047 1040 l 1139 965 l 526 236 l 714 246 l 735 24 z "},"↖":{"ha":1250,"x_min":0,"x_max":0,"o":"m 178 1115 l 735 1101 l 714 879 l 526 889 l 1139 160 l 1047 85 l 957 8 l 346 738 l 321 551 l 110 569 z "},"↘":{"ha":1250,"x_min":0,"x_max":0,"o":"m 1071 10 l 514 24 l 535 246 l 722 236 l 110 965 l 201 1040 l 292 1117 l 903 388 l 928 574 l 1139 556 z "},"♭":{"ha":1250,"x_min":0,"x_max":0,"o":"m 304 1039 l 519 1039 l 519 707 l 535 713 b 864 678 644 786 789 760 b 892 363 925 610 944 463 b 578 92 835 254 725 150 l 304 78 z m 521 256 l 546 254 b 678 365 596 279 640 313 b 675 551 725 432 718 518 b 521 519 631 586 564 572 z "},"♩":{"ha":1250,"x_min":0,"x_max":0,"o":"m 810 1054 l 810 313 b 714 108 810 217 782 151 b 488 106 631 56 528 63 b 513 292 440 154 458 232 b 639 349 544 328 599 351 l 639 1054 z "},"♪":{"ha":1250,"x_min":0,"x_max":0,"o":"m 651 732 l 651 313 b 556 108 651 217 624 151 b 329 106 472 56 369 63 b 354 292 282 154 300 232 b 481 349 386 328 440 351 l 481 992 l 628 1056 b 747 935 654 1010 700 967 b 964 593 875 849 960 731 b 776 224 968 447 890 325 l 685 282 b 776 564 763 378 792 460 b 651 732 764 644 718 711 z "},"♬":{"ha":1250,"x_min":0,"x_max":0,"o":"m 906 797 l 906 842 l 544 788 l 544 742 z m 1076 1085 l 1076 367 b 981 164 1076 272 1047 206 b 754 160 897 111 794 118 b 779 347 706 208 725 286 b 906 404 810 383 865 407 l 906 593 l 544 538 l 544 314 b 447 111 544 219 515 153 b 221 107 364 58 261 65 b 246 294 174 156 192 233 b 372 351 278 331 333 354 l 372 988 z "},"㉿":{"ha":1250,"x_min":0,"x_max":0,"o":"m 21 588 b 218 1025 21 754 76 901 b 617 1169 335 1129 469 1169 b 1029 1033 763 1169 911 1131 b 1218 669 1136 944 1210 804 l 1049 669 b 936 899 1040 760 996 842 l 733 586 l 936 232 b 1053 468 1006 301 1047 385 l 918 468 l 918 626 l 1228 626 l 1228 539 b 1035 101 1228 372 1163 218 b 632 -43 919 -6 779 -43 b 219 93 486 -43 338 -4 b 31 457 113 182 39 322 l 200 457 b 338 200 208 353 263 260 b 339 199 338 200 338 199 l 339 922 b 332 915 336 921 333 917 b 196 658 250 842 200 751 l 300 658 l 300 500 l 21 500 z m 840 964 b 617 1014 772 996 692 1014 b 399 964 539 1014 464 999 l 525 964 l 525 601 l 778 964 z m 424 150 b 632 113 488 125 561 113 b 821 150 700 113 764 125 l 781 150 l 615 456 l 525 342 l 525 150 z "},"㈜":{"ha":1250,"x_min":0,"x_max":0,"o":"m 21 565 b 206 1158 21 794 81 1004 l 365 1081 b 208 565 263 932 208 742 b 365 50 208 389 256 231 l 206 -28 b 21 565 81 126 21 336 z m 1229 565 b 1044 -28 1229 336 1169 126 l 885 50 b 1042 565 994 231 1042 389 b 885 1081 1042 742 988 932 l 1044 1158 b 1229 565 1169 1004 1229 794 z m 518 61 l 518 281 l 265 281 l 267 461 l 974 461 l 974 281 l 733 281 l 733 61 z m 886 1011 l 886 944 b 815 735 882 861 856 792 b 958 651 863 715 910 689 l 883 496 b 678 606 814 547 749 583 b 361 492 592 550 474 508 l 290 656 b 653 831 468 694 614 765 l 339 831 l 339 1011 z "},"№":{"ha":1250,"x_min":0,"x_max":0,"o":"m 247 551 l 247 50 l 42 50 l 42 1081 l 276 1081 l 372 503 l 372 1081 l 576 1081 l 576 514 b 833 833 593 699 668 833 b 1096 432 1026 833 1094 665 b 1082 274 1096 372 1090 319 l 1208 274 l 1208 22 l 1008 22 l 1008 107 b 833 31 964 56 904 31 b 576 354 692 31 597 142 l 576 50 l 367 50 z m 833 614 b 776 432 789 614 776 549 b 833 250 776 310 792 250 b 890 432 874 250 890 310 b 833 614 890 549 878 614 z "},"㏇":{"ha":1250,"x_min":0,"x_max":0,"o":"m 21 564 b 192 1047 19 818 85 965 b 439 1094 256 1096 363 1114 b 647 919 521 1074 600 1019 l 493 788 b 364 860 461 847 414 868 b 232 564 281 846 232 722 b 364 268 232 406 281 281 b 494 346 410 261 464 288 l 568 278 b 553 432 558 322 553 374 b 835 833 553 671 642 833 b 1118 432 1028 833 1118 671 b 1101 274 1118 372 1113 319 l 1231 274 l 1231 22 l 1031 22 l 1031 121 b 835 31 979 60 911 31 b 621 146 747 31 671 68 b 451 32 581 85 522 44 b 186 82 372 18 250 32 b 21 564 75 169 19 310 z m 835 614 b 760 432 790 614 760 549 b 835 250 760 310 793 250 b 910 432 875 250 910 310 b 835 614 910 549 879 614 z "},"™":{"ha":1250,"x_min":0,"x_max":0,"o":"m 56 1081 l 543 1081 l 543 899 l 394 899 l 394 439 l 199 439 l 199 899 l 56 899 z m 779 439 l 717 822 l 713 822 l 710 439 l 536 439 l 576 1081 l 781 1081 l 864 667 l 865 667 l 950 1081 l 1154 1081 l 1194 439 l 1021 439 l 1018 822 l 1014 822 l 938 439 z "},"㏂":{"ha":1250,"x_min":0,"x_max":0,"o":"m 339 50 l 339 117 b 199 40 303 58 271 40 b 29 436 119 40 24 122 b 238 829 38 710 118 833 b 339 744 271 825 317 799 l 339 814 l 518 814 l 518 50 z m 271 253 b 331 376 294 253 319 283 l 333 414 b 276 617 333 544 318 617 b 208 436 239 617 208 561 b 271 253 208 315 231 253 z m 572 50 l 572 814 l 750 814 l 750 767 b 861 833 776 806 821 826 l 875 833 b 964 746 911 833 946 807 b 1081 833 1001 799 1056 833 l 1103 833 b 1228 551 1197 833 1228 733 l 1228 50 l 1050 50 l 1050 454 b 1025 611 1050 599 1046 611 b 994 556 1007 611 1004 596 l 994 50 l 811 50 l 811 454 b 785 611 811 597 804 611 b 750 560 768 611 761 597 l 750 50 z "},"㏘":{"ha":1250,"x_min":0,"x_max":0,"o":"m 557 50 l 557 814 l 735 814 l 735 767 b 849 833 761 806 808 826 l 863 833 b 951 746 899 833 933 807 b 1071 833 989 799 1046 833 l 1093 833 b 1218 551 1188 833 1218 733 l 1218 50 l 1040 50 l 1040 454 b 1015 611 1040 599 1036 611 b 982 556 997 611 992 596 l 982 50 l 799 50 l 799 454 b 772 611 799 597 792 611 b 735 560 756 611 746 597 l 735 50 z m 326 39 b 217 118 274 39 240 69 l 217 -124 l 32 -124 l 32 814 l 217 814 l 217 746 b 311 826 238 792 254 824 b 514 426 440 832 511 688 b 326 39 515 157 442 39 z m 269 238 b 326 426 308 232 326 276 b 274 614 326 576 307 618 b 221 404 231 608 221 543 b 269 238 221 308 238 242 z "},"℡":{"ha":1250,"x_min":0,"x_max":0,"o":"m 28 1081 l 515 1081 l 515 853 l 361 853 l 361 50 l 161 50 l 161 853 l 28 853 z m 404 428 b 694 842 404 683 506 842 b 978 425 906 842 978 653 l 972 349 l 600 349 b 728 218 601 271 651 218 b 853 283 785 218 825 242 l 960 156 b 719 22 901 67 822 22 b 404 428 521 22 400 178 z m 804 521 b 708 643 803 593 757 643 b 607 521 651 643 607 585 z m 1021 1101 l 1221 1101 l 1221 50 l 1021 50 z "},"！":{"ha":1250,"x_min":0,"x_max":0,"o":"m 504 1106 l 747 1106 l 747 421 l 504 421 z m 503 297 l 746 297 l 746 25 l 503 25 z "},"＂":{"ha":529,"x_min":0,"x_max":0,"o":"m 471 761 l 304 761 l 297 1146 l 485 1146 l 485 1007 z m 215 761 l 49 761 l 42 1146 l 229 1146 l 229 1007 z "},"＃":{"ha":1250,"x_min":0,"x_max":0,"o":"m 1106 706 l 950 706 l 935 467 l 1089 467 l 1089 238 l 919 238 l 907 25 l 672 25 l 685 238 l 515 238 l 503 25 l 269 25 l 283 238 l 144 238 l 144 467 l 297 467 l 313 706 l 164 706 l 164 935 l 328 935 l 339 1104 l 568 1104 l 557 935 l 729 935 l 740 1104 l 975 1104 l 964 935 l 1106 935 z m 715 706 l 543 706 l 529 467 l 700 467 z "},"＄":{"ha":1250,"x_min":0,"x_max":0,"o":"m 785 82 b 750 74 774 79 761 76 l 750 -18 l 500 -18 l 500 76 b 456 88 485 79 469 83 b 231 242 390 108 285 168 l 379 413 b 668 301 503 324 589 300 b 700 413 726 303 760 379 b 461 536 629 453 571 472 b 319 910 299 631 265 792 b 500 1053 357 986 419 1031 l 500 1146 l 750 1146 l 750 1060 b 988 918 846 1039 928 990 l 842 746 b 624 835 785 797 686 839 b 578 765 575 832 563 793 b 739 654 590 743 622 711 b 996 388 899 576 982 479 b 785 82 1019 233 944 126 z "},"％":{"ha":1250,"x_min":0,"x_max":0,"o":"m 863 1118 l 1047 1000 l 383 1 l 197 133 z m 576 850 b 325 599 576 714 461 599 b 74 850 189 599 74 714 b 325 1101 74 986 189 1101 b 576 850 461 1101 576 986 z m 389 850 b 325 914 389 882 357 914 b 261 850 293 914 261 882 b 325 786 261 818 293 786 b 389 850 357 786 389 818 z m 1175 265 b 924 14 1175 129 1060 14 b 672 265 788 14 672 129 b 924 517 672 401 788 517 b 1175 265 1060 517 1175 401 z m 988 265 b 924 329 988 297 956 329 b 860 265 892 329 860 297 b 924 201 860 233 892 201 b 988 265 956 201 988 233 z "},"＆":{"ha":1250,"x_min":0,"x_max":0,"o":"m 561 700 b 661 825 622 731 661 775 b 565 904 661 882 617 911 b 488 797 506 897 468 851 b 561 700 499 764 521 736 z m 503 431 b 444 307 447 401 431 346 b 542 236 458 264 490 240 b 654 282 589 231 626 247 z m 703 550 l 804 454 l 892 568 l 1071 438 l 964 304 l 1100 176 l 932 10 l 818 118 b 538 4 751 49 653 10 b 207 194 374 -3 258 85 b 350 594 149 318 183 504 b 253 888 251 688 228 800 b 542 1108 286 1017 382 1092 b 865 938 669 1122 814 1061 b 703 550 921 810 890 672 z "},"＇":{"ha":296,"x_min":0,"x_max":0,"o":"m 235 761 l 53 761 l 46 1146 l 249 1146 l 249 1015 z "},"（":{"ha":521,"x_min":0,"x_max":0,"o":"m 76 565 b 261 1158 76 794 136 1004 l 469 1081 b 313 565 367 932 313 742 b 469 50 313 389 360 231 l 261 -28 b 76 565 136 126 76 336 z "},"）":{"ha":521,"x_min":0,"x_max":0,"o":"m 450 565 b 265 -28 450 336 390 126 l 57 50 b 214 565 167 231 214 389 b 57 1081 214 742 160 932 l 265 1158 b 450 565 390 1004 450 794 z "},"＊":{"ha":679,"x_min":0,"x_max":0,"o":"m 339 400 l 249 272 l 60 406 l 157 517 l 28 556 l 96 774 l 221 738 l 218 876 l 460 876 l 457 738 l 582 774 l 650 556 l 522 517 l 618 410 l 429 274 z "},"＋":{"ha":824,"x_min":0,"x_max":0,"o":"m 286 689 l 286 943 l 538 943 l 538 689 l 765 689 l 765 460 l 538 460 l 538 207 l 286 207 l 286 460 l 58 460 l 58 689 z "},"，":{"ha":458,"x_min":0,"x_max":0,"o":"m 44 289 l 318 289 l 318 128 l 293 -67 l 114 -67 l 121 51 l 44 51 z "},"－":{"ha":722,"x_min":0,"x_max":0,"o":"m 664 682 l 664 460 l 58 460 l 58 682 z "},"．":{"ha":458,"x_min":0,"x_max":0,"o":"m 332 24 l 58 24 l 58 275 l 332 275 z "},"／":{"ha":549,"x_min":0,"x_max":0,"o":"m 36 14 l 250 1156 l 513 1114 l 300 -28 z "},"０":{"ha":1250,"x_min":0,"x_max":0,"o":"m 625 36 b 249 565 415 36 249 161 b 625 1093 249 969 426 1093 b 1001 565 824 1093 1001 969 b 625 36 1001 161 835 36 z m 625 244 b 769 565 697 244 769 319 b 625 885 769 819 697 885 b 481 565 553 885 481 819 b 625 244 481 319 553 244 z "},"１":{"ha":1250,"x_min":0,"x_max":0,"o":"m 558 783 l 447 775 l 447 986 b 615 1081 513 996 589 1025 l 801 1081 l 801 50 l 558 50 z "},"２":{"ha":1250,"x_min":0,"x_max":0,"o":"m 269 50 l 269 221 b 597 542 411 350 486 418 b 719 768 688 643 725 715 b 615 861 715 828 661 864 b 497 708 556 858 504 804 l 257 750 b 606 1099 285 957 401 1093 b 940 910 757 1104 889 1022 b 888 543 982 822 969 667 b 636 268 818 439 764 385 l 811 268 b 993 281 885 268 949 271 l 993 68 b 760 50 936 56 819 50 z "},"３":{"ha":1250,"x_min":0,"x_max":0,"o":"m 535 483 l 521 663 b 732 782 661 668 728 708 b 597 878 736 846 682 896 b 481 735 540 865 486 817 l 254 778 b 564 1096 279 963 396 1074 b 949 932 739 1119 893 1058 b 876 596 997 822 971 675 b 982 251 993 528 1021 368 b 574 33 932 100 776 18 b 228 389 385 50 249 179 l 456 433 b 593 261 465 351 525 272 b 751 365 669 247 746 292 b 619 488 757 442 697 493 b 535 483 590 486 549 485 z "},"４":{"ha":1250,"x_min":0,"x_max":0,"o":"m 653 765 l 500 439 l 653 439 z m 582 1081 l 882 1081 l 882 439 l 914 439 b 1006 447 940 439 979 440 l 1006 239 b 900 228 969 229 926 228 l 882 228 l 882 50 l 646 50 l 646 228 l 243 228 l 243 414 z "},"５":{"ha":1250,"x_min":0,"x_max":0,"o":"m 536 718 b 854 665 628 744 764 732 b 971 278 961 586 1018 432 b 560 33 918 99 768 19 b 231 311 410 42 275 142 l 444 376 b 582 256 467 311 518 261 b 749 379 669 249 736 293 b 629 544 760 453 721 524 b 467 490 561 558 506 536 l 272 544 l 326 1081 l 914 1081 l 914 863 l 550 863 z "},"６":{"ha":1250,"x_min":0,"x_max":0,"o":"m 467 401 b 590 249 456 324 508 261 b 758 358 664 238 746 282 b 633 515 772 428 719 504 b 467 401 551 528 479 485 z m 251 294 b 286 668 226 422 242 532 b 490 1108 331 804 400 963 l 733 1060 b 567 708 664 944 604 821 l 567 697 b 863 646 649 717 782 699 b 976 274 964 579 1022 431 b 571 33 926 103 756 18 b 251 294 407 47 281 146 z "},"７":{"ha":1250,"x_min":0,"x_max":0,"o":"m 442 54 b 699 850 468 328 556 624 l 699 863 l 254 863 l 254 1081 l 994 1081 l 994 910 b 683 31 815 650 719 385 z "},"８":{"ha":1250,"x_min":0,"x_max":0,"o":"m 625 32 b 257 263 463 32 299 110 b 386 599 221 400 278 535 b 303 914 292 665 257 799 b 625 1100 350 1035 492 1100 b 947 914 758 1100 900 1035 b 864 599 993 799 958 665 b 993 263 972 535 1029 400 b 625 32 951 110 788 32 z m 625 681 b 746 788 693 681 746 722 b 625 894 746 854 686 894 b 504 788 564 894 504 854 b 625 681 504 722 557 681 z m 625 244 b 760 360 700 244 760 292 b 625 486 760 439 699 486 b 490 360 551 486 490 439 b 625 244 490 292 550 244 z "},"９":{"ha":1250,"x_min":0,"x_max":0,"o":"m 783 733 b 657 888 793 808 756 872 b 492 778 583 899 504 857 b 614 621 481 708 522 633 b 783 733 707 608 774 661 z m 997 839 b 964 465 1022 711 1007 608 b 771 25 922 328 861 179 l 524 63 b 688 425 593 178 654 317 l 688 436 b 388 488 606 417 468 435 b 274 860 286 554 228 703 b 679 1100 324 1031 494 1115 b 997 839 843 1086 968 988 z "},"：":{"ha":375,"x_min":0,"x_max":0,"o":"m 310 190 l 65 190 l 65 469 l 310 469 z m 310 663 l 65 663 l 65 942 l 310 942 z "},"；":{"ha":376,"x_min":0,"x_max":0,"o":"m 314 663 l 63 663 l 63 942 l 314 942 z m 63 497 l 314 497 l 314 308 l 289 114 l 117 114 l 124 232 l 63 232 z "},"＜":{"ha":674,"x_min":0,"x_max":0,"o":"m 283 560 l 650 157 l 482 -22 l 43 446 l 43 674 l 482 1142 l 650 963 z "},"＝":{"ha":810,"x_min":0,"x_max":0,"o":"m 57 821 l 750 821 l 750 608 l 57 608 z m 57 513 l 750 513 l 750 297 l 57 297 z "},"＞":{"ha":674,"x_min":0,"x_max":0,"o":"m 396 560 l 29 963 l 197 1142 l 636 674 l 636 446 l 197 -22 l 29 157 z "},"？":{"ha":1250,"x_min":0,"x_max":0,"o":"m 478 269 l 721 269 l 721 25 l 478 25 z m 701 788 b 599 876 701 839 663 882 b 488 769 535 871 504 835 l 272 835 b 576 1115 315 1007 425 1106 b 935 899 779 1129 899 1031 b 821 535 976 747 929 639 b 719 350 761 478 726 433 l 472 350 l 472 383 b 554 572 472 454 501 521 b 701 788 671 685 701 724 z "},"＠":{"ha":1250,"x_min":0,"x_max":0,"o":"m 601 442 b 692 529 639 442 683 464 b 693 561 693 535 693 560 b 603 681 693 642 650 681 b 513 561 551 681 518 635 b 601 442 507 483 543 442 z m 922 244 b 714 322 808 226 725 297 b 579 275 681 293 631 275 b 315 561 426 275 313 360 b 576 840 318 758 447 840 b 703 788 625 840 676 822 l 703 835 l 894 835 l 894 467 b 940 450 894 433 918 428 b 983 586 968 481 983 533 b 625 936 983 831 849 936 b 260 563 433 936 260 810 b 625 193 260 310 414 193 b 842 238 721 193 783 206 l 915 64 b 638 3 826 17 749 3 b 61 557 290 3 61 200 b 625 1122 61 892 290 1122 b 1189 593 975 1122 1189 925 b 922 244 1189 407 1086 269 z "},"Ａ":{"ha":1250,"x_min":0,"x_max":0,"o":"m 1121 50 l 851 50 l 771 265 l 471 265 l 396 50 l 128 50 l 510 1081 l 728 1081 z m 624 779 l 535 488 l 707 488 z "},"Ｂ":{"ha":1250,"x_min":0,"x_max":0,"o":"m 207 50 l 207 1081 l 621 1081 b 1004 836 881 1081 992 983 b 883 606 1017 750 971 643 b 1031 317 990 557 1043 435 b 672 50 1013 146 897 50 z m 449 863 l 449 693 l 665 693 b 763 779 726 697 763 728 b 657 863 763 829 725 863 z m 449 483 l 449 268 l 663 268 b 788 376 760 267 788 315 b 651 483 788 433 751 483 z "},"Ｃ":{"ha":1250,"x_min":0,"x_max":0,"o":"m 188 564 b 428 1047 188 794 276 953 b 789 1096 519 1103 685 1118 b 1061 924 879 1078 967 1028 l 911 768 b 613 860 821 869 708 892 b 429 564 496 822 429 722 b 614 267 429 404 525 289 b 911 361 714 243 842 267 l 1061 203 b 789 31 971 97 885 49 b 428 79 685 11 519 25 b 188 564 276 174 188 332 z "},"Ｄ":{"ha":1250,"x_min":0,"x_max":0,"o":"m 819 565 b 604 861 819 744 749 861 l 439 861 l 439 269 l 604 269 b 819 565 749 269 819 383 z m 1053 565 b 547 50 1051 247 893 51 l 196 50 l 196 1081 l 547 1081 b 1053 565 893 1079 1051 882 z "},"Ｅ":{"ha":1250,"x_min":0,"x_max":0,"o":"m 1014 861 l 471 861 l 471 674 l 988 675 l 988 460 l 471 460 l 471 269 l 800 269 b 1021 285 901 269 956 276 l 1021 69 b 768 50 960 54 847 50 l 228 50 l 228 1081 l 1014 1081 z "},"Ｆ":{"ha":1250,"x_min":0,"x_max":0,"o":"m 239 50 l 239 1081 l 1011 1081 l 1011 858 l 488 858 l 488 657 l 764 657 b 985 668 865 657 918 660 l 985 453 b 733 436 922 438 811 436 l 488 436 l 488 50 z "},"Ｇ":{"ha":1250,"x_min":0,"x_max":0,"o":"m 764 288 b 824 428 800 313 824 372 l 611 428 l 611 640 l 1082 640 l 1082 539 b 1011 213 1075 414 1075 313 b 747 31 946 100 844 50 b 393 79 642 10 486 24 b 167 564 242 174 167 332 b 406 1047 167 794 254 953 b 749 1096 497 1103 643 1118 b 1019 924 839 1078 924 1028 l 869 768 b 585 864 778 869 681 896 b 408 564 469 826 408 722 b 575 260 408 404 476 289 b 764 288 632 244 711 249 z "},"Ｈ":{"ha":1250,"x_min":0,"x_max":0,"o":"m 201 1081 l 449 1081 l 449 692 l 801 692 l 801 1081 l 1049 1081 l 1049 50 l 801 50 l 801 469 l 449 469 l 449 50 l 201 50 z "},"Ｉ":{"ha":1250,"x_min":0,"x_max":0,"o":"m 501 1081 l 749 1081 l 749 50 l 501 50 z "},"Ｊ":{"ha":1250,"x_min":0,"x_max":0,"o":"m 683 1081 l 929 1081 l 929 396 b 844 101 929 251 911 174 b 574 26 783 36 668 17 b 321 183 507 35 399 85 l 468 358 b 608 278 521 299 565 275 b 683 396 649 281 683 315 z "},"Ｋ":{"ha":1250,"x_min":0,"x_max":0,"o":"m 442 258 l 442 50 l 199 50 l 199 1081 l 442 1081 l 442 621 l 771 1081 l 1040 1081 l 732 643 l 1051 50 l 788 50 l 572 435 z "},"Ｌ":{"ha":1250,"x_min":0,"x_max":0,"o":"m 717 50 l 279 50 l 279 1081 l 526 1081 l 526 274 l 749 274 b 969 289 851 274 904 281 l 969 69 b 717 50 908 54 796 50 z "},"Ｍ":{"ha":1250,"x_min":0,"x_max":0,"o":"m 507 50 l 321 718 l 314 718 l 308 50 l 54 50 l 118 1081 l 403 1081 l 621 365 l 628 365 l 847 1081 l 1132 1081 l 1196 50 l 942 50 l 936 718 l 929 718 l 743 50 z "},"Ｎ":{"ha":1250,"x_min":0,"x_max":0,"o":"m 446 690 l 446 50 l 201 50 l 201 1081 l 442 1081 l 804 461 l 804 1081 l 1049 1081 l 1049 50 l 821 50 z "},"Ｏ":{"ha":1250,"x_min":0,"x_max":0,"o":"m 622 24 b 131 564 311 24 131 231 b 622 1104 131 897 311 1104 b 1119 564 936 1104 1119 897 b 622 24 1119 231 936 24 z m 625 260 b 869 564 771 260 869 378 b 625 868 869 740 768 868 b 381 564 482 868 381 740 b 625 260 381 378 479 260 z "},"Ｐ":{"ha":1250,"x_min":0,"x_max":0,"o":"m 211 1081 l 604 1081 b 1039 718 886 1081 1039 947 b 632 364 1039 529 890 364 l 457 364 l 457 50 l 211 50 z m 457 585 l 643 585 b 799 724 749 585 799 656 b 646 858 799 799 744 858 l 457 858 z "},"Ｑ":{"ha":1250,"x_min":0,"x_max":0,"o":"m 1000 208 l 1079 58 l 847 -37 l 785 76 b 622 57 735 64 681 57 b 131 581 311 57 131 253 b 622 1104 131 908 311 1104 b 1119 581 936 1104 1119 908 b 1000 208 1119 424 1078 299 z m 622 285 b 869 581 768 285 869 385 b 622 878 869 772 765 878 b 381 581 482 878 381 772 b 622 285 381 385 479 285 z "},"Ｒ":{"ha":1250,"x_min":0,"x_max":0,"o":"m 867 450 l 1040 50 l 771 50 l 625 396 l 456 396 l 456 50 l 210 50 l 210 1081 l 603 1081 b 1038 733 885 1081 1038 963 b 867 450 1038 613 974 507 z m 456 615 l 642 615 b 797 739 747 615 797 671 b 644 858 797 814 743 858 l 456 858 z "},"Ｓ":{"ha":1250,"x_min":0,"x_max":0,"o":"m 797 44 b 442 50 699 17 565 15 b 199 207 372 74 260 139 l 363 385 b 689 265 501 288 610 246 b 714 407 761 283 776 367 b 447 538 643 456 572 471 b 288 904 271 636 226 785 b 643 1106 350 1036 485 1106 b 1021 950 800 1106 931 1047 l 860 771 b 624 871 792 829 690 871 b 547 803 585 871 547 849 b 751 650 547 758 601 724 b 1025 374 940 564 1011 478 b 797 44 1050 225 971 93 z "},"Ｔ":{"ha":1250,"x_min":0,"x_max":0,"o":"m 232 1081 l 1017 1081 l 1017 853 l 744 853 l 744 50 l 497 50 l 497 853 l 232 853 z "},"Ｕ":{"ha":1250,"x_min":0,"x_max":0,"o":"m 622 249 b 788 418 713 249 788 301 l 788 1081 l 1035 1081 l 1035 397 b 622 19 1035 156 868 19 b 215 397 379 19 215 156 l 215 1081 l 463 1081 l 463 418 b 622 249 463 301 533 249 z "},"Ｖ":{"ha":1250,"x_min":0,"x_max":0,"o":"m 499 50 l 165 1081 l 432 1081 l 625 401 l 818 1081 l 1085 1081 l 751 50 z "},"Ｗ":{"ha":1250,"x_min":0,"x_max":0,"o":"m 760 1081 l 893 367 l 897 367 l 950 1081 l 1207 1081 l 1064 50 l 783 50 l 631 771 l 621 771 l 467 50 l 200 50 l 43 1081 l 300 1081 l 354 367 l 358 367 l 490 1081 z "},"Ｘ":{"ha":1250,"x_min":0,"x_max":0,"o":"m 151 1081 l 451 1081 l 626 761 l 803 1081 l 1100 1081 l 800 565 l 1111 50 l 813 50 l 626 369 l 439 50 l 139 50 l 436 565 z "},"Ｙ":{"ha":1250,"x_min":0,"x_max":0,"o":"m 753 450 l 753 50 l 500 50 l 500 450 l 146 1081 l 432 1081 l 625 689 l 818 1081 l 1104 1081 z "},"Ｚ":{"ha":1250,"x_min":0,"x_max":0,"o":"m 772 272 b 990 288 871 272 925 278 l 990 69 b 736 50 929 54 817 50 l 258 50 l 258 138 l 636 858 l 285 858 l 285 1081 l 974 1081 l 974 975 l 604 272 z "},"［":{"ha":431,"x_min":0,"x_max":0,"o":"m 93 1132 l 417 1132 l 417 917 l 322 917 l 322 211 l 417 211 l 417 -4 l 93 -4 z "},"￦":{"ha":1250,"x_min":0,"x_max":0,"o":"m 760 1081 l 811 703 l 889 703 l 908 1081 l 1151 1081 l 1108 703 l 1217 703 l 1217 481 l 1085 481 l 1036 50 l 756 50 l 688 481 l 563 481 l 494 50 l 228 50 l 174 481 l 33 481 l 33 703 l 146 703 l 99 1081 l 342 1081 l 361 703 l 439 703 l 490 1081 z m 842 481 l 865 311 l 869 311 l 878 481 z m 651 703 l 631 840 l 621 840 l 599 703 z m 374 481 l 382 311 l 386 311 l 408 481 z "},"］":{"ha":431,"x_min":0,"x_max":0,"o":"m 343 1132 l 343 -4 l 19 -4 l 19 211 l 114 211 l 114 917 l 19 917 l 19 1132 z "},"＾":{"ha":726,"x_min":0,"x_max":0,"o":"m 478 1143 l 713 633 l 453 633 l 367 861 l 282 633 l 14 633 l 257 1143 z "},"＿":{"ha":1250,"x_min":0,"x_max":0,"o":"m 75 246 l 1175 246 l 1175 24 l 75 24 z "},"｀":{"ha":408,"x_min":0,"x_max":0,"o":"m 292 1146 l 360 758 l 157 758 l 51 1146 z "},"ａ":{"ha":1250,"x_min":0,"x_max":0,"o":"m 788 50 l 788 117 b 589 40 742 69 669 40 b 229 436 386 40 222 165 b 599 829 238 710 410 838 b 788 744 679 825 746 789 l 788 814 l 1028 814 l 1028 50 z m 618 253 b 779 376 700 253 763 292 b 782 414 781 382 782 408 b 624 617 782 544 713 617 b 469 436 549 621 469 561 b 618 253 469 315 533 253 z "},"ｂ":{"ha":1250,"x_min":0,"x_max":0,"o":"m 660 39 b 461 118 581 39 506 69 l 461 50 l 222 50 l 222 1081 l 461 1081 l 461 743 b 667 828 501 788 575 825 b 1022 428 869 838 1019 689 b 660 39 1026 158 865 39 z m 614 251 b 789 435 700 246 789 294 b 631 615 789 561 706 615 b 469 414 538 615 469 536 b 614 251 469 328 522 257 z "},"ｃ":{"ha":1250,"x_min":0,"x_max":0,"o":"m 250 435 b 675 842 250 690 415 842 b 996 689 799 842 907 796 l 853 525 b 671 619 789 594 744 619 b 490 435 581 618 490 544 b 674 249 490 322 578 249 b 858 343 753 249 804 285 l 1000 181 b 675 26 917 72 800 26 b 250 435 421 25 250 164 z "},"ｄ":{"ha":1250,"x_min":0,"x_max":0,"o":"m 585 39 b 224 428 383 39 221 158 b 581 828 228 689 378 838 b 789 743 671 825 746 789 l 789 1081 l 1028 1081 l 1028 50 l 789 50 l 789 118 b 585 39 742 69 667 39 z m 633 251 b 781 414 725 257 781 328 b 614 615 781 536 710 615 b 461 435 542 615 461 561 b 633 251 461 294 547 246 z "},"ｅ":{"ha":1250,"x_min":0,"x_max":0,"o":"m 254 428 b 635 842 254 683 410 842 b 999 425 865 842 999 672 l 993 349 l 492 349 b 644 239 497 278 565 239 b 811 322 717 239 767 268 l 968 186 b 635 22 886 74 775 22 b 254 428 411 22 250 178 z m 764 535 b 636 629 754 599 699 629 b 506 535 567 629 514 594 z "},"ｆ":{"ha":1250,"x_min":0,"x_max":0,"o":"m 388 814 l 504 814 l 504 860 b 710 1111 504 1033 575 1111 l 856 1111 l 856 897 l 807 897 b 744 835 754 897 744 882 l 744 814 l 863 814 l 863 597 l 744 597 l 744 50 l 504 50 l 504 597 l 388 597 z "},"ｇ":{"ha":1250,"x_min":0,"x_max":0,"o":"m 624 293 b 778 446 724 294 778 360 b 624 626 778 567 707 622 b 469 458 556 631 475 586 b 624 293 464 344 538 292 z m 1025 182 b 894 -136 1025 39 1006 -57 b 561 -201 808 -194 685 -207 b 264 -112 476 -197 367 -172 l 364 76 b 657 4 460 22 550 -7 b 782 119 750 15 782 69 l 782 153 b 586 88 746 114 667 88 b 233 447 422 88 225 197 b 600 832 243 722 408 842 b 782 760 681 829 742 800 l 782 814 l 1025 814 z "},"ｈ":{"ha":1250,"x_min":0,"x_max":0,"o":"m 267 50 l 267 1081 l 510 1081 l 510 778 b 679 835 544 807 613 829 l 697 835 b 982 517 883 835 982 700 l 982 50 l 739 50 l 739 426 b 625 600 739 569 696 607 b 510 546 578 596 540 578 l 510 50 z "},"ｉ":{"ha":1250,"x_min":0,"x_max":0,"o":"m 504 814 l 744 814 l 744 50 l 504 50 z m 744 894 l 504 894 l 504 1081 l 744 1081 z "},"ｊ":{"ha":1250,"x_min":0,"x_max":0,"o":"m 817 894 l 576 894 l 576 1081 l 817 1081 z m 817 118 b 686 -154 817 -31 782 -114 b 432 -157 606 -187 511 -181 l 443 44 b 536 39 474 33 518 28 b 576 146 571 53 576 88 l 576 814 l 817 814 z "},"ｋ":{"ha":1250,"x_min":0,"x_max":0,"o":"m 481 281 l 481 50 l 239 50 l 239 1081 l 481 1081 l 481 590 l 689 814 l 975 814 l 700 519 l 1011 50 l 729 50 l 539 344 z "},"ｌ":{"ha":1250,"x_min":0,"x_max":0,"o":"m 504 1101 l 746 1101 l 746 50 l 504 50 z "},"ｍ":{"ha":1250,"x_min":0,"x_max":0,"o":"m 58 50 l 58 814 l 293 814 l 293 767 b 478 833 354 810 410 826 l 493 833 b 689 746 588 833 651 800 b 901 833 753 794 846 833 l 925 833 b 1192 538 1103 833 1192 724 l 1192 50 l 961 50 l 961 413 b 856 597 961 565 921 600 b 750 556 808 596 782 583 b 751 517 751 543 751 529 l 751 50 l 522 50 l 522 413 b 415 597 522 556 482 600 b 293 546 361 596 332 578 l 293 50 z "},"ｎ":{"ha":1250,"x_min":0,"x_max":0,"o":"m 269 50 l 269 814 l 513 814 l 513 769 b 683 832 547 799 617 826 l 706 832 b 979 517 892 832 978 707 l 979 50 l 736 50 l 736 413 b 629 597 736 572 697 600 b 513 550 576 594 553 581 l 513 50 z "},"ｏ":{"ha":1250,"x_min":0,"x_max":0,"o":"m 622 251 b 800 433 715 251 800 311 b 622 615 800 550 715 615 b 450 433 532 615 450 550 b 622 251 450 311 532 251 z m 625 32 b 210 433 382 32 210 192 b 625 835 210 685 397 835 b 1040 433 853 835 1040 685 b 625 32 1040 192 868 32 z "},"ｐ":{"ha":1250,"x_min":0,"x_max":0,"o":"m 660 39 b 461 118 581 39 506 69 l 461 -124 l 222 -124 l 222 814 l 461 814 l 461 746 b 667 826 501 790 575 824 b 1022 426 869 832 1019 688 b 660 39 1026 157 865 39 z m 619 251 b 789 433 704 247 789 293 b 631 614 789 561 707 614 b 469 411 538 614 469 535 b 619 251 469 331 533 257 z "},"ｑ":{"ha":1250,"x_min":0,"x_max":0,"o":"m 585 39 b 224 426 383 39 221 157 b 581 826 228 688 378 832 b 789 744 671 824 746 790 l 789 814 l 1028 814 l 1028 -124 l 789 -124 l 789 118 b 585 39 742 68 667 39 z m 628 251 b 781 411 714 257 781 331 b 614 614 781 535 710 614 b 461 433 540 614 461 561 b 628 251 461 293 543 247 z "},"ｒ":{"ha":1250,"x_min":0,"x_max":0,"o":"m 843 821 l 843 592 l 821 592 b 654 540 764 592 704 576 l 654 50 l 407 50 l 407 814 l 654 814 l 654 758 b 818 821 706 797 751 814 z "},"ｓ":{"ha":1250,"x_min":0,"x_max":0,"o":"m 779 38 b 511 36 706 17 615 19 b 285 136 439 50 357 86 l 382 325 b 638 232 472 278 557 243 b 654 303 689 221 700 283 b 419 406 594 332 515 347 b 329 686 328 461 282 575 b 603 843 364 778 449 838 b 936 731 726 847 832 811 l 811 557 b 617 628 735 604 675 624 b 600 560 585 632 567 578 b 817 469 657 528 739 511 b 953 228 919 417 968 335 b 779 38 940 124 875 65 z "},"ｔ":{"ha":1250,"x_min":0,"x_max":0,"o":"m 726 371 b 764 274 726 313 733 285 b 847 283 785 267 803 268 l 888 71 b 617 57 815 38 699 25 b 486 326 521 96 486 181 l 486 597 l 361 597 l 361 814 l 486 814 l 486 1081 l 726 1081 l 726 814 l 882 814 l 882 597 l 726 597 z "},"ｕ":{"ha":1250,"x_min":0,"x_max":0,"o":"m 971 814 l 971 50 l 728 50 l 728 94 b 565 32 693 65 632 38 l 547 32 b 279 333 361 32 279 150 l 279 814 l 522 814 l 522 438 b 619 267 522 297 564 265 b 728 314 668 268 699 282 l 728 814 z "},"ｖ":{"ha":1250,"x_min":0,"x_max":0,"o":"m 228 814 l 488 814 l 625 381 l 763 814 l 1021 814 l 728 50 l 517 50 z "},"ｗ":{"ha":1250,"x_min":0,"x_max":0,"o":"m 625 447 l 496 50 l 294 50 l 67 814 l 317 814 l 415 376 l 522 814 l 726 814 l 835 376 l 932 814 l 1183 814 l 956 50 l 754 50 z "},"ｘ":{"ha":1250,"x_min":0,"x_max":0,"o":"m 217 814 l 494 814 l 622 600 l 750 814 l 1021 814 l 778 432 l 1040 50 l 765 50 l 622 253 l 479 50 l 208 50 l 467 432 z "},"ｙ":{"ha":1250,"x_min":0,"x_max":0,"o":"m 511 226 l 213 814 l 488 814 l 638 500 l 768 814 l 1038 814 l 606 -158 l 364 -90 z "},"ｚ":{"ha":1250,"x_min":0,"x_max":0,"o":"m 674 50 l 321 50 l 321 149 l 589 597 l 332 597 l 332 814 l 921 814 l 921 735 l 642 267 l 710 267 b 928 275 804 267 863 267 l 928 63 b 674 50 867 47 754 50 z "},"｛":{"ha":525,"x_min":0,"x_max":0,"o":"m 268 564 b 322 525 289 560 307 539 b 378 297 364 479 378 453 b 446 201 378 226 394 203 l 513 200 l 513 7 l 472 6 b 306 18 433 6 354 7 b 185 161 239 33 188 90 b 178 332 182 225 181 299 b 26 442 172 410 124 440 l 26 686 b 178 796 124 688 172 718 b 185 967 181 829 182 903 b 306 1110 188 1038 239 1094 b 472 1122 354 1121 433 1122 l 513 1121 l 513 928 l 446 926 b 378 831 394 925 378 901 b 322 603 378 675 364 649 b 268 564 307 589 289 568 z "},"｜":{"ha":810,"x_min":0,"x_max":0,"o":"m 283 1147 l 526 1147 l 526 -17 l 283 -17 z "},"｝":{"ha":525,"x_min":0,"x_max":0,"o":"m 268 564 b 214 603 247 568 229 589 b 158 831 172 649 158 675 b 90 926 158 901 142 925 l 24 928 l 24 1121 l 64 1122 b 231 1110 103 1122 182 1121 b 351 967 297 1094 349 1038 b 358 796 354 903 356 829 b 510 686 364 718 413 688 l 510 442 b 358 332 413 440 364 410 b 351 161 356 299 354 225 b 231 18 349 90 297 33 b 64 6 182 7 103 6 l 24 7 l 24 200 l 90 201 b 158 297 142 203 158 226 b 214 525 158 453 172 479 b 268 564 229 539 247 560 z "},"￣":{"ha":1250,"x_min":0,"x_max":0,"o":"m 75 1160 l 1175 1160 l 1175 938 l 75 938 z "},"ㄱ":{"ha":1250,"x_min":0,"x_max":0,"o":"m 803 186 b 817 771 815 343 817 646 l 181 771 l 181 983 l 1068 983 b 1051 186 1068 699 1067 385 z "},"ㄲ":{"ha":1250,"x_min":0,"x_max":0,"o":"m 333 186 b 347 771 344 343 347 646 l 161 771 l 161 983 l 596 983 b 579 186 596 699 593 385 z m 824 186 b 839 771 836 343 839 646 l 644 771 l 644 983 l 1088 983 b 1071 186 1088 699 1085 385 z "},"ㄳ":{"ha":1250,"x_min":0,"x_max":0,"o":"m 329 185 b 344 769 342 342 344 643 l 115 769 l 115 981 l 586 981 b 581 375 586 756 585 517 b 713 988 675 525 719 685 l 954 988 b 929 642 956 854 946 743 b 1136 261 1004 531 1082 403 l 953 150 b 847 378 908 253 874 331 b 697 136 819 314 768 231 l 572 217 b 571 185 572 213 572 204 z "},"ㄴ":{"ha":1250,"x_min":0,"x_max":0,"o":"m 432 983 l 432 397 l 861 397 b 1082 418 938 399 1008 399 l 1082 211 b 854 186 1039 189 950 186 l 168 186 l 168 983 z "},"ㄵ":{"ha":1250,"x_min":0,"x_max":0,"o":"m 350 981 l 350 364 l 415 364 b 553 365 458 364 507 364 b 824 769 686 450 806 617 l 579 769 l 579 981 l 1056 981 l 1056 918 b 975 511 1056 756 1029 619 b 1154 289 1038 447 1107 363 l 988 140 b 847 325 938 219 883 285 b 665 164 806 269 746 215 b 396 160 617 154 496 160 l 97 160 l 97 981 z "},"ㄶ":{"ha":1250,"x_min":0,"x_max":0,"o":"m 369 983 l 369 372 l 428 372 b 564 375 500 374 519 371 b 561 426 563 388 561 407 b 840 701 561 579 639 701 b 1124 426 1043 701 1124 579 b 840 150 1124 265 1028 150 b 611 228 707 150 618 207 l 611 176 b 421 160 558 163 518 160 l 118 160 l 118 983 z m 1132 731 l 553 731 l 553 924 l 724 924 l 724 1019 l 958 1019 l 958 924 l 1132 924 z m 840 329 b 914 426 882 329 914 358 b 840 525 914 496 882 525 b 765 426 800 525 765 496 b 840 329 765 358 800 329 z "},"ㄷ":{"ha":1250,"x_min":0,"x_max":0,"o":"m 840 390 b 1085 407 936 390 1013 394 l 1085 211 b 847 186 1032 193 946 186 l 165 186 l 165 983 l 1058 983 l 1058 778 l 417 778 l 417 390 z "},"ㄸ":{"ha":1250,"x_min":0,"x_max":0,"o":"m 1083 778 l 883 778 l 883 390 l 964 390 b 1108 401 1026 390 1061 392 l 1108 200 b 953 186 1071 188 1011 186 l 633 186 l 633 983 l 1083 983 z m 575 186 l 143 186 l 143 983 l 579 983 l 579 778 l 389 778 l 389 390 l 575 390 z "},"ㄹ":{"ha":1250,"x_min":0,"x_max":0,"o":"m 142 686 l 843 686 l 843 790 l 147 790 l 147 994 l 1089 994 l 1089 482 l 388 482 l 388 378 l 1107 378 l 1107 174 l 142 174 z "},"ㄺ":{"ha":1250,"x_min":0,"x_max":0,"o":"m 861 174 b 871 783 867 335 871 660 l 674 783 l 674 994 l 1121 994 b 1107 174 1121 711 1117 379 z m 129 686 l 378 686 l 378 790 l 135 790 l 135 994 l 614 994 l 614 482 l 365 482 l 365 378 l 632 378 l 632 174 l 129 174 z "},"ㄻ":{"ha":1250,"x_min":0,"x_max":0,"o":"m 1131 174 l 639 174 l 639 994 l 1131 994 z m 922 378 l 922 790 l 847 790 l 847 378 z m 119 686 l 336 686 l 336 790 l 126 790 l 126 994 l 572 994 l 572 482 l 357 482 l 357 378 l 590 378 l 590 174 l 119 174 z "},"ㄼ":{"ha":1250,"x_min":0,"x_max":0,"o":"m 929 994 l 1138 994 l 1138 174 l 640 174 l 640 994 l 849 994 l 849 772 l 929 772 z m 849 569 l 849 378 l 929 378 l 929 569 z m 114 686 l 336 686 l 336 790 l 119 790 l 119 994 l 572 994 l 572 482 l 350 482 l 350 378 l 590 378 l 590 174 l 114 174 z "},"ㄽ":{"ha":1250,"x_min":0,"x_max":0,"o":"m 107 683 l 339 683 l 339 788 l 113 788 l 113 993 l 572 993 l 572 482 l 340 482 l 340 376 l 599 376 l 599 386 b 724 999 690 529 731 707 l 964 999 b 938 636 965 864 957 744 b 1143 257 1013 524 1086 400 l 964 133 b 856 365 919 242 883 318 b 711 125 831 301 782 214 l 599 200 l 599 171 l 107 171 z "},"ㄾ":{"ha":1250,"x_min":0,"x_max":0,"o":"m 985 378 b 1140 382 1028 378 1072 376 l 1140 188 b 938 174 1082 174 993 174 l 628 174 l 628 994 l 1121 994 l 1121 790 l 872 790 l 872 686 l 1110 686 l 1110 482 l 872 482 l 872 378 z m 110 686 l 333 686 l 333 790 l 115 790 l 115 994 l 569 994 l 569 482 l 346 482 l 346 378 l 588 378 l 588 174 l 110 174 z "},"ㄿ":{"ha":1250,"x_min":0,"x_max":0,"o":"m 892 378 l 892 790 l 846 790 l 846 378 z m 656 790 l 610 790 l 610 994 l 1138 994 l 1138 790 l 1082 790 l 1082 378 l 1138 378 l 1138 174 l 610 174 l 610 378 l 656 378 z m 114 686 l 308 686 l 308 790 l 119 790 l 119 994 l 540 994 l 540 482 l 347 482 l 347 378 l 561 378 l 561 174 l 114 174 z "},"ㅀ":{"ha":1250,"x_min":0,"x_max":0,"o":"m 1139 725 l 604 725 l 604 917 l 754 917 l 754 1019 l 988 1019 l 988 917 l 1139 917 z m 869 150 b 611 426 682 150 611 265 b 869 701 611 579 676 701 b 1132 426 1068 701 1132 579 b 869 150 1132 265 1058 150 z m 869 329 b 929 426 908 329 929 358 b 869 525 929 499 908 525 b 811 426 832 525 811 499 b 869 329 811 358 832 329 z m 111 686 l 326 686 l 326 790 l 117 790 l 117 994 l 560 994 l 560 482 l 344 482 l 344 378 l 579 378 l 579 174 l 111 174 z "},"ㅁ":{"ha":1250,"x_min":0,"x_max":0,"o":"m 1082 186 l 167 186 l 167 983 l 1082 983 z m 836 390 l 836 778 l 414 778 l 414 390 z "},"ㅂ":{"ha":1250,"x_min":0,"x_max":0,"o":"m 836 989 l 1082 989 l 1082 179 l 167 179 l 167 989 l 414 989 l 414 772 l 836 772 z m 414 569 l 414 385 l 836 385 l 836 569 z "},"ㅃ":{"ha":1250,"x_min":0,"x_max":0,"o":"m 386 989 l 593 989 l 593 179 l 118 179 l 118 989 l 328 989 l 328 760 l 386 760 z m 328 576 l 328 365 l 386 365 l 386 576 z m 922 576 l 863 576 l 863 365 l 922 365 z m 863 760 l 922 760 l 922 989 l 1131 989 l 1131 179 l 656 179 l 656 989 l 863 989 z "},"ㅄ":{"ha":1250,"x_min":0,"x_max":0,"o":"m 397 993 l 613 993 l 613 424 b 725 993 688 554 732 718 l 967 993 b 936 632 967 856 958 740 b 1150 242 1013 517 1092 388 l 965 128 b 851 374 919 242 882 322 b 697 131 821 308 768 224 l 613 185 l 613 171 l 101 171 l 101 993 l 317 993 l 317 757 l 397 757 z m 317 571 l 317 357 l 397 357 l 397 571 z "},"ㅅ":{"ha":1250,"x_min":0,"x_max":0,"o":"m 110 324 b 514 994 378 525 503 700 l 774 994 b 725 679 772 874 756 772 b 1139 318 874 592 1039 454 l 964 139 b 625 472 867 276 736 400 b 258 140 547 354 424 246 z "},"ㅆ":{"ha":1250,"x_min":0,"x_max":0,"o":"m 90 281 b 301 988 264 522 303 685 l 544 988 b 524 679 544 869 539 768 b 643 554 576 633 622 582 b 707 988 690 667 715 813 l 949 988 b 915 629 949 850 939 733 b 1160 282 1008 533 1099 407 l 993 150 b 842 401 936 263 883 349 b 654 113 806 313 743 214 l 454 238 b 536 349 485 276 511 313 b 458 440 510 383 476 422 b 278 149 425 354 367 254 z "},"ㅇ":{"ha":1250,"x_min":0,"x_max":0,"o":"m 625 358 b 847 585 750 358 847 450 b 625 811 847 717 760 811 b 403 585 490 811 403 717 b 625 358 403 450 500 358 z m 625 147 b 154 581 314 147 154 349 b 625 1022 154 789 306 1022 b 1096 581 944 1022 1096 789 b 625 147 1096 349 936 147 z "},"ㅈ":{"ha":1250,"x_min":0,"x_max":0,"o":"m 1050 979 l 1050 915 b 863 536 1040 799 990 672 b 1139 292 957 469 1053 388 l 976 121 b 690 368 863 235 785 303 b 225 125 586 289 417 197 l 111 331 b 746 768 440 467 665 647 l 182 768 l 182 979 z "},"ㅉ":{"ha":1250,"x_min":0,"x_max":0,"o":"m 85 300 b 367 768 256 449 346 594 l 171 768 l 171 979 l 607 979 l 607 919 b 567 617 607 810 593 708 b 690 490 619 571 664 522 b 800 768 751 574 793 678 l 650 768 l 650 979 l 1058 979 l 1058 900 b 971 529 1056 790 1026 657 b 1165 274 1033 468 1101 382 l 982 133 b 857 325 936 221 888 285 b 644 111 814 258 743 182 l 486 263 b 549 321 508 285 529 304 b 476 403 522 353 492 388 b 257 150 432 322 361 238 z "},"ㅊ":{"ha":1250,"x_min":0,"x_max":0,"o":"m 490 876 l 490 1018 l 746 1018 l 746 876 l 1051 876 l 1051 810 b 854 458 1042 704 986 579 b 1144 268 947 417 1056 343 l 1000 83 b 675 303 889 182 783 253 b 211 96 553 232 408 156 l 106 297 b 761 672 451 419 703 582 l 183 672 l 183 876 z "},"ㅋ":{"ha":1250,"x_min":0,"x_max":0,"o":"m 832 172 b 840 389 835 232 839 310 l 172 389 l 172 600 l 844 600 b 846 768 846 667 846 726 l 154 768 l 154 982 l 1094 982 b 1079 172 1094 699 1092 372 z "},"ㅌ":{"ha":1250,"x_min":0,"x_max":0,"o":"m 860 378 b 1106 394 956 378 1031 382 l 1106 199 b 865 174 1051 181 965 174 l 144 174 l 144 994 l 1086 994 l 1086 790 l 386 790 l 386 686 l 1074 686 l 1074 482 l 386 482 l 386 378 z "},"ㅍ":{"ha":1250,"x_min":0,"x_max":0,"o":"m 717 385 l 717 783 l 531 783 l 531 385 z m 290 783 l 147 783 l 147 989 l 1101 989 l 1101 783 l 957 783 l 957 385 l 1101 385 l 1101 179 l 147 179 l 147 385 l 290 385 z "},"ㅎ":{"ha":1250,"x_min":0,"x_max":0,"o":"m 1101 690 l 147 690 l 147 890 l 496 890 l 496 1018 l 753 1018 l 753 890 l 1101 890 z m 621 275 b 833 365 763 275 833 310 b 621 458 833 426 754 458 b 406 365 483 458 406 426 b 621 275 406 310 475 275 z m 621 89 b 160 365 303 89 160 213 b 621 642 160 519 301 642 b 1081 365 936 642 1081 519 b 621 89 1081 213 935 89 z "},"ㅏ":{"ha":1250,"x_min":0,"x_max":0,"o":"m 839 754 l 839 514 b 668 492 797 514 728 508 l 668 7 l 411 7 l 411 1125 l 668 1125 l 668 729 b 839 754 726 750 801 754 z "},"ㅐ":{"ha":1250,"x_min":0,"x_max":0,"o":"m 679 490 b 574 478 650 485 611 479 l 574 1 l 346 1 l 346 1125 l 574 1125 l 574 714 l 679 714 l 679 1125 l 906 1125 l 906 1 l 679 1 z "},"ㅑ":{"ha":1250,"x_min":0,"x_max":0,"o":"m 839 949 l 839 708 b 668 699 797 708 728 707 l 668 536 b 839 546 729 546 801 546 l 839 306 b 668 296 797 306 728 304 l 668 7 l 411 7 l 411 1125 l 668 1125 l 668 939 b 839 949 729 949 801 949 z "},"ㅒ":{"ha":1250,"x_min":0,"x_max":0,"o":"m 679 701 b 574 696 650 699 611 697 l 574 478 l 679 478 z m 574 936 l 679 936 l 679 1125 l 906 1125 l 906 1 l 679 1 l 679 242 b 574 238 649 240 611 239 l 574 1 l 346 1 l 346 1125 l 574 1125 z "},"ㅓ":{"ha":1250,"x_min":0,"x_max":0,"o":"m 643 513 b 424 499 589 504 503 500 l 365 499 l 365 721 l 643 721 l 643 1125 l 886 1125 l 886 6 l 643 6 z "},"ㅔ":{"ha":1250,"x_min":0,"x_max":0,"o":"m 457 6 l 457 483 b 244 474 392 476 272 474 l 244 703 l 457 703 l 457 1125 l 685 1125 l 685 6 z m 781 6 l 781 1125 l 1007 1125 l 1007 6 z "},"ㅕ":{"ha":1250,"x_min":0,"x_max":0,"o":"m 639 6 l 639 333 b 447 321 585 325 497 321 l 368 321 l 368 543 l 478 543 b 639 547 522 543 593 543 l 639 708 b 447 697 585 700 497 697 l 368 697 l 368 919 l 478 919 b 639 922 522 919 593 919 l 639 1125 l 882 1125 l 882 6 z "},"ㅖ":{"ha":1250,"x_min":0,"x_max":0,"o":"m 767 6 l 767 1125 l 993 1125 l 993 6 z m 443 6 l 443 314 b 258 307 385 307 282 307 l 258 529 l 443 529 l 443 707 b 258 703 379 697 282 703 l 258 925 l 443 925 l 443 1125 l 671 1125 l 671 6 z "},"ㅗ":{"ha":1250,"x_min":0,"x_max":0,"o":"m 50 215 l 50 438 l 499 438 l 499 739 l 750 739 l 750 438 l 1199 438 l 1199 215 z "},"ㅘ":{"ha":1250,"x_min":0,"x_max":0,"o":"m 4 338 l 247 338 l 247 588 l 504 588 l 504 338 l 593 338 b 819 363 690 338 785 344 l 819 1125 l 1076 1125 l 1076 704 b 1247 729 1121 719 1192 729 l 1247 500 b 1076 478 1207 500 1136 496 l 1076 7 l 819 7 l 819 175 b 568 136 775 149 685 136 l 4 136 z "},"ㅙ":{"ha":1250,"x_min":0,"x_max":0,"o":"m 1001 490 b 924 478 978 485 951 481 l 924 1 l 703 1 l 703 169 b 463 136 656 147 571 136 l 29 136 l 29 338 l 232 338 l 232 600 l 461 600 l 461 338 l 488 338 b 703 357 576 338 661 343 l 703 1125 l 924 1125 l 924 714 l 1001 714 l 1001 1125 l 1221 1125 l 1221 1 l 1001 1 z "},"ㅚ":{"ha":1250,"x_min":0,"x_max":0,"o":"m 89 338 l 332 338 l 332 588 l 589 588 l 589 338 l 678 338 b 904 363 775 338 869 344 l 904 1125 l 1161 1125 l 1161 7 l 904 7 l 904 175 b 653 136 860 149 769 136 l 89 136 z "},"ㅛ":{"ha":1250,"x_min":0,"x_max":0,"o":"m 50 215 l 50 438 l 256 438 l 256 739 l 499 739 l 499 438 l 749 438 l 749 739 l 992 739 l 992 438 l 1199 438 l 1199 215 z "},"ㅜ":{"ha":1250,"x_min":0,"x_max":0,"o":"m 483 103 l 483 393 l 50 393 l 50 615 l 1199 615 l 1199 393 l 751 393 l 751 103 z "},"ㅝ":{"ha":1250,"x_min":0,"x_max":0,"o":"m 696 113 l 696 317 l 765 317 b 931 333 817 317 882 321 l 931 436 b 669 411 882 417 771 411 l 569 411 l 569 6 l 310 6 l 310 411 l 76 411 l 76 626 l 660 626 b 931 649 786 626 882 631 l 931 1125 l 1174 1125 l 1174 6 l 931 6 l 931 133 b 763 113 892 114 819 113 z "},"ㅞ":{"ha":1250,"x_min":0,"x_max":0,"o":"m 22 626 l 443 626 b 714 649 569 626 674 628 l 714 1125 l 935 1125 l 935 6 l 714 6 l 714 126 b 529 115 671 115 557 115 l 529 326 l 638 329 b 714 338 658 329 697 333 l 714 438 b 467 411 669 419 568 411 l 432 411 l 432 6 l 179 6 l 179 411 l 22 411 z m 1010 6 l 1010 1125 l 1229 1125 l 1229 6 z "},"ㅟ":{"ha":1250,"x_min":0,"x_max":0,"o":"m 76 599 l 660 599 b 931 621 786 599 882 603 l 931 1125 l 1174 1125 l 1174 6 l 931 6 l 931 394 b 669 369 882 375 771 369 l 597 369 l 597 6 l 338 6 l 338 369 l 76 369 z "},"ㅠ":{"ha":1250,"x_min":0,"x_max":0,"o":"m 219 103 l 219 393 l 50 393 l 50 615 l 1199 615 l 1199 393 l 1015 393 l 1015 103 l 747 103 l 747 393 l 488 393 l 488 103 z "},"ㅡ":{"ha":1250,"x_min":0,"x_max":0,"o":"m 50 311 l 50 533 l 1199 533 l 1199 311 z "},"ㅢ":{"ha":1250,"x_min":0,"x_max":0,"o":"m 89 351 l 678 351 b 904 376 775 351 869 358 l 904 1125 l 1161 1125 l 1161 7 l 904 7 l 904 189 b 653 150 860 163 769 150 l 89 150 z "},"ㅣ":{"ha":1250,"x_min":0,"x_max":0,"o":"m 497 7 l 497 1125 l 754 1125 l 754 7 z "},"ㅥ":{"ha":1250,"x_min":0,"x_max":0,"o":"m 382 983 l 382 397 l 429 397 b 593 403 478 397 508 399 l 593 201 b 389 186 542 188 486 186 l 136 186 l 136 983 z m 894 983 l 894 397 l 949 397 b 1114 403 1004 397 1024 399 l 1114 201 b 936 186 1061 188 1014 186 l 649 186 l 649 983 z "},"ㅦ":{"ha":1250,"x_min":0,"x_max":0,"o":"m 382 983 l 382 397 l 436 397 b 600 403 483 397 515 399 l 600 201 b 410 186 549 188 507 186 l 136 186 l 136 983 z m 1089 778 l 894 778 l 894 390 l 969 390 b 1114 401 1031 390 1067 392 l 1114 200 b 957 186 1076 188 1017 186 l 649 186 l 649 983 l 1089 983 z "},"ㅧ":{"ha":1250,"x_min":0,"x_max":0,"o":"m 356 981 l 356 396 l 424 396 b 557 400 471 396 504 396 b 700 988 651 564 706 718 l 942 988 b 917 656 942 861 933 753 b 1142 261 997 540 1083 407 l 956 147 b 832 389 911 261 863 336 b 660 136 803 319 738 236 l 575 193 l 575 194 b 411 185 538 186 508 185 l 108 185 l 108 981 z "},"ㅨ":{"ha":1250,"x_min":0,"x_max":0,"o":"m 776 367 l 889 367 l 833 586 z m 119 185 l 119 981 l 367 981 l 367 396 l 435 396 b 593 397 469 396 539 396 l 796 997 l 867 997 l 1146 185 z "},"ㅩ":{"ha":1250,"x_min":0,"x_max":0,"o":"m 551 171 b 563 794 558 333 563 669 l 465 794 l 465 993 l 767 993 b 763 443 767 788 765 560 b 831 992 810 563 829 738 l 1046 992 b 1025 681 1046 879 1039 778 b 1181 215 1082 546 1139 393 l 1003 135 b 944 350 978 240 956 318 b 857 149 932 310 899 232 l 756 192 l 756 171 z m 71 676 l 242 676 l 242 801 l 78 801 l 78 993 l 444 993 l 444 488 l 274 488 l 274 364 l 475 364 l 475 171 l 71 171 z "},"ㅪ":{"ha":1250,"x_min":0,"x_max":0,"o":"m 982 378 b 1136 382 1024 378 1068 376 l 1136 188 b 933 174 1078 174 989 174 l 651 174 l 651 994 l 1117 994 l 1117 790 l 892 790 l 892 378 z m 114 686 l 351 686 l 351 790 l 119 790 l 119 994 l 586 994 l 586 482 l 347 482 l 347 378 l 604 378 l 604 174 l 114 174 z "},"ㅫ":{"ha":1250,"x_min":0,"x_max":0,"o":"m 810 426 b 864 993 849 535 867 726 l 1058 993 b 1040 664 1058 871 1053 764 b 1182 222 1093 535 1143 392 l 1026 140 b 975 340 1003 235 983 313 b 896 140 965 306 936 228 l 810 183 l 810 171 l 431 171 l 431 994 l 601 994 l 601 757 l 639 757 l 639 994 l 810 994 z m 601 567 l 601 364 l 639 364 l 639 567 z m 69 678 l 189 678 l 189 801 l 76 801 l 76 994 l 386 994 l 386 488 l 265 488 l 265 364 l 393 364 l 393 171 l 69 171 z "},"ㅬ":{"ha":1250,"x_min":0,"x_max":0,"o":"m 797 354 l 861 354 l 829 490 z m 125 686 l 364 686 l 364 790 l 132 790 l 132 994 l 599 994 l 599 482 l 360 482 l 360 378 l 600 378 l 792 994 l 864 994 l 1126 174 l 125 174 z "},"ㅭ":{"ha":1250,"x_min":0,"x_max":0,"o":"m 1139 776 l 604 776 l 604 969 l 1139 969 z m 869 147 b 611 438 682 147 611 276 b 869 738 611 588 676 738 b 1132 438 1068 738 1132 588 b 869 147 1132 276 1058 147 z m 869 328 b 929 443 908 328 929 375 b 869 561 929 517 908 561 b 811 443 832 561 811 517 b 869 328 811 375 832 328 z m 111 683 l 313 683 l 313 789 l 117 789 l 117 994 l 546 994 l 546 482 l 344 482 l 344 376 l 565 376 l 565 172 l 111 172 z "},"ㅮ":{"ha":1250,"x_min":0,"x_max":0,"o":"m 925 989 l 1135 989 l 1135 179 l 661 179 l 661 989 l 871 989 l 871 772 l 925 772 z m 871 569 l 871 385 l 925 385 l 925 569 z m 326 783 l 326 385 l 381 385 l 381 783 z m 590 989 l 590 179 l 117 179 l 117 989 z "},"ㅯ":{"ha":1250,"x_min":0,"x_max":0,"o":"m 593 406 b 715 988 661 528 722 704 l 956 988 b 931 643 957 860 949 747 b 1144 254 1014 521 1083 410 l 947 143 b 843 360 913 242 868 317 b 707 136 818 299 768 217 l 593 207 l 593 178 l 107 178 l 107 988 l 593 988 z m 315 782 l 315 382 l 383 382 l 383 782 z "},"ㅰ":{"ha":1250,"x_min":0,"x_max":0,"o":"m 804 361 l 867 361 l 836 532 z m 328 783 l 328 385 l 396 385 l 396 783 z m 118 181 l 118 989 l 604 989 l 604 407 l 799 994 l 871 994 l 1133 181 z "},"ㅱ":{"ha":1250,"x_min":0,"x_max":0,"o":"m 1083 581 l 168 581 l 168 1017 l 1083 1017 z m 836 768 l 836 831 l 414 831 l 414 768 z m 625 272 b 858 317 818 272 858 282 b 625 361 858 344 818 361 b 392 317 432 361 392 344 b 625 272 392 282 432 272 z m 625 90 b 151 317 279 90 151 175 b 625 543 151 457 281 543 b 1099 317 969 543 1099 457 b 625 90 1099 175 971 90 z "},"ㅲ":{"ha":1250,"x_min":0,"x_max":0,"o":"m 415 989 l 632 989 l 632 179 l 126 179 l 126 989 l 342 989 l 342 760 l 415 760 z m 342 576 l 342 365 l 415 365 l 415 576 z m 863 179 b 878 778 875 336 878 653 l 678 778 l 678 989 l 1124 989 b 1107 179 1124 706 1121 379 z "},"ㅳ":{"ha":1250,"x_min":0,"x_max":0,"o":"m 406 989 l 622 989 l 622 179 l 124 179 l 124 989 l 338 989 l 338 760 l 406 760 z m 338 576 l 338 365 l 406 365 l 406 576 z m 1103 783 l 921 783 l 921 385 l 983 385 b 1128 394 1046 385 1081 386 l 1128 193 b 972 179 1089 182 1031 179 l 679 179 l 679 989 l 1103 989 z "},"ㅴ":{"ha":1250,"x_min":0,"x_max":0,"o":"m 324 993 l 526 993 l 526 479 b 588 993 561 571 593 747 l 796 993 b 776 657 796 867 792 757 b 949 197 851 515 900 363 l 768 131 b 703 350 740 231 717 313 b 599 129 686 300 646 217 l 508 171 l 79 171 l 79 993 l 282 993 l 282 757 l 324 757 z m 282 571 l 282 357 l 324 357 l 324 571 z m 951 171 b 963 794 958 333 963 669 l 840 794 l 840 993 l 1169 993 b 1158 171 1169 710 1167 378 z "},"ㅵ":{"ha":1250,"x_min":0,"x_max":0,"o":"m 319 994 l 515 994 l 515 476 b 568 994 550 572 575 749 l 772 994 b 751 664 772 869 765 763 b 836 469 796 571 832 483 l 836 994 l 1165 994 l 1165 794 l 1039 794 l 1039 371 l 1040 371 b 1171 381 1096 371 1125 372 l 1171 186 b 1024 172 1132 174 1079 172 l 854 172 l 744 143 b 678 369 721 243 696 326 b 575 144 660 318 625 235 l 496 172 l 81 172 l 81 994 l 276 994 l 276 758 l 319 758 z m 276 571 l 276 358 l 319 358 l 319 571 z "},"ㅶ":{"ha":1250,"x_min":0,"x_max":0,"o":"m 394 988 l 610 988 l 610 347 b 839 782 717 450 821 621 l 660 782 l 660 988 l 1063 988 l 1063 924 b 989 531 1063 763 1035 636 b 1153 271 1049 454 1108 360 l 992 143 b 878 331 944 226 907 292 b 707 144 844 276 790 208 l 610 244 l 610 178 l 99 178 l 99 988 l 315 988 l 315 757 l 394 757 z m 315 571 l 315 364 l 394 364 l 394 571 z "},"ㅷ":{"ha":1250,"x_min":0,"x_max":0,"o":"m 397 989 l 614 989 l 614 179 l 115 179 l 115 989 l 329 989 l 329 760 l 397 760 z m 329 576 l 329 365 l 397 365 l 397 576 z m 1108 790 l 919 790 l 919 683 l 1103 683 l 1103 486 l 919 486 l 919 378 l 989 378 b 1133 389 1051 378 1086 379 l 1133 193 b 978 179 1094 182 1036 179 l 685 179 l 685 989 l 1108 989 z "},"ㅸ":{"ha":1250,"x_min":0,"x_max":0,"o":"m 625 261 b 858 304 818 261 858 268 b 625 349 858 332 818 349 b 392 304 432 349 392 332 b 625 261 392 268 432 261 z m 625 90 b 151 304 279 90 151 161 b 625 532 151 446 281 532 b 1099 304 969 532 1099 446 b 625 90 1099 161 971 90 z m 843 1024 l 1083 1024 l 1083 563 l 168 563 l 168 1024 l 410 1024 l 410 963 l 843 963 z m 410 790 l 410 743 l 843 743 l 843 790 z "},"ㅹ":{"ha":1250,"x_min":0,"x_max":0,"o":"m 625 261 b 863 304 817 261 863 268 b 625 349 863 332 817 349 b 385 304 431 349 385 332 b 625 261 385 268 431 261 z m 625 90 b 143 304 281 90 143 161 b 625 532 143 446 279 532 b 1104 304 968 532 1104 446 b 625 90 1104 161 967 90 z m 392 1024 l 593 1024 l 593 563 l 122 563 l 122 1024 l 325 1024 l 325 957 l 392 957 z m 325 796 l 325 731 l 392 731 l 392 796 z m 925 796 l 857 796 l 857 731 l 925 731 z m 857 957 l 925 957 l 925 1024 l 1128 1024 l 1128 563 l 656 563 l 656 1024 l 857 1024 z "},"ㅺ":{"ha":1250,"x_min":0,"x_max":0,"o":"m 863 185 b 878 769 875 340 878 643 l 647 769 l 647 981 l 1117 981 b 1101 185 1117 696 1114 383 z m 132 261 b 340 986 279 483 336 643 l 589 986 b 558 657 586 861 576 754 b 775 260 635 540 717 407 l 588 149 b 478 383 543 254 506 333 b 338 135 451 319 404 232 z "},"ㅻ":{"ha":1250,"x_min":0,"x_max":0,"o":"m 929 988 l 929 396 l 988 396 b 1150 400 1035 396 1068 396 l 1150 199 b 972 185 1099 186 1069 185 l 683 185 l 683 210 l 507 135 b 435 363 483 242 456 321 b 311 138 414 308 371 224 l 99 246 b 296 986 247 496 294 665 l 543 986 b 519 683 540 871 533 774 b 683 324 586 556 643 464 l 683 988 z "},"ㅼ":{"ha":1250,"x_min":0,"x_max":0,"o":"m 113 246 b 310 986 261 496 308 665 l 557 986 b 533 683 554 871 547 774 b 686 381 610 538 672 439 l 686 988 l 1111 988 l 1111 782 l 932 782 l 932 389 l 992 389 b 1136 399 1053 389 1089 390 l 1136 197 b 979 185 1099 186 1039 185 l 686 185 l 686 207 l 519 135 b 449 363 496 242 468 321 b 325 138 428 308 386 224 z "},"ㅽ":{"ha":1250,"x_min":0,"x_max":0,"o":"m 104 246 b 294 986 251 496 293 665 l 536 986 b 513 672 533 867 526 765 b 654 369 588 538 638 431 l 654 988 l 869 988 l 869 757 l 932 757 l 932 988 l 1146 988 l 1146 178 l 654 178 l 654 204 l 499 135 b 428 351 472 236 444 314 b 310 135 410 301 368 221 z m 932 571 l 869 571 l 869 364 l 932 364 z "},"ㅾ":{"ha":1250,"x_min":0,"x_max":0,"o":"m 90 246 b 282 986 239 496 281 665 l 524 986 b 500 672 521 867 514 765 b 639 367 564 560 610 465 b 828 782 738 483 811 639 l 640 782 l 640 988 l 1050 988 l 1050 924 b 1001 578 1050 792 1031 676 b 1160 247 1056 489 1114 371 l 972 146 b 899 344 943 238 915 308 b 735 144 869 290 818 219 l 656 210 l 488 135 b 415 353 460 236 433 314 b 297 135 396 301 357 221 z "},"ㅿ":{"ha":1250,"x_min":0,"x_max":0,"o":"m 158 189 l 626 1075 l 1093 189 z m 468 358 l 783 358 l 626 657 z "},"ㆀ":{"ha":1250,"x_min":0,"x_max":0,"o":"m 344 346 b 399 585 381 346 399 408 b 344 824 399 751 385 824 b 283 585 304 824 283 751 b 344 346 283 408 307 346 z m 344 147 b 83 581 176 147 83 264 b 344 1022 83 901 165 1022 b 606 581 524 1022 606 901 b 344 147 606 264 513 147 z m 906 346 b 960 585 942 346 960 408 b 906 824 960 751 946 824 b 851 585 865 824 851 751 b 906 346 851 408 869 346 z m 892 147 b 644 581 725 147 644 264 b 906 1022 644 901 726 1022 b 1167 581 1085 1022 1167 901 b 892 147 1167 264 1060 147 z "},"ㆁ":{"ha":1250,"x_min":0,"x_max":0,"o":"m 625 135 b 154 524 317 135 154 293 b 496 910 154 704 268 869 l 496 1046 l 753 1046 l 753 910 b 1096 524 981 869 1096 704 b 625 135 1096 293 933 135 z m 625 346 b 847 531 750 346 846 404 b 625 711 846 646 760 711 b 403 531 490 711 404 646 b 625 346 404 404 500 346 z "},"ㆂ":{"ha":1250,"x_min":0,"x_max":0,"o":"m 353 150 b 93 526 178 150 93 258 b 242 896 93 746 142 858 l 242 1046 l 464 1046 l 464 897 b 613 526 565 861 613 747 b 610 381 613 432 603 360 b 738 1001 699 504 744 689 l 978 1001 b 950 639 979 865 971 747 b 1158 260 1026 526 1100 403 l 976 136 b 869 368 935 243 897 321 b 728 126 844 304 794 217 l 553 242 b 353 150 519 183 447 150 z m 353 329 b 404 533 383 329 404 365 b 353 735 404 693 382 735 b 303 533 325 735 303 693 b 353 329 303 365 322 329 z "},"ㆃ":{"ha":1250,"x_min":0,"x_max":0,"o":"m 364 150 b 104 526 189 150 104 258 b 253 897 104 747 153 860 l 253 1047 l 474 1047 l 474 899 b 624 526 576 863 624 749 b 364 150 624 258 539 150 z m 364 331 b 414 533 394 331 414 365 b 364 736 414 694 392 736 b 314 533 336 736 314 694 b 364 331 314 365 333 331 z m 829 356 l 892 356 l 861 517 z m 894 997 l 1146 174 l 578 174 l 824 997 z "},"ㆄ":{"ha":1250,"x_min":0,"x_max":0,"o":"m 729 749 l 729 838 l 518 838 l 518 749 z m 278 838 l 147 838 l 147 1024 l 1101 1024 l 1101 838 l 969 838 l 969 749 l 1101 749 l 1101 563 l 147 563 l 147 749 l 278 749 z m 625 261 b 857 304 817 261 857 268 b 625 349 857 332 817 349 b 390 304 431 349 390 332 b 625 261 390 268 431 261 z m 625 90 b 150 304 278 90 150 161 b 625 532 150 446 279 532 b 1097 304 968 532 1097 446 b 625 90 1097 161 969 90 z "},"ㆅ":{"ha":1250,"x_min":0,"x_max":0,"o":"m 1154 775 l 656 775 l 656 967 l 1154 967 z m 897 147 b 650 435 710 147 650 275 b 897 738 650 585 704 738 b 1146 435 1097 738 1146 585 b 897 147 1146 275 1086 147 z m 897 326 b 944 442 933 326 944 374 b 897 556 944 514 933 556 b 851 442 863 556 851 514 b 897 326 851 374 863 326 z m 594 775 l 96 775 l 96 967 l 594 967 z m 353 147 b 104 435 164 147 104 275 b 353 738 104 585 158 738 b 600 435 550 738 600 585 b 353 147 600 275 540 147 z m 353 326 b 399 442 388 326 399 374 b 353 556 399 514 388 556 b 306 442 317 556 306 514 b 353 326 306 374 317 326 z "},"ㆆ":{"ha":1250,"x_min":0,"x_max":0,"o":"m 1101 768 l 147 768 l 147 967 l 1101 967 z m 621 338 b 833 447 785 338 833 382 b 621 563 833 514 783 563 b 404 447 454 563 404 514 b 621 338 404 382 453 338 z m 621 147 b 158 447 282 147 158 282 b 621 728 158 608 283 728 b 1081 447 954 728 1081 608 b 621 147 1081 282 956 147 z "},"ㆇ":{"ha":1250,"x_min":0,"x_max":0,"o":"m 4 338 l 94 338 l 94 657 l 331 657 l 331 338 l 432 338 l 432 657 l 668 657 l 668 339 b 819 363 735 342 793 349 l 819 1125 l 1076 1125 l 1076 910 b 1247 919 1131 919 1192 919 l 1247 690 b 1076 685 1207 690 1140 690 l 1076 507 b 1247 517 1136 515 1190 517 l 1247 288 b 1076 282 1206 288 1150 289 l 1076 7 l 819 7 l 819 175 b 568 136 775 149 685 136 l 4 136 z "},"ㆈ":{"ha":1250,"x_min":0,"x_max":0,"o":"m 1001 694 b 924 689 978 690 951 690 l 924 456 l 1001 456 z m 924 915 l 1001 915 l 1001 1125 l 1221 1125 l 1221 1 l 1001 1 l 1001 235 b 924 229 978 231 951 231 l 924 1 l 703 1 l 703 169 b 463 136 656 147 571 136 l 29 136 l 29 338 l 114 338 l 114 656 l 315 656 l 315 338 l 392 338 l 392 656 l 593 656 l 593 340 b 703 357 639 343 679 349 l 703 1125 l 924 1125 z "},"ㆉ":{"ha":1250,"x_min":0,"x_max":0,"o":"m 89 338 l 179 338 l 179 657 l 415 657 l 415 338 l 517 338 l 517 657 l 753 657 l 753 339 b 904 363 819 342 878 349 l 904 1125 l 1161 1125 l 1161 7 l 904 7 l 904 175 b 653 136 860 149 769 136 l 89 136 z "},"ㆊ":{"ha":1250,"x_min":0,"x_max":0,"o":"m 751 36 l 751 226 l 793 226 b 931 232 839 226 885 228 l 931 285 b 790 275 883 276 839 275 l 751 275 l 751 465 l 793 465 b 931 472 839 465 885 468 l 931 526 b 685 508 867 514 776 510 l 685 6 l 453 6 l 453 508 l 389 508 l 389 6 l 157 6 l 157 508 l 76 508 l 76 724 l 660 724 b 931 736 786 724 853 725 l 931 1125 l 1174 1125 l 1174 6 l 931 6 l 931 47 b 790 36 883 38 839 36 z "},"ㆋ":{"ha":1250,"x_min":0,"x_max":0,"o":"m 22 738 l 415 738 b 714 743 542 738 635 736 l 714 1121 l 935 1121 l 935 6 l 714 6 l 714 56 b 585 51 663 49 613 51 l 585 243 l 624 243 b 714 246 644 243 669 243 l 714 290 b 585 288 661 288 610 288 l 585 479 l 624 479 b 714 482 642 479 676 479 l 714 531 b 532 522 661 525 597 524 l 532 6 l 335 6 l 335 522 l 272 522 l 272 6 l 75 6 l 75 522 l 22 522 z m 1010 6 l 1010 1125 l 1229 1125 l 1229 6 z "},"ㆌ":{"ha":1250,"x_min":0,"x_max":0,"o":"m 76 696 l 660 696 b 931 708 786 696 853 697 l 931 1125 l 1174 1125 l 1174 6 l 931 6 l 931 499 b 782 483 889 490 838 486 l 782 6 l 550 6 l 550 481 l 417 481 l 417 6 l 185 6 l 185 481 l 76 481 z "},"ㆍ":{"ha":1250,"x_min":0,"x_max":0,"o":"m 625 451 b 482 588 543 451 482 500 b 625 724 482 669 551 724 b 768 588 699 724 768 669 b 625 451 768 500 707 451 z "},"ㆎ":{"ha":1250,"x_min":0,"x_max":0,"o":"m 713 7 l 713 1125 l 969 1125 l 969 7 z m 424 451 b 281 588 342 451 281 500 b 424 724 281 669 350 724 b 567 588 497 724 567 669 b 424 451 567 500 506 451 z "},"ⅰ":{"ha":1250,"x_min":0,"x_max":0,"o":"m 501 814 l 749 814 l 749 50 l 501 50 z m 749 894 l 501 894 l 501 1081 l 749 1081 z "},"ⅱ":{"ha":1250,"x_min":0,"x_max":0,"o":"m 303 814 l 543 814 l 543 50 l 303 50 z m 543 894 l 303 894 l 303 1081 l 543 1081 z m 706 814 l 946 814 l 946 50 l 706 50 z m 946 894 l 706 894 l 706 1081 l 946 1081 z "},"ⅲ":{"ha":1250,"x_min":0,"x_max":0,"o":"m 189 814 l 415 814 l 415 50 l 189 50 z m 415 894 l 189 894 l 189 1081 l 415 1081 z m 515 814 l 742 814 l 742 50 l 515 50 z m 742 894 l 515 894 l 515 1081 l 742 1081 z m 835 814 l 1061 814 l 1061 50 l 835 50 z m 1061 894 l 835 894 l 835 1081 l 1061 1081 z "},"ⅳ":{"ha":1250,"x_min":0,"x_max":0,"o":"m 385 894 l 144 894 l 144 1081 l 385 1081 z m 579 814 l 710 381 l 847 814 l 1106 814 l 813 50 l 601 50 l 385 636 l 385 50 l 144 50 l 144 814 z "},"ⅴ":{"ha":1250,"x_min":0,"x_max":0,"o":"m 228 814 l 488 814 l 625 381 l 763 814 l 1021 814 l 728 50 l 517 50 z "},"ⅵ":{"ha":1250,"x_min":0,"x_max":0,"o":"m 865 894 l 865 1081 l 1106 1081 l 1106 894 z m 1106 814 l 1106 50 l 865 50 l 865 636 l 649 50 l 438 50 l 144 814 l 403 814 l 540 381 l 671 814 z "},"ⅶ":{"ha":1250,"x_min":0,"x_max":0,"o":"m 650 894 l 650 1081 l 856 1081 l 856 894 z m 1140 814 l 1140 50 l 935 50 l 935 814 z m 935 894 l 935 1081 l 1140 1081 l 1140 894 z m 856 814 l 856 50 l 650 50 l 650 600 l 517 50 l 306 50 l 110 814 l 326 814 l 408 381 l 483 814 z "},"ⅷ":{"ha":1250,"x_min":0,"x_max":0,"o":"m 511 894 l 511 1081 l 690 1081 l 690 894 z m 928 814 l 928 50 l 750 50 l 750 814 z m 750 894 l 750 1081 l 928 1081 l 928 894 z m 1161 814 l 1161 50 l 983 50 l 983 814 z m 983 894 l 983 1081 l 1161 1081 l 1161 894 z m 690 814 l 690 50 l 511 50 l 511 564 l 419 50 l 236 50 l 89 814 l 264 814 l 325 311 l 379 814 z "},"ⅸ":{"ha":1250,"x_min":0,"x_max":0,"o":"m 135 814 l 375 814 l 375 63 l 583 431 l 375 813 l 639 813 l 739 599 l 839 813 l 1096 813 l 881 431 l 1115 49 l 854 49 l 739 251 l 624 49 l 367 49 l 368 50 l 135 50 z m 375 894 l 135 894 l 135 1081 l 375 1081 z "},"ⅹ":{"ha":1250,"x_min":0,"x_max":0,"o":"m 218 814 l 496 814 l 624 600 l 751 814 l 1022 814 l 779 432 l 1042 50 l 767 50 l 624 253 l 481 50 l 210 50 l 468 432 z "},"Ⅰ":{"ha":1250,"x_min":0,"x_max":0,"o":"m 501 1081 l 749 1081 l 749 50 l 501 50 z "},"Ⅱ":{"ha":1250,"x_min":0,"x_max":0,"o":"m 271 1081 l 511 1081 l 511 50 l 271 50 z m 738 1079 l 978 1079 l 978 49 l 738 49 z "},"Ⅲ":{"ha":1250,"x_min":0,"x_max":0,"o":"m 185 1081 l 418 1081 l 418 50 l 185 50 z m 506 1079 l 739 1079 l 739 49 l 506 49 z m 832 1079 l 1065 1079 l 1065 49 l 832 49 z "},"Ⅳ":{"ha":1250,"x_min":0,"x_max":0,"o":"m 528 1081 l 721 401 l 914 1081 l 1174 1081 l 847 50 l 594 50 l 311 944 l 311 50 l 71 50 l 71 1081 z "},"Ⅴ":{"ha":1250,"x_min":0,"x_max":0,"o":"m 499 50 l 165 1081 l 432 1081 l 625 401 l 818 1081 l 1085 1081 l 751 50 z "},"Ⅵ":{"ha":1250,"x_min":0,"x_max":0,"o":"m 1174 1081 l 1174 50 l 933 50 l 933 926 l 656 49 l 403 49 l 76 1079 l 336 1079 l 529 400 l 722 1079 l 933 1079 l 933 1081 z "},"Ⅶ":{"ha":1250,"x_min":0,"x_max":0,"o":"m 875 1081 l 875 50 l 663 50 l 663 736 l 538 49 l 285 49 l 97 1079 l 315 1079 l 411 358 l 507 1079 l 663 1079 l 663 1081 z m 1153 1081 l 1153 50 l 940 50 l 940 1081 z "},"Ⅷ":{"ha":1250,"x_min":0,"x_max":0,"o":"m 947 1081 l 947 50 l 763 50 l 763 1081 z m 1183 1081 l 1183 50 l 999 50 l 999 1081 z m 711 1081 l 711 50 l 526 50 l 526 799 l 415 50 l 218 50 l 65 1081 l 249 1081 l 317 360 l 385 1081 z "},"Ⅸ":{"ha":1250,"x_min":0,"x_max":0,"o":"m 310 85 l 561 565 l 310 1069 z m 590 1081 l 738 761 l 886 1081 l 1169 1081 l 897 565 l 1181 50 l 896 50 l 738 369 l 578 50 l 69 50 l 69 1081 z "},"Ⅹ":{"ha":1250,"x_min":0,"x_max":0,"o":"m 151 1081 l 444 1081 l 626 761 l 810 1081 l 1100 1081 l 793 565 l 1111 50 l 819 50 l 626 369 l 432 50 l 139 50 l 443 565 z "},"Α":{"ha":1250,"x_min":0,"x_max":0,"o":"m 1121 50 l 851 50 l 778 238 l 464 238 l 396 50 l 128 50 l 510 1081 l 728 1081 z m 624 779 l 531 460 l 711 460 z "},"Β":{"ha":1250,"x_min":0,"x_max":0,"o":"m 207 50 l 207 1081 l 621 1081 b 1004 836 881 1081 992 983 b 883 606 1017 750 971 643 b 1031 317 990 557 1043 435 b 672 50 1013 146 897 50 z m 449 863 l 449 693 l 665 693 b 763 779 726 697 763 728 b 657 863 763 829 725 863 z m 449 483 l 449 268 l 663 268 b 788 376 760 267 788 315 b 651 483 788 433 751 483 z "},"Γ":{"ha":1250,"x_min":0,"x_max":0,"o":"m 717 1081 b 969 1061 796 1081 908 1076 l 969 842 b 749 857 904 850 851 857 l 526 857 l 526 50 l 279 50 l 279 1081 z "},"Δ":{"ha":1250,"x_min":0,"x_max":0,"o":"m 474 246 l 775 246 l 624 704 z m 703 1081 l 1069 50 l 181 50 l 532 1081 z "},"Ε":{"ha":1250,"x_min":0,"x_max":0,"o":"m 1014 861 l 471 861 l 471 674 l 988 675 l 988 460 l 471 460 l 471 269 l 800 269 b 1021 285 901 269 956 276 l 1021 69 b 768 50 960 54 847 50 l 228 50 l 228 1081 l 1014 1081 z "},"Ζ":{"ha":1250,"x_min":0,"x_max":0,"o":"m 772 272 b 990 288 871 272 925 278 l 990 69 b 736 50 929 54 817 50 l 258 50 l 258 138 l 636 858 l 285 858 l 285 1081 l 974 1081 l 974 975 l 604 272 z "},"Η":{"ha":1250,"x_min":0,"x_max":0,"o":"m 201 1081 l 449 1081 l 449 692 l 801 692 l 801 1081 l 1049 1081 l 1049 50 l 801 50 l 801 469 l 449 469 l 449 50 l 201 50 z "},"Θ":{"ha":1250,"x_min":0,"x_max":0,"o":"m 625 24 b 101 564 313 24 103 210 b 625 1104 103 910 313 1104 b 1149 564 938 1104 1147 910 b 625 24 1147 210 938 24 z m 431 675 l 821 675 l 821 453 l 431 453 z m 625 232 b 919 564 803 232 919 346 b 625 896 919 779 799 896 b 331 564 451 896 331 779 b 625 232 331 346 447 232 z "},"Ι":{"ha":1250,"x_min":0,"x_max":0,"o":"m 501 1081 l 749 1081 l 749 50 l 501 50 z "},"Κ":{"ha":1250,"x_min":0,"x_max":0,"o":"m 442 258 l 442 50 l 199 50 l 199 1081 l 442 1081 l 442 621 l 771 1081 l 1040 1081 l 732 643 l 1051 50 l 788 50 l 572 435 z "},"Λ":{"ha":1250,"x_min":0,"x_max":0,"o":"m 624 779 l 396 50 l 128 50 l 510 1081 l 728 1081 l 1121 50 l 851 50 z "},"Μ":{"ha":1250,"x_min":0,"x_max":0,"o":"m 507 50 l 321 718 l 314 718 l 308 50 l 54 50 l 118 1081 l 403 1081 l 621 365 l 628 365 l 847 1081 l 1132 1081 l 1196 50 l 942 50 l 936 718 l 929 718 l 743 50 z "},"Ν":{"ha":1250,"x_min":0,"x_max":0,"o":"m 446 690 l 446 50 l 201 50 l 201 1081 l 442 1081 l 804 461 l 804 1081 l 1049 1081 l 1049 50 l 821 50 z "},"Ξ":{"ha":1250,"x_min":0,"x_max":0,"o":"m 203 815 l 203 1081 l 1046 1081 l 1046 815 l 824 815 l 824 886 l 425 886 l 425 815 z m 1046 413 l 1046 147 l 203 147 l 203 413 l 425 413 l 425 342 l 824 342 l 824 413 z m 265 710 l 983 710 l 983 515 l 265 515 z "},"Ο":{"ha":1250,"x_min":0,"x_max":0,"o":"m 622 24 b 131 564 311 24 131 231 b 622 1104 131 897 311 1104 b 1119 564 936 1104 1119 897 b 622 24 1119 231 936 24 z m 625 260 b 869 564 771 260 869 378 b 625 868 869 740 768 868 b 381 564 482 868 381 740 b 625 260 381 378 479 260 z "},"Π":{"ha":1250,"x_min":0,"x_max":0,"o":"m 217 50 l 217 1081 l 1032 1081 l 1032 50 l 803 50 l 803 872 l 446 872 l 446 50 z "},"Ρ":{"ha":1250,"x_min":0,"x_max":0,"o":"m 211 1081 l 604 1081 b 1039 718 886 1081 1039 947 b 632 364 1039 529 890 364 l 457 364 l 457 50 l 211 50 z m 457 585 l 643 585 b 799 724 749 585 799 656 b 646 858 799 799 744 858 l 457 858 z "},"Σ":{"ha":1250,"x_min":0,"x_max":0,"o":"m 569 565 l 208 1024 l 208 1081 l 1042 1081 l 1042 879 l 588 879 l 831 565 l 588 251 l 1042 251 l 1042 50 l 208 50 l 208 107 z "},"Τ":{"ha":1250,"x_min":0,"x_max":0,"o":"m 232 1081 l 1017 1081 l 1017 853 l 744 853 l 744 50 l 497 50 l 497 853 l 232 853 z "},"Υ":{"ha":1250,"x_min":0,"x_max":0,"o":"m 753 450 l 753 50 l 500 50 l 500 450 l 146 1081 l 432 1081 l 625 689 l 818 1081 l 1104 1081 z "},"Φ":{"ha":1250,"x_min":0,"x_max":0,"o":"m 507 169 b 129 578 267 201 129 335 b 507 985 129 799 267 949 l 507 1081 l 742 1081 l 742 985 b 1121 578 982 949 1121 800 b 742 169 1121 333 982 200 l 742 50 l 507 50 z m 742 390 b 892 578 835 415 892 472 b 742 763 892 676 833 738 z m 507 763 b 358 578 415 736 358 676 b 507 390 358 474 414 415 z "},"Χ":{"ha":1250,"x_min":0,"x_max":0,"o":"m 151 1081 l 451 1081 l 626 761 l 803 1081 l 1100 1081 l 800 565 l 1111 50 l 813 50 l 626 369 l 439 50 l 139 50 l 436 565 z "},"Ψ":{"ha":1250,"x_min":0,"x_max":0,"o":"m 507 1081 l 742 1081 l 742 599 b 846 751 821 622 846 674 l 846 1081 l 1079 1081 l 1079 717 b 742 361 1079 521 961 393 l 742 50 l 507 50 l 507 361 b 171 717 288 393 171 521 l 171 1081 l 404 1081 l 404 751 b 507 600 404 675 428 624 z "},"Ω":{"ha":1250,"x_min":0,"x_max":0,"o":"m 939 50 l 686 50 l 686 463 l 692 463 b 865 675 806 483 865 556 b 626 889 865 796 774 889 b 388 675 479 889 388 796 b 561 463 388 556 447 483 l 567 463 l 567 50 l 153 50 l 153 260 l 333 260 l 333 308 b 158 661 229 367 158 488 b 626 1104 158 903 314 1104 b 1094 661 939 1104 1094 903 b 919 308 1094 488 1024 367 l 919 260 l 975 260 b 1096 267 1001 260 1047 260 l 1096 61 b 939 50 1053 53 1010 50 z "},"α":{"ha":1250,"x_min":0,"x_max":0,"o":"m 543 253 b 704 376 625 253 688 292 b 707 414 706 382 707 408 b 549 617 707 544 638 617 b 394 436 474 621 394 561 b 543 253 394 315 458 253 z m 953 375 b 988 282 953 317 957 293 b 1061 293 1008 275 1025 276 l 1101 75 b 839 44 1021 29 908 26 b 719 124 786 58 740 86 b 514 40 683 72 594 40 b 154 436 311 40 147 165 b 524 829 163 710 335 838 b 713 744 604 825 671 789 l 713 814 l 953 814 z "},"β":{"ha":1250,"x_min":0,"x_max":0,"o":"m 217 -124 l 217 821 b 490 1101 217 981 314 1100 l 589 1101 b 958 853 813 1101 926 999 b 865 606 976 768 954 656 b 1013 303 972 557 1033 443 b 689 29 989 143 896 29 b 449 85 586 29 506 53 l 449 -124 z m 542 483 l 542 679 l 619 679 b 731 786 699 682 733 726 b 597 890 728 839 686 890 l 553 890 b 444 754 485 890 444 832 l 444 310 b 640 233 479 261 571 233 b 783 349 725 233 779 278 b 619 483 788 417 739 482 z "},"γ":{"ha":1250,"x_min":0,"x_max":0,"o":"m 228 814 l 488 814 b 625 381 556 668 592 563 b 763 814 689 524 731 663 l 1021 814 b 736 92 942 554 861 326 l 786 -122 l 535 -122 l 494 46 b 228 814 456 204 342 571 z "},"δ":{"ha":1250,"x_min":0,"x_max":0,"o":"m 622 251 b 800 419 715 251 800 297 b 622 588 800 536 715 588 b 450 419 532 588 450 536 b 622 251 450 297 532 251 z m 625 32 b 210 419 382 32 210 178 b 350 722 210 554 264 657 b 354 982 304 800 303 910 b 614 1113 414 1067 496 1106 b 924 1036 722 1119 874 1078 l 811 875 b 631 906 760 907 675 918 b 690 806 599 896 582 831 l 686 803 b 1040 419 885 781 1040 647 b 625 32 1040 178 868 32 z "},"ε":{"ha":1250,"x_min":0,"x_max":0,"o":"m 963 93 b 460 68 800 -1 561 3 b 429 451 318 153 286 371 b 431 756 356 515 351 665 b 942 783 535 869 753 885 l 876 597 b 650 629 774 660 681 653 b 653 565 629 615 631 582 b 769 546 676 556 681 546 l 825 546 l 825 350 l 763 350 b 631 328 669 350 657 340 b 635 243 600 308 603 263 b 879 267 663 219 786 228 z "},"ζ":{"ha":1250,"x_min":0,"x_max":0,"o":"m 704 32 b 458 100 599 38 511 61 b 353 476 360 172 318 289 b 574 872 368 563 442 731 l 365 872 l 365 1081 l 804 1081 l 868 892 b 710 743 810 856 760 808 b 575 472 639 649 593 567 b 633 269 558 386 579 307 b 892 222 683 235 781 210 l 931 182 b 892 -104 932 107 924 -6 l 683 -67 z "},"η":{"ha":1250,"x_min":0,"x_max":0,"o":"m 269 50 l 269 814 l 513 814 l 513 769 b 683 832 547 799 617 826 l 706 832 b 979 517 892 832 978 707 l 979 -124 l 736 -124 l 736 413 b 629 597 736 572 697 600 b 513 550 576 594 553 581 l 513 50 z "},"θ":{"ha":1250,"x_min":0,"x_max":0,"o":"m 464 675 l 786 675 b 625 896 779 846 718 896 b 464 675 531 896 471 846 z m 786 453 l 464 453 l 464 443 b 625 232 464 286 522 232 b 786 443 725 232 786 286 z m 625 24 b 240 564 353 24 240 190 b 625 1104 242 910 356 1104 b 1010 564 894 1104 1008 910 b 625 24 1010 190 897 24 z "},"ι":{"ha":1250,"x_min":0,"x_max":0,"o":"m 460 229 l 460 814 l 700 814 l 700 285 b 715 201 700 240 704 215 b 778 179 728 186 739 179 l 789 -22 b 563 -15 710 -46 624 -46 b 460 229 493 19 460 81 z "},"κ":{"ha":1250,"x_min":0,"x_max":0,"o":"m 481 281 l 481 50 l 239 50 l 239 813 l 481 813 l 481 590 l 689 814 l 975 814 l 700 519 l 1011 50 l 729 50 l 539 344 z "},"λ":{"ha":1250,"x_min":0,"x_max":0,"o":"m 1021 49 l 761 49 b 624 482 693 194 657 300 b 486 49 560 339 518 200 l 228 49 b 513 771 307 308 388 536 l 446 1021 l 697 1021 l 754 817 b 1021 49 793 658 907 292 z "},"μ":{"ha":1250,"x_min":0,"x_max":0,"o":"m 522 382 b 619 281 522 296 569 275 b 728 342 669 286 706 310 l 728 814 l 971 814 l 971 50 l 728 50 l 728 108 b 593 46 693 79 644 51 b 522 53 568 43 546 47 l 522 -122 l 279 -122 l 279 814 l 522 814 z "},"ν":{"ha":1250,"x_min":0,"x_max":0,"o":"m 494 50 b 228 814 456 208 342 571 l 488 814 b 625 381 556 668 592 563 b 763 814 689 524 731 663 l 1021 814 b 733 50 942 554 858 285 z "},"ξ":{"ha":1250,"x_min":0,"x_max":0,"o":"m 703 32 b 469 71 631 25 514 49 b 331 303 385 113 326 217 b 544 551 338 436 417 526 b 422 729 450 589 418 650 b 524 886 425 792 469 861 l 357 886 l 357 1081 l 796 1081 l 860 892 b 733 865 806 889 772 881 b 646 743 686 846 646 796 b 775 646 646 689 699 651 l 775 476 b 581 340 660 475 582 438 b 685 222 579 272 633 232 b 876 243 749 210 804 217 l 922 182 b 883 -104 915 81 904 -11 l 675 -67 z "},"ο":{"ha":1250,"x_min":0,"x_max":0,"o":"m 622 251 b 800 433 715 251 800 311 b 622 615 800 550 715 615 b 450 433 532 615 450 550 b 622 251 450 311 532 251 z m 625 32 b 210 433 382 32 210 192 b 625 835 210 685 397 835 b 1040 433 853 835 1040 685 b 625 32 1040 192 868 32 z "},"π":{"ha":1250,"x_min":0,"x_max":0,"o":"m 682 606 l 557 606 l 557 50 l 328 50 l 328 606 l 219 606 l 219 814 l 1017 814 l 1017 606 l 904 606 l 904 371 b 935 274 904 313 914 285 b 990 278 951 268 969 269 l 1031 71 b 806 57 969 33 875 31 b 682 299 717 90 682 172 z "},"ρ":{"ha":1250,"x_min":0,"x_max":0,"o":"m 619 251 b 789 433 704 242 789 293 b 631 614 789 561 707 614 b 469 411 538 614 469 535 b 619 251 469 331 522 263 z m 339 714 b 639 826 403 785 481 826 b 1022 426 842 826 1019 688 b 660 39 1026 157 865 39 b 461 111 588 39 496 67 l 461 -124 l 222 -124 l 222 299 b 339 714 222 503 250 615 z "},"σ":{"ha":1250,"x_min":0,"x_max":0,"o":"m 583 251 b 761 424 676 251 761 301 b 583 596 761 540 676 596 b 411 424 493 596 411 540 b 583 251 411 301 493 251 z m 586 32 b 171 424 343 32 171 182 b 586 814 171 675 358 814 l 1079 814 l 1079 600 l 922 600 b 1001 396 956 568 999 496 b 586 32 1001 171 829 32 z "},"τ":{"ha":1250,"x_min":0,"x_max":0,"o":"m 736 599 l 736 283 b 751 200 736 239 740 214 b 814 178 764 185 775 178 l 829 -24 b 603 -17 750 -47 664 -47 b 500 228 533 18 500 79 l 500 599 l 332 599 l 332 814 l 917 814 l 917 599 z "},"υ":{"ha":1250,"x_min":0,"x_max":0,"o":"m 625 21 b 271 375 407 21 271 132 l 271 814 l 507 814 l 507 419 b 624 250 507 303 544 250 b 732 479 704 250 736 308 b 693 814 729 589 715 689 l 928 814 b 965 340 958 688 978 526 b 625 21 951 139 829 21 z "},"φ":{"ha":1250,"x_min":0,"x_max":0,"o":"m 506 701 b 629 835 506 803 557 835 b 1086 433 906 835 1086 688 b 753 43 1086 218 951 82 l 753 -137 l 506 -137 l 506 42 b 172 378 311 75 192 192 b 211 664 163 472 174 575 l 443 601 b 413 419 417 550 404 482 b 506 282 422 349 457 300 z m 753 600 l 753 274 b 853 433 817 300 853 354 b 753 600 853 517 819 574 z "},"χ":{"ha":1250,"x_min":0,"x_max":0,"o":"m 210 814 l 488 814 l 622 513 l 757 814 l 1028 814 l 778 344 l 1047 -124 l 772 -124 l 622 165 l 472 -124 l 201 -124 l 467 344 z "},"ψ":{"ha":1250,"x_min":0,"x_max":0,"o":"m 517 813 l 732 813 l 732 263 b 815 390 790 282 815 325 l 815 813 l 1029 813 l 1029 339 b 732 39 1029 165 910 67 l 732 -122 l 517 -122 l 517 39 b 219 339 339 67 219 167 l 219 813 l 433 813 l 433 390 b 517 263 433 325 457 282 z "},"ω":{"ha":1250,"x_min":0,"x_max":0,"o":"m 624 136 b 208 169 532 -14 296 4 b 239 849 128 321 140 660 l 440 782 b 397 351 401 674 372 438 b 496 343 414 296 475 296 b 518 574 514 385 519 468 l 518 647 l 728 647 l 728 574 b 750 343 726 468 725 388 b 849 351 775 297 832 296 b 806 782 874 438 844 674 l 1007 849 b 1038 168 1106 660 1122 313 b 624 136 942 6 714 -15 z "},"─":{"ha":1250,"x_min":0,"x_max":0,"o":"m 0 596 l 1250 596 l 1250 401 l 0 401 z "},"│":{"ha":1250,"x_min":0,"x_max":0,"o":"m 528 1188 l 722 1188 l 722 -201 l 528 -201 z "},"┌":{"ha":1250,"x_min":0,"x_max":0,"o":"m 528 596 l 1250 596 l 1250 401 l 722 401 l 722 -201 l 528 -201 z "},"┐":{"ha":1250,"x_min":0,"x_max":0,"o":"m 722 596 l 722 -201 l 528 -201 l 528 401 l 0 401 l 0 596 z "},"┘":{"ha":1250,"x_min":0,"x_max":0,"o":"m 722 401 l 0 401 l 0 596 l 528 596 l 528 1188 l 722 1188 z "},"└":{"ha":1250,"x_min":0,"x_max":0,"o":"m 528 401 l 528 1188 l 722 1188 l 722 596 l 1250 596 l 1250 401 z "},"├":{"ha":1250,"x_min":0,"x_max":0,"o":"m 528 1188 l 722 1188 l 722 596 l 1250 596 l 1250 401 l 722 401 l 722 -201 l 528 -201 z "},"┬":{"ha":1250,"x_min":0,"x_max":0,"o":"m 722 401 l 722 -201 l 528 -201 l 528 401 l 0 401 l 0 596 l 1250 596 l 1250 401 z "},"┤":{"ha":1250,"x_min":0,"x_max":0,"o":"m 722 1188 l 722 -201 l 528 -201 l 528 401 l 0 401 l 0 596 l 528 596 l 528 1188 z "},"┴":{"ha":1250,"x_min":0,"x_max":0,"o":"m 722 596 l 1250 596 l 1250 401 l 0 401 l 0 596 l 528 596 l 528 1188 l 722 1188 z "},"┼":{"ha":1250,"x_min":0,"x_max":0,"o":"m 528 401 l 0 401 l 0 596 l 528 596 l 528 1188 l 722 1188 l 722 596 l 1250 596 l 1250 401 l 722 401 l 722 -201 l 528 -201 z "},"━":{"ha":1250,"x_min":0,"x_max":0,"o":"m 0 651 l 1250 651 l 1250 346 l 0 346 z "},"┃":{"ha":1250,"x_min":0,"x_max":0,"o":"m 472 1188 l 778 1188 l 778 -201 l 472 -201 z "},"┏":{"ha":1250,"x_min":0,"x_max":0,"o":"m 472 651 l 1250 651 l 1250 346 l 778 346 l 778 -201 l 472 -201 z "},"┓":{"ha":1250,"x_min":0,"x_max":0,"o":"m 778 651 l 778 -201 l 472 -201 l 472 346 l 0 346 l 0 651 z "},"┛":{"ha":1250,"x_min":0,"x_max":0,"o":"m 778 346 l 0 346 l 0 651 l 472 651 l 472 1188 l 778 1188 z "},"┗":{"ha":1250,"x_min":0,"x_max":0,"o":"m 472 346 l 472 1188 l 778 1188 l 778 651 l 1250 651 l 1250 346 z "},"┣":{"ha":1250,"x_min":0,"x_max":0,"o":"m 472 1188 l 778 1188 l 778 651 l 1250 651 l 1250 346 l 778 346 l 778 -201 l 472 -201 z "},"┳":{"ha":1250,"x_min":0,"x_max":0,"o":"m 778 346 l 778 -201 l 472 -201 l 472 346 l 0 346 l 0 651 l 1250 651 l 1250 346 z "},"┫":{"ha":1250,"x_min":0,"x_max":0,"o":"m 778 1188 l 778 -201 l 472 -201 l 472 346 l 0 346 l 0 651 l 472 651 l 472 1188 z "},"┻":{"ha":1250,"x_min":0,"x_max":0,"o":"m 778 651 l 1250 651 l 1250 346 l 0 346 l 0 651 l 472 651 l 472 1188 l 778 1188 z "},"╋":{"ha":1250,"x_min":0,"x_max":0,"o":"m 472 346 l 0 346 l 0 651 l 472 651 l 472 1188 l 778 1188 l 778 651 l 1250 651 l 1250 346 l 778 346 l 778 -201 l 472 -201 z "},"┠":{"ha":1250,"x_min":0,"x_max":0,"o":"m 472 1188 l 778 1188 l 778 596 l 1250 596 l 1250 401 l 778 401 l 778 -201 l 472 -201 z "},"┯":{"ha":1250,"x_min":0,"x_max":0,"o":"m 722 346 l 722 -201 l 528 -201 l 528 346 l 0 346 l 0 651 l 1250 651 l 1250 346 z "},"┨":{"ha":1250,"x_min":0,"x_max":0,"o":"m 472 401 l 0 401 l 0 596 l 472 596 l 472 1188 l 778 1188 l 778 -201 l 472 -201 z "},"┷":{"ha":1250,"x_min":0,"x_max":0,"o":"m 528 651 l 528 1188 l 722 1188 l 722 651 l 1250 651 l 1250 346 l 0 346 l 0 651 z "},"┿":{"ha":1250,"x_min":0,"x_max":0,"o":"m 528 346 l 0 346 l 0 651 l 528 651 l 528 1188 l 722 1188 l 722 651 l 1250 651 l 1250 346 l 722 346 l 722 -201 l 528 -201 z "},"┝":{"ha":1250,"x_min":0,"x_max":0,"o":"m 528 1188 l 722 1188 l 722 651 l 1250 651 l 1250 346 l 722 346 l 722 -201 l 528 -201 z "},"┰":{"ha":1250,"x_min":0,"x_max":0,"o":"m 1250 596 l 1250 401 l 778 401 l 778 -201 l 472 -201 l 472 401 l 0 401 l 0 596 z "},"┥":{"ha":1250,"x_min":0,"x_max":0,"o":"m 722 -201 l 528 -201 l 528 346 l 0 346 l 0 651 l 528 651 l 528 1188 l 722 1188 z "},"┸":{"ha":1250,"x_min":0,"x_max":0,"o":"m 1 401 l 1 596 l 472 596 l 472 1188 l 778 1188 l 778 596 l 1250 596 l 1250 401 z "},"╂":{"ha":1250,"x_min":0,"x_max":0,"o":"m 472 401 l 0 401 l 0 596 l 472 596 l 472 1188 l 778 1188 l 778 596 l 1250 596 l 1250 401 l 778 401 l 778 -201 l 472 -201 z "},"┒":{"ha":1250,"x_min":0,"x_max":0,"o":"m 778 596 l 778 -201 l 472 -201 l 472 401 l 0 401 l 0 596 z "},"┑":{"ha":1250,"x_min":0,"x_max":0,"o":"m 722 651 l 722 -201 l 528 -201 l 528 346 l 0 346 l 0 651 z "},"┚":{"ha":1250,"x_min":0,"x_max":0,"o":"m 778 401 l 0 401 l 0 596 l 472 596 l 472 1188 l 778 1188 z "},"┙":{"ha":1250,"x_min":0,"x_max":0,"o":"m 722 346 l 0 346 l 0 651 l 528 651 l 528 1188 l 722 1188 z "},"┖":{"ha":1250,"x_min":0,"x_max":0,"o":"m 472 401 l 472 1188 l 778 1188 l 778 596 l 1250 596 l 1250 401 z "},"┕":{"ha":1250,"x_min":0,"x_max":0,"o":"m 528 346 l 528 1188 l 722 1188 l 722 651 l 1250 651 l 1250 346 z "},"┎":{"ha":1250,"x_min":0,"x_max":0,"o":"m 472 596 l 1250 596 l 1250 401 l 778 401 l 778 -201 l 472 -201 z "},"┍":{"ha":1250,"x_min":0,"x_max":0,"o":"m 528 651 l 1250 651 l 1250 346 l 722 346 l 722 -201 l 528 -201 z "},"┞":{"ha":1250,"x_min":0,"x_max":0,"o":"m 472 1188 l 778 1188 l 778 596 l 1250 596 l 1250 401 l 722 401 l 722 -201 l 528 -201 l 528 429 l 472 429 z "},"┟":{"ha":1250,"x_min":0,"x_max":0,"o":"m 472 -201 l 472 568 l 528 568 l 528 1188 l 722 1188 l 722 596 l 1250 596 l 1250 401 l 778 401 l 778 -201 z "},"┡":{"ha":1250,"x_min":0,"x_max":0,"o":"m 472 1188 l 778 1188 l 778 624 l 1250 624 l 1250 374 l 722 374 l 722 -201 l 528 -201 l 528 429 l 472 429 z "},"┢":{"ha":1250,"x_min":0,"x_max":0,"o":"m 472 -201 l 472 568 l 528 568 l 528 1188 l 722 1188 l 722 624 l 1250 624 l 1250 374 l 778 374 l 778 -201 z "},"┦":{"ha":1250,"x_min":0,"x_max":0,"o":"m 778 1188 l 778 429 l 722 429 l 722 -201 l 528 -201 l 528 401 l 0 401 l 0 596 l 472 596 l 472 1188 z "},"┧":{"ha":1250,"x_min":0,"x_max":0,"o":"m 778 -201 l 472 -201 l 472 401 l 0 401 l 0 596 l 528 596 l 528 1188 l 722 1188 l 722 568 l 778 568 z "},"┩":{"ha":1250,"x_min":0,"x_max":0,"o":"m 778 1188 l 778 429 l 722 429 l 722 -201 l 528 -201 l 528 374 l 0 374 l 0 624 l 472 624 l 472 1188 z "},"┪":{"ha":1250,"x_min":0,"x_max":0,"o":"m 778 -201 l 472 -201 l 472 374 l 0 374 l 0 624 l 528 624 l 528 1188 l 722 1188 l 722 568 l 778 568 z "},"┭":{"ha":1250,"x_min":0,"x_max":0,"o":"m 722 401 l 722 -201 l 528 -201 l 528 346 l 0 346 l 0 651 l 694 651 l 694 596 l 1250 596 l 1250 401 z "},"┮":{"ha":1250,"x_min":0,"x_max":0,"o":"m 528 401 l 0 401 l 0 596 l 556 596 l 556 651 l 1250 651 l 1250 346 l 722 346 l 722 -201 l 528 -201 z "},"┱":{"ha":1250,"x_min":0,"x_max":0,"o":"m 750 401 l 750 -201 l 500 -201 l 500 346 l 0 346 l 0 651 l 694 651 l 694 596 l 1250 596 l 1250 401 z "},"┲":{"ha":1250,"x_min":0,"x_max":0,"o":"m 500 401 l 0 401 l 0 596 l 556 596 l 556 651 l 1250 651 l 1250 346 l 750 346 l 750 -201 l 500 -201 z "},"┵":{"ha":1250,"x_min":0,"x_max":0,"o":"m 722 596 l 1250 596 l 1250 401 l 694 401 l 694 346 l 0 346 l 0 651 l 528 651 l 528 1188 l 722 1188 z "},"┶":{"ha":1250,"x_min":0,"x_max":0,"o":"m 528 596 l 528 1188 l 722 1188 l 722 651 l 1250 651 l 1250 346 l 556 346 l 556 401 l 0 401 l 0 596 z "},"┹":{"ha":1250,"x_min":0,"x_max":0,"o":"m 750 596 l 1250 596 l 1250 401 l 694 401 l 694 346 l 0 346 l 0 651 l 500 651 l 500 1188 l 750 1188 z "},"┺":{"ha":1250,"x_min":0,"x_max":0,"o":"m 500 596 l 500 1188 l 750 1188 l 750 651 l 1250 651 l 1250 346 l 556 346 l 556 401 l 0 401 l 0 596 z "},"┽":{"ha":1250,"x_min":0,"x_max":0,"o":"m 528 346 l 0 346 l 0 651 l 528 651 l 528 1188 l 722 1188 l 722 596 l 1250 596 l 1250 401 l 722 401 l 722 -201 l 528 -201 z "},"┾":{"ha":1250,"x_min":0,"x_max":0,"o":"m 722 346 l 722 -201 l 528 -201 l 528 401 l 0 401 l 0 596 l 528 596 l 528 1188 l 722 1188 l 722 651 l 1250 651 l 1250 346 z "},"╀":{"ha":1250,"x_min":0,"x_max":0,"o":"m 528 401 l 0 401 l 0 596 l 472 596 l 472 1188 l 778 1188 l 778 596 l 1250 596 l 1250 401 l 722 401 l 722 -201 l 528 -201 z "},"╁":{"ha":1250,"x_min":0,"x_max":0,"o":"m 528 596 l 528 1188 l 722 1188 l 722 596 l 1250 596 l 1250 401 l 778 401 l 778 -201 l 472 -201 l 472 401 l 0 401 l 0 596 z "},"╃":{"ha":1250,"x_min":0,"x_max":0,"o":"m 528 346 l 0 346 l 0 651 l 472 651 l 472 1188 l 778 1188 l 778 596 l 1250 596 l 1250 401 l 722 401 l 722 -201 l 528 -201 z "},"╄":{"ha":1250,"x_min":0,"x_max":0,"o":"m 722 346 l 722 -201 l 528 -201 l 528 401 l 0 401 l 0 596 l 472 596 l 472 1188 l 778 1188 l 778 651 l 1250 651 l 1250 346 z "},"╅":{"ha":1250,"x_min":0,"x_max":0,"o":"m 528 651 l 528 1188 l 722 1188 l 722 596 l 1250 596 l 1250 401 l 778 401 l 778 -201 l 472 -201 l 472 346 l 0 346 l 0 651 z "},"╆":{"ha":1250,"x_min":0,"x_max":0,"o":"m 722 651 l 1250 651 l 1250 346 l 778 346 l 778 -201 l 472 -201 l 472 401 l 0 401 l 0 596 l 528 596 l 528 1188 l 722 1188 z "},"╇":{"ha":1250,"x_min":0,"x_max":0,"o":"m 528 346 l 0 346 l 0 651 l 472 651 l 472 1188 l 778 1188 l 778 651 l 1250 651 l 1250 346 l 722 346 l 722 -201 l 528 -201 z "},"╈":{"ha":1250,"x_min":0,"x_max":0,"o":"m 528 651 l 528 1188 l 722 1188 l 722 651 l 1250 651 l 1250 346 l 778 346 l 778 -200 l 472 -200 l 472 346 l 0 346 l 0 651 z "},"╉":{"ha":1250,"x_min":0,"x_max":0,"o":"m 472 651 l 472 1188 l 778 1188 l 778 596 l 1250 596 l 1250 401 l 778 401 l 778 -201 l 472 -201 l 472 346 l 0 346 l 0 651 z "},"╊":{"ha":1250,"x_min":0,"x_max":0,"o":"m 778 651 l 1250 651 l 1250 346 l 778 346 l 778 -201 l 472 -201 l 472 401 l 0 401 l 0 596 l 472 596 l 472 1188 l 778 1188 z "},"㎕":{"ha":1250,"x_min":0,"x_max":0,"o":"m 915 556 b 914 324 907 471 910 399 b 990 567 956 410 976 478 b 983 804 1018 751 1008 800 b 915 556 953 810 936 764 z m 435 50 l 435 94 b 292 43 400 56 368 38 l 292 -124 l 69 -124 l 69 814 l 292 814 l 292 319 b 346 274 292 286 317 267 b 435 404 399 286 435 328 l 435 814 l 657 814 l 657 247 b 718 260 686 247 694 250 b 704 571 704 381 700 464 b 783 935 710 721 733 850 b 976 1071 833 1019 893 1064 b 1193 914 1056 1078 1156 1033 b 1144 356 1233 788 1225 535 b 976 125 1094 244 1051 189 l 986 111 b 1136 242 1042 136 1097 185 l 1249 92 b 1000 -68 1178 -19 1094 -67 b 771 74 906 -69 804 -24 b 672 50 742 57 708 50 z "},"㎖":{"ha":1250,"x_min":0,"x_max":0,"o":"m 929 556 b 928 324 921 471 924 399 b 1004 567 969 410 990 478 b 997 804 1032 751 1022 800 b 929 556 967 810 950 764 z m 542 50 l 542 503 b 508 618 542 615 532 625 b 481 576 494 614 488 600 l 481 50 l 317 50 l 317 503 b 285 618 317 617 304 624 b 254 567 268 614 261 596 l 254 50 l 71 50 l 71 814 l 254 814 l 254 767 b 353 833 275 813 315 831 l 363 833 b 453 746 401 833 444 807 b 560 833 471 806 529 833 l 578 833 b 706 565 657 833 706 751 l 706 247 b 758 260 729 247 738 250 b 746 571 746 381 742 464 b 817 935 751 721 772 850 b 990 1071 863 1019 915 1064 b 1183 914 1061 1078 1150 1033 b 1139 356 1219 788 1213 535 b 990 125 1094 244 1057 189 l 999 111 b 1133 242 1049 136 1099 185 l 1235 92 b 1011 -68 1171 -19 1096 -67 b 806 74 928 -69 836 -24 b 717 50 779 57 750 50 z "},"㎗":{"ha":1250,"x_min":0,"x_max":0,"o":"m 915 556 b 914 324 907 471 910 399 b 990 567 956 410 976 478 b 983 804 1018 751 1008 800 b 915 556 953 810 936 764 z m 364 251 b 442 414 413 257 442 328 b 358 615 442 536 415 607 b 260 435 300 624 260 561 b 364 251 260 294 303 244 z m 450 50 l 450 118 b 288 39 417 65 360 40 b 50 428 160 36 44 135 b 297 828 56 713 168 829 b 450 750 356 828 410 806 l 450 1081 l 661 1081 l 661 247 b 718 260 686 247 694 250 b 704 571 704 381 700 464 b 783 935 710 721 733 850 b 976 1071 833 1019 893 1064 b 1193 914 1056 1078 1156 1033 b 1144 356 1233 788 1225 535 b 976 125 1094 244 1051 189 l 986 111 b 1136 242 1042 136 1097 185 l 1249 92 b 1000 -68 1178 -19 1094 -67 b 771 74 906 -69 804 -24 b 672 50 742 57 708 50 z "},"ℓ":{"ha":1250,"x_min":0,"x_max":0,"o":"m 590 556 b 611 324 586 471 593 394 b 697 567 660 392 686 474 b 675 804 717 740 701 800 b 590 556 636 810 601 754 z m 226 261 b 386 274 290 261 353 261 b 349 585 363 346 343 478 b 446 935 356 725 372 813 b 668 1071 497 1019 582 1064 b 910 914 751 1078 869 1033 b 865 356 960 765 954 535 b 668 132 811 246 747 196 l 678 118 b 836 242 736 143 794 185 l 975 92 b 704 -68 910 -22 808 -67 b 454 60 597 -69 517 -31 b 336 36 424 43 374 36 l 261 36 z "},"㎘":{"ha":1250,"x_min":0,"x_max":0,"o":"m 901 556 b 914 324 893 471 897 399 b 990 567 956 410 976 478 b 983 804 1018 751 1008 800 b 901 556 953 810 922 764 z m 490 50 l 347 329 l 283 239 l 283 50 l 63 50 l 63 1081 l 283 1081 l 283 576 l 450 814 l 692 814 l 486 497 l 622 247 b 718 260 682 247 686 247 b 690 571 690 371 686 464 b 783 935 696 721 733 850 b 976 1071 833 1019 893 1064 b 1193 914 1056 1078 1156 1033 b 1144 356 1233 788 1225 535 b 976 125 1094 244 1051 189 l 986 111 b 1136 242 1042 136 1097 185 l 1249 92 b 986 -68 1178 -19 1072 -68 b 778 60 899 -68 814 -42 l 742 50 z "},"㏄":{"ha":1250,"x_min":0,"x_max":0,"o":"m 271 435 b 419 249 271 317 347 249 b 561 304 482 249 508 264 l 650 122 b 397 26 579 51 513 26 b 42 435 217 26 42 140 b 397 843 42 729 218 843 b 650 747 503 843 579 818 l 561 565 b 419 621 508 606 482 621 b 271 435 347 621 271 553 z m 828 435 b 975 249 828 317 903 249 b 1118 304 1038 249 1065 264 l 1208 122 b 954 26 1139 60 1069 26 b 600 435 774 26 600 140 b 954 843 600 729 775 843 b 1208 747 1060 843 1136 818 l 1118 565 b 975 621 1065 606 1038 621 b 828 435 903 621 828 553 z "},"㎣":{"ha":1250,"x_min":0,"x_max":0,"o":"m 56 50 l 56 814 l 211 814 l 211 767 b 304 833 229 813 272 831 l 313 833 b 393 746 349 833 382 811 b 489 833 410 806 461 833 l 504 833 b 611 593 574 833 611 779 l 611 50 l 465 50 l 465 531 b 435 646 465 643 457 653 b 411 604 424 642 418 628 l 411 50 l 267 50 l 267 531 b 238 646 267 644 254 651 b 211 594 224 642 218 624 l 211 50 z m 664 50 l 664 814 l 821 814 l 821 767 b 915 833 839 813 882 831 l 922 833 b 1003 746 957 833 994 814 b 1060 821 1013 783 1038 808 b 1040 822 1053 821 1047 822 b 894 854 978 826 943 832 l 933 951 b 1038 933 971 939 1011 932 b 1079 951 1068 935 1078 938 b 1043 969 1081 967 1065 969 b 985 964 1039 969 1008 968 l 979 1057 b 1071 1079 1047 1058 1068 1063 b 1024 1093 1074 1094 1050 1099 b 943 1072 1008 1090 968 1083 l 904 1163 b 1025 1197 935 1178 996 1194 b 1196 1135 1106 1206 1172 1181 b 1172 1019 1214 1103 1214 1043 b 1217 903 1217 1000 1236 954 b 1133 831 1204 867 1175 843 b 1219 565 1190 815 1219 732 l 1219 50 l 1074 50 l 1074 531 b 1046 646 1074 643 1067 653 b 1021 604 1033 642 1026 628 l 1021 50 l 875 50 l 875 531 b 847 646 875 644 864 651 b 821 594 833 642 826 624 l 821 50 z "},"㎤":{"ha":1250,"x_min":0,"x_max":0,"o":"m 933 951 b 1038 933 971 939 1011 932 b 1079 951 1068 935 1078 938 b 1043 969 1081 967 1065 969 b 985 964 1039 969 1008 968 l 979 1057 b 1071 1079 1047 1058 1068 1063 b 1024 1093 1074 1094 1050 1099 b 943 1072 1008 1090 968 1083 l 904 1163 b 1025 1197 935 1178 996 1194 b 1196 1135 1106 1206 1172 1181 b 1172 1019 1214 1103 1214 1043 b 1217 903 1217 1000 1236 954 b 1108 825 1201 860 1163 833 b 1194 565 1158 800 1194 717 l 1194 50 l 1007 50 l 1007 524 b 969 639 1007 636 990 646 b 940 597 957 635 946 621 l 940 50 l 753 50 l 753 524 b 722 639 753 628 739 642 b 685 588 701 635 690 617 l 685 50 l 486 50 l 486 814 l 685 814 l 685 767 b 814 833 715 810 771 831 l 821 833 b 922 753 856 833 913 813 b 1011 825 944 789 979 813 b 894 854 965 829 935 835 z m 42 435 b 296 843 42 754 183 829 b 458 814 354 850 399 844 l 418 653 b 321 656 379 664 356 664 b 228 435 264 642 228 553 b 314 214 228 317 258 235 b 418 221 346 201 379 207 l 458 60 b 289 26 401 29 353 19 b 42 435 183 38 42 115 z "},"㎥":{"ha":1250,"x_min":0,"x_max":0,"o":"m 56 50 l 56 814 l 283 814 l 283 767 b 408 833 336 817 368 829 l 424 833 b 592 746 508 833 554 800 b 746 833 632 797 694 833 l 769 833 b 853 819 799 833 826 829 l 875 883 b 996 861 917 869 965 860 b 1038 883 1026 864 1036 868 b 1001 906 1039 903 1024 906 b 935 899 997 906 963 904 l 929 1018 b 1029 1042 1006 1021 1026 1025 b 978 1060 1032 1061 1008 1065 b 885 1035 963 1057 914 1049 l 842 1156 b 979 1196 876 1174 946 1193 b 1175 1124 1068 1206 1147 1176 b 1147 967 1194 1088 1194 994 b 1199 826 1199 947 1221 886 b 999 718 1175 760 1099 711 b 972 719 989 718 981 719 b 1015 538 1000 672 1015 610 l 1015 50 l 792 50 l 792 417 b 714 601 792 569 776 608 b 654 560 686 599 669 585 l 654 50 l 432 50 l 432 417 b 357 601 432 560 424 604 b 283 550 332 601 303 582 l 283 50 z "},"㎦":{"ha":1250,"x_min":0,"x_max":0,"o":"m 919 825 l 919 913 b 1036 1014 974 953 1008 981 b 1068 1074 1060 1042 1068 1060 b 1047 1090 1068 1088 1057 1093 b 1000 1036 1032 1086 1013 1071 l 892 1094 b 1060 1208 915 1178 975 1206 b 1194 1138 1117 1210 1174 1181 b 1185 1014 1213 1100 1201 1043 b 1129 944 1165 981 1151 965 l 1140 944 b 1214 953 1153 944 1169 946 l 1214 838 b 1107 825 1178 828 1129 825 z m 249 246 l 249 50 l 56 50 l 56 1081 l 249 1081 l 249 583 l 346 814 l 535 814 l 394 492 l 543 50 l 365 50 l 276 317 z m 507 50 l 507 814 l 699 814 l 699 767 b 821 833 729 810 778 831 l 828 833 b 929 753 863 833 919 813 b 1057 833 964 808 1018 833 l 1072 833 b 1194 565 1142 833 1194 751 l 1194 50 l 1014 50 l 1014 524 b 976 639 1014 636 997 646 b 947 597 964 635 953 621 l 947 50 l 767 50 l 767 524 b 736 639 767 628 753 642 b 699 588 715 635 704 617 l 699 50 z "},"㎙":{"ha":1250,"x_min":0,"x_max":0,"o":"m 49 814 l 138 814 l 138 874 b 336 1111 138 1047 201 1111 l 433 1111 l 433 911 l 406 911 b 343 849 364 911 343 896 l 343 814 l 440 814 l 440 604 l 343 604 l 343 50 l 138 50 l 138 604 l 49 604 z m 486 50 l 486 814 l 685 814 l 685 767 b 814 833 715 810 771 831 l 821 833 b 922 753 856 833 913 813 b 1057 833 957 808 1018 833 l 1072 833 b 1194 565 1142 833 1194 751 l 1194 50 l 1007 50 l 1007 524 b 969 639 1007 636 990 646 b 940 597 957 635 946 621 l 940 50 l 753 50 l 753 524 b 722 639 753 628 739 642 b 685 588 701 635 690 617 l 685 50 z "},"㎚":{"ha":1250,"x_min":0,"x_max":0,"o":"m 532 50 l 532 814 l 724 814 l 724 767 b 839 833 754 810 796 831 l 846 833 b 954 753 896 833 938 810 b 1072 833 989 808 1033 833 l 1088 833 b 1219 579 1157 833 1219 765 l 1219 50 l 1039 50 l 1039 524 b 1001 639 1039 636 1022 646 b 972 597 989 635 978 621 l 972 50 l 792 50 l 792 524 b 761 639 792 628 778 642 b 724 588 740 635 729 617 l 724 50 z m 56 50 l 56 814 l 229 814 l 229 769 b 325 832 258 813 294 831 l 338 832 b 474 558 428 832 474 750 l 474 50 l 300 50 l 300 444 b 268 629 300 604 300 629 b 229 582 246 626 238 613 l 229 50 z "},"㎛":{"ha":1250,"x_min":0,"x_max":0,"o":"m 553 50 l 553 814 l 738 814 l 738 767 b 860 833 768 810 817 831 l 867 833 b 961 753 901 833 951 813 b 1089 833 996 808 1050 833 l 1104 833 b 1219 565 1174 833 1219 751 l 1219 50 l 1039 50 l 1039 517 b 1008 632 1039 629 1029 639 b 979 590 996 628 985 614 l 979 50 l 806 50 l 806 517 b 775 632 806 621 792 635 b 738 581 754 628 743 610 l 738 50 z m 236 278 b 272 253 236 254 254 244 b 324 383 303 267 324 307 l 324 814 l 511 814 l 511 50 l 324 50 l 324 88 b 236 50 301 61 274 53 l 236 -124 l 49 -124 l 49 814 l 236 814 z "},"㎜":{"ha":1250,"x_min":0,"x_max":0,"o":"m 56 50 l 56 814 l 211 814 l 211 767 b 304 833 229 813 272 831 l 313 833 b 393 746 349 833 382 811 b 489 833 410 806 461 833 l 504 833 b 611 593 574 833 611 779 l 611 50 l 465 50 l 465 531 b 435 646 465 643 457 653 b 411 604 424 642 418 628 l 411 50 l 267 50 l 267 531 b 238 646 267 644 254 651 b 211 594 224 642 218 624 l 211 50 z m 664 50 l 664 814 l 821 814 l 821 767 b 915 833 839 813 882 831 l 922 833 b 1003 746 957 833 994 814 b 1099 833 1019 806 1071 833 l 1114 833 b 1219 565 1183 833 1219 751 l 1219 50 l 1074 50 l 1074 531 b 1046 646 1074 643 1067 653 b 1021 604 1033 642 1026 628 l 1021 50 l 875 50 l 875 531 b 847 646 875 644 864 651 b 821 594 833 642 826 624 l 821 50 z "},"㎝":{"ha":1250,"x_min":0,"x_max":0,"o":"m 486 50 l 486 814 l 685 814 l 685 767 b 814 833 715 810 771 831 l 821 833 b 922 753 856 833 913 813 b 1057 833 957 808 1018 833 l 1072 833 b 1194 565 1142 833 1194 751 l 1194 50 l 1007 50 l 1007 524 b 969 639 1007 636 990 646 b 940 597 957 635 946 621 l 940 50 l 753 50 l 753 524 b 722 639 753 628 739 642 b 685 588 701 635 690 617 l 685 50 z m 42 435 b 296 843 42 754 183 829 b 458 814 354 850 399 844 l 418 653 b 321 656 379 664 356 664 b 228 435 264 642 228 553 b 314 214 228 317 258 235 b 418 221 346 201 379 207 l 458 60 b 289 26 401 29 353 19 b 42 435 183 38 42 115 z "},"㎞":{"ha":1250,"x_min":0,"x_max":0,"o":"m 507 749 l 394 492 l 507 157 z m 365 50 l 276 317 l 249 246 l 249 50 l 56 50 l 56 1081 l 249 1081 l 249 583 l 346 814 l 699 814 l 699 767 b 821 833 729 810 778 831 l 828 833 b 929 753 863 833 919 813 b 1057 833 964 808 1018 833 l 1072 833 b 1194 565 1142 833 1194 751 l 1194 50 l 1014 50 l 1014 524 b 976 639 1014 636 997 646 b 947 597 964 635 953 621 l 947 50 l 767 50 l 767 524 b 736 639 767 628 753 642 b 699 588 715 635 704 617 l 699 50 z "},"㎟":{"ha":1250,"x_min":0,"x_max":0,"o":"m 56 50 l 56 814 l 211 814 l 211 767 b 304 833 229 813 272 831 l 313 833 b 393 746 349 833 382 811 b 489 833 410 806 461 833 l 504 833 b 611 593 574 833 611 779 l 611 50 l 465 50 l 465 531 b 435 646 465 643 457 653 b 411 604 424 642 418 628 l 411 50 l 267 50 l 267 531 b 238 646 267 644 254 651 b 211 594 224 642 218 624 l 211 50 z m 664 50 l 664 814 l 821 814 l 821 767 b 915 833 839 813 882 831 l 919 833 l 919 913 b 1036 1014 974 953 1008 981 b 1068 1074 1060 1042 1068 1060 b 1047 1090 1068 1088 1057 1093 b 1000 1036 1032 1086 1013 1071 l 892 1094 b 1060 1208 915 1178 975 1206 b 1194 1138 1117 1210 1174 1181 b 1185 1014 1213 1100 1201 1043 b 1129 944 1165 981 1151 965 l 1140 944 b 1214 953 1153 944 1169 946 l 1214 838 b 1144 826 1193 832 1167 828 b 1219 565 1194 803 1219 721 l 1219 50 l 1074 50 l 1074 531 b 1046 646 1074 643 1067 653 b 1021 604 1033 642 1026 628 l 1021 50 l 875 50 l 875 531 b 847 646 875 644 864 651 b 821 594 833 642 826 624 l 821 50 z m 958 825 b 1003 746 979 814 997 790 b 1067 825 1014 786 1042 813 z "},"㎠":{"ha":1250,"x_min":0,"x_max":0,"o":"m 486 50 l 486 814 l 685 814 l 685 767 b 814 833 715 810 771 831 l 821 833 b 922 753 856 833 913 813 b 1013 825 946 790 981 814 l 919 825 l 919 913 b 1036 1014 974 953 1008 981 b 1068 1074 1060 1042 1068 1060 b 1047 1090 1068 1088 1057 1093 b 1000 1036 1032 1086 1013 1071 l 892 1094 b 1060 1208 915 1178 975 1206 b 1194 1138 1117 1210 1174 1181 b 1185 1014 1213 1100 1201 1043 b 1129 944 1165 981 1151 965 l 1140 944 b 1214 953 1153 944 1169 946 l 1214 838 b 1108 825 1178 828 1132 825 b 1194 565 1160 800 1194 717 l 1194 50 l 1007 50 l 1007 524 b 969 639 1007 636 990 646 b 940 597 957 635 946 621 l 940 50 l 753 50 l 753 524 b 722 639 753 628 739 642 b 685 588 701 635 690 617 l 685 50 z m 42 435 b 296 843 42 754 183 829 b 458 814 354 850 399 844 l 418 653 b 321 656 379 664 356 664 b 228 435 264 642 228 553 b 314 214 228 317 258 235 b 418 221 346 201 379 207 l 458 60 b 289 26 401 29 353 19 b 42 435 183 38 42 115 z "},"㎡":{"ha":1250,"x_min":0,"x_max":0,"o":"m 56 50 l 56 814 l 283 814 l 283 767 b 408 833 336 817 368 829 l 424 833 b 592 746 508 833 554 800 b 746 833 632 797 694 833 l 769 833 b 865 815 804 833 836 826 l 865 843 b 1008 964 932 892 975 925 b 1040 1035 1032 992 1040 1015 b 1013 1051 1040 1049 1022 1056 b 957 986 997 1047 972 1031 l 832 1058 b 1032 1196 861 1160 933 1193 b 1188 1110 1100 1197 1161 1163 b 1182 965 1210 1067 1203 996 b 1110 883 1157 928 1136 907 l 1125 883 b 1218 892 1139 883 1164 885 l 1218 744 b 1089 731 1174 733 1114 731 l 965 731 b 1015 538 997 681 1015 617 l 1015 50 l 792 50 l 792 417 b 714 601 792 569 776 608 b 654 560 686 599 669 585 l 654 50 l 432 50 l 432 417 b 357 601 432 560 424 604 b 283 550 332 601 303 582 l 283 50 z "},"㎢":{"ha":1250,"x_min":0,"x_max":0,"o":"m 919 825 l 919 913 b 1036 1014 974 953 1008 981 b 1068 1074 1060 1042 1068 1060 b 1047 1090 1068 1088 1057 1093 b 1000 1036 1032 1086 1013 1071 l 892 1094 b 1060 1208 915 1178 975 1206 b 1194 1138 1117 1210 1174 1181 b 1185 1014 1213 1100 1201 1043 b 1129 944 1165 981 1151 965 l 1140 944 b 1214 953 1153 944 1169 946 l 1214 838 b 1107 825 1178 828 1129 825 z m 249 246 l 249 50 l 56 50 l 56 1081 l 249 1081 l 249 583 l 346 814 l 535 814 l 394 492 l 543 50 l 365 50 l 276 317 z m 507 50 l 507 814 l 699 814 l 699 767 b 821 833 729 810 778 831 l 828 833 b 929 753 863 833 919 813 b 1057 833 964 808 1018 833 l 1072 833 b 1194 565 1142 833 1194 751 l 1194 50 l 1014 50 l 1014 524 b 976 639 1014 636 997 646 b 947 597 964 635 953 621 l 947 50 l 767 50 l 767 524 b 736 639 767 628 753 642 b 699 588 715 635 704 617 l 699 50 z "},"㏊":{"ha":1250,"x_min":0,"x_max":0,"o":"m 988 51 l 988 118 b 835 42 950 65 903 39 b 639 438 711 46 633 144 b 872 831 647 733 746 840 b 988 760 919 826 971 804 l 988 814 l 1185 814 l 1185 51 z m 914 254 b 981 378 963 260 972 318 b 983 415 982 383 983 410 b 919 618 983 546 963 608 b 829 438 857 632 829 563 b 914 254 829 317 857 247 z m 61 50 l 61 1081 l 276 1081 l 276 775 b 411 835 311 810 368 832 l 415 835 b 603 531 558 835 603 714 l 603 50 l 388 50 l 388 433 b 336 607 388 588 374 610 b 276 553 313 606 297 588 l 276 50 z "},"㎍":{"ha":1250,"x_min":0,"x_max":0,"o":"m 278 319 b 332 274 278 286 303 267 b 407 404 385 286 407 328 l 407 814 l 615 814 l 615 50 l 407 50 l 407 94 b 278 43 372 56 354 38 l 278 -124 l 69 -124 l 69 814 l 278 814 z m 936 292 b 1017 449 997 303 1017 371 b 936 625 1017 560 994 618 b 840 457 888 631 844 585 b 936 292 836 343 882 282 z m 1217 181 b 1129 -133 1217 38 1200 -54 b 876 -203 1075 -192 1001 -214 b 679 -151 818 -197 750 -182 l 725 44 b 943 -3 800 6 897 -17 b 1013 118 1008 17 1013 68 l 1013 138 b 883 86 993 113 949 83 b 656 446 742 93 650 196 b 899 831 663 728 750 840 b 1013 765 943 828 994 801 l 1013 813 l 1217 813 z "},"㎎":{"ha":1250,"x_min":0,"x_max":0,"o":"m 56 50 l 56 814 l 225 814 l 225 767 b 332 833 243 813 300 831 l 340 833 b 421 746 376 833 410 811 b 531 833 438 806 503 833 l 546 833 b 653 593 615 833 653 779 l 653 50 l 493 50 l 493 531 b 463 646 493 643 485 653 b 439 604 451 642 446 628 l 439 50 l 281 50 l 281 531 b 251 646 281 644 268 651 b 225 594 238 642 232 624 l 225 50 z m 953 278 b 1031 449 1014 289 1031 371 b 953 639 1031 560 1011 631 b 854 457 897 647 858 585 b 953 278 850 343 888 265 z m 1217 181 b 1129 -133 1217 38 1197 -51 b 904 -203 1081 -192 1001 -211 b 693 -151 846 -197 764 -182 l 739 38 b 960 -11 814 -1 913 -22 b 1026 118 1018 3 1026 68 l 1026 138 b 911 86 1000 103 974 83 b 690 446 783 92 685 196 b 925 831 697 728 793 839 b 1026 765 969 828 1008 801 l 1026 814 l 1217 814 z "},"㎏":{"ha":1250,"x_min":0,"x_max":0,"o":"m 929 292 b 1017 449 990 303 1017 371 b 929 625 1017 560 988 618 b 813 457 881 631 817 601 b 929 292 808 332 875 282 z m 1217 181 b 1129 -133 1217 38 1200 -54 b 876 -203 1075 -192 1001 -214 b 679 -151 818 -197 750 -182 l 725 44 b 943 -3 800 6 897 -17 b 1013 118 1008 17 1013 68 l 1013 138 b 869 86 993 113 935 83 b 614 446 728 93 608 196 b 885 831 621 728 750 840 b 1013 765 929 828 994 801 l 1013 813 l 1217 813 z m 276 253 l 276 50 l 56 50 l 56 1081 l 276 1081 l 276 542 l 443 814 l 660 814 l 457 457 l 682 50 l 456 50 l 318 310 z "},"㏏":{"ha":1250,"x_min":0,"x_max":0,"o":"m 764 814 l 764 1081 l 999 1081 l 999 814 l 1154 814 l 1154 597 l 999 597 l 999 364 b 1036 267 999 306 1006 278 b 1119 276 1057 260 1075 261 l 1153 71 b 894 57 1081 38 976 25 b 764 326 799 96 764 181 l 764 597 l 639 597 l 639 717 l 471 457 l 724 50 l 490 50 l 325 310 l 283 253 l 283 50 l 56 50 l 56 1081 l 283 1081 l 283 542 l 478 814 z "},"㎈":{"ha":1250,"x_min":0,"x_max":0,"o":"m 561 254 b 601 378 583 257 599 296 l 601 415 b 561 618 601 533 593 610 b 503 438 524 628 504 579 b 561 254 501 271 521 249 z m 960 556 b 958 310 954 471 956 385 b 1026 567 994 396 1013 478 b 1019 811 1051 751 1042 807 b 960 556 992 817 981 764 z m 207 435 b 272 204 207 297 224 228 b 342 206 297 192 317 197 l 382 49 b 222 31 332 22 276 15 b 42 435 121 60 42 175 b 222 839 42 694 121 810 b 382 821 276 854 332 847 l 342 664 b 272 665 317 672 297 678 b 207 435 224 642 207 572 z m 604 50 l 604 104 b 504 42 589 69 561 40 b 358 438 414 43 353 144 b 521 831 365 733 433 835 b 604 764 564 829 590 801 l 604 814 l 754 814 l 754 240 b 810 253 776 242 796 246 b 800 571 800 374 796 464 b 863 935 804 721 824 850 b 1013 1071 906 1019 949 1065 b 1186 914 1089 1078 1158 1042 b 1147 372 1217 775 1201 535 b 1006 125 1110 261 1067 189 l 1014 104 b 1119 228 1060 136 1093 175 l 1217 89 b 1025 -68 1179 4 1101 -67 b 856 74 951 -69 883 -24 b 776 50 832 57 806 50 z "},"㎉":{"ha":1389,"x_min":0,"x_max":0,"o":"m 817 254 b 849 378 836 257 847 296 l 849 415 b 817 618 849 533 846 610 b 771 438 785 628 771 579 b 817 254 769 271 782 249 z m 1150 556 b 1149 310 1146 471 1147 385 b 1206 567 1178 396 1193 478 b 1199 811 1228 751 1218 807 b 1150 556 1175 817 1165 764 z m 519 435 b 583 201 519 297 556 217 b 632 199 597 194 617 193 l 665 44 b 538 31 631 21 575 19 b 374 435 456 54 374 175 b 531 839 374 694 450 808 b 665 831 572 854 615 850 l 633 678 b 578 672 610 685 593 683 b 519 435 551 651 519 572 z m 196 246 l 196 50 l 57 50 l 57 1081 l 196 1081 l 196 569 l 265 814 l 417 814 l 293 464 l 425 50 l 278 50 l 214 296 z m 851 50 l 851 104 b 764 42 839 69 814 40 b 640 438 685 43 636 144 b 779 831 647 733 704 835 b 851 764 817 829 840 801 l 851 814 l 976 814 l 976 240 b 1019 253 993 243 1008 247 b 1013 571 1013 374 1010 464 b 1065 935 1014 721 1032 850 b 1193 1071 1103 1019 1140 1065 b 1343 914 1258 1078 1318 1042 b 1310 372 1369 775 1356 535 b 1186 125 1276 261 1240 189 l 1194 104 b 1286 228 1236 136 1263 175 l 1369 89 b 1206 -68 1336 4 1271 -67 b 1060 74 1142 -69 1085 -24 b 992 50 1039 57 1015 50 z "},"㏈":{"ha":1250,"x_min":0,"x_max":0,"o":"m 269 39 b 50 428 142 33 44 135 b 269 828 56 713 140 829 b 394 764 328 828 364 807 l 394 1081 l 606 1081 l 606 50 l 394 50 l 394 111 b 269 39 372 65 333 42 z m 326 251 b 386 414 361 257 386 328 b 321 615 386 536 367 608 b 246 435 275 622 246 561 b 326 251 246 294 275 243 z m 682 50 l 682 1081 l 936 1081 b 1188 836 1110 1081 1175 989 b 1081 600 1194 750 1168 638 b 1214 317 1188 551 1225 435 b 960 50 1196 129 1111 50 z m 889 876 l 889 693 l 939 693 b 1001 786 982 693 1001 735 b 938 876 1001 836 975 876 z m 889 483 l 889 254 l 936 254 b 1026 369 994 254 1026 292 b 939 483 1026 438 994 483 z "},"㎧":{"ha":1250,"x_min":0,"x_max":0,"o":"m 1106 17 b 918 17 1053 -1 993 3 b 756 99 867 28 807 57 l 826 257 b 1003 179 890 217 950 189 b 1015 238 1042 169 1049 222 b 853 325 978 261 921 275 b 775 468 807 351 778 406 l 594 -15 l 411 60 l 544 414 l 464 414 l 464 783 b 442 904 464 893 461 908 b 419 860 429 901 422 886 l 419 414 l 272 414 l 272 783 b 250 904 272 896 264 907 b 225 850 235 901 228 888 l 225 414 l 61 414 l 61 1081 l 225 1081 l 225 1031 b 311 1100 236 1079 278 1097 l 321 1100 b 399 1008 354 1100 389 1078 b 489 1100 410 1071 463 1100 l 507 1100 b 619 849 581 1100 619 1043 l 619 617 l 817 1143 l 999 1068 l 836 631 b 983 683 868 661 917 681 b 1218 590 1068 686 1143 657 l 1128 444 b 993 503 1072 485 1031 500 b 982 447 971 507 957 463 b 1131 371 1018 421 1076 406 b 1231 175 1206 333 1239 265 b 1106 17 1219 88 1174 40 z "},"㎨":{"ha":1250,"x_min":0,"x_max":0,"o":"m 1106 17 b 918 17 1053 -1 993 3 b 756 99 867 28 807 57 l 826 257 b 1003 179 890 217 950 189 b 1015 238 1042 169 1049 222 b 853 325 978 261 921 275 b 781 426 817 346 792 382 l 696 -28 l 501 14 l 576 414 l 464 414 l 464 783 b 442 904 464 893 461 908 b 419 860 429 901 422 886 l 419 414 l 272 414 l 272 783 b 250 904 272 896 264 907 b 225 850 235 901 228 888 l 225 414 l 61 414 l 61 1081 l 225 1081 l 225 1031 b 311 1100 236 1079 278 1097 l 321 1100 b 399 1008 354 1100 389 1078 b 489 1100 410 1071 463 1100 l 507 1100 b 619 849 581 1100 619 1043 l 619 646 l 715 1156 l 908 1114 l 814 606 b 983 683 846 651 900 681 b 1218 590 1068 686 1143 657 l 1128 444 b 993 503 1072 485 1031 500 b 982 447 971 507 957 463 b 1131 371 1018 421 1076 406 b 1231 175 1206 333 1239 265 b 1106 17 1219 88 1174 40 z m 929 713 l 929 811 b 1039 893 986 849 1010 867 b 1071 944 1057 911 1072 929 b 1056 958 1069 956 1063 958 b 1003 917 1038 957 1025 947 l 910 988 b 1078 1097 958 1067 1004 1097 b 1204 1017 1132 1097 1181 1071 b 1194 904 1221 981 1211 924 b 1144 842 1176 879 1163 860 l 1151 842 b 1225 847 1163 842 1189 842 l 1225 721 b 1113 713 1189 713 1138 713 z "},"㎰":{"ha":1250,"x_min":0,"x_max":0,"o":"m 417 39 b 274 104 349 40 297 65 l 274 -124 l 56 -124 l 56 814 l 274 814 l 274 746 b 417 826 314 806 357 824 b 661 426 585 835 658 688 b 417 39 665 157 554 35 z m 363 244 b 456 433 419 238 456 293 b 374 621 456 561 429 628 b 282 411 317 614 282 535 b 363 244 282 307 317 250 z m 1065 38 b 857 36 1006 15 940 19 b 671 107 799 50 736 69 l 736 315 b 918 250 815 282 854 261 b 939 310 960 239 974 289 b 783 401 889 340 849 361 b 711 686 708 447 674 575 b 931 843 739 778 807 838 b 1193 751 1028 847 1119 810 l 1119 553 b 979 611 1051 599 1025 606 b 965 557 947 615 932 579 b 1106 468 1011 526 1044 513 b 1210 228 1185 410 1221 335 b 1065 38 1199 124 1142 67 z "},"㎱":{"ha":1250,"x_min":0,"x_max":0,"o":"m 1065 38 b 864 36 1006 15 947 19 b 692 107 806 50 757 69 l 757 315 b 932 247 836 282 868 258 b 953 307 974 236 988 286 b 797 404 903 338 858 358 b 722 686 722 460 685 575 b 938 843 750 778 814 838 b 1186 751 1035 847 1113 810 l 1113 553 b 979 611 1044 599 1025 606 b 965 557 947 615 932 579 b 1108 460 1011 526 1050 507 b 1210 221 1188 396 1224 318 b 1065 38 1194 117 1142 67 z m 69 50 l 69 814 l 299 814 l 299 769 b 450 832 349 813 399 831 l 463 832 b 647 565 568 831 647 757 l 647 50 l 418 50 l 418 438 b 360 594 418 583 392 594 b 299 525 324 592 313 567 l 299 50 z "},"㎲":{"ha":1250,"x_min":0,"x_max":0,"o":"m 1065 38 b 864 36 1006 15 947 19 b 692 107 806 50 757 69 l 757 315 b 932 247 836 282 868 258 b 953 307 974 236 988 286 b 797 404 903 338 858 358 b 722 686 722 460 685 575 b 938 843 750 778 814 838 b 1186 751 1035 847 1113 810 l 1113 553 b 979 611 1044 599 1025 606 b 965 557 947 615 932 579 b 1108 460 1011 526 1050 507 b 1210 221 1188 396 1224 318 b 1065 38 1194 117 1142 67 z m 285 319 b 339 274 285 286 310 267 b 442 404 392 286 439 329 l 442 814 l 657 814 l 657 50 l 442 50 l 442 94 b 285 43 407 56 361 38 l 285 -124 l 69 -124 l 69 814 l 285 814 z "},"㎳":{"ha":1250,"x_min":0,"x_max":0,"o":"m 56 50 l 56 814 l 242 814 l 242 767 b 354 833 260 813 319 831 l 363 833 b 453 746 399 833 442 811 b 568 833 471 806 539 833 l 585 833 b 704 593 651 833 704 779 l 704 50 l 529 50 l 529 531 b 497 646 529 643 519 653 b 472 604 485 642 479 628 l 472 50 l 300 50 l 300 531 b 269 646 300 644 286 651 b 242 594 254 642 249 624 l 242 50 z m 1067 38 b 888 36 1013 18 963 19 b 732 107 835 50 790 69 l 790 313 b 953 244 863 279 894 256 b 969 308 989 233 999 285 b 828 414 926 343 883 367 b 760 686 761 471 726 575 b 953 843 785 778 842 838 b 1176 751 1040 847 1110 810 l 1110 556 b 986 614 1049 601 1026 608 b 974 556 958 618 946 579 b 1106 449 1014 522 1053 496 b 1197 218 1178 385 1210 315 b 1067 38 1183 114 1136 63 z "},"㎴":{"ha":1389,"x_min":0,"x_max":0,"o":"m 417 39 b 281 104 349 40 304 65 l 281 -124 l 69 -124 l 69 814 l 281 814 l 281 746 b 417 826 321 806 369 822 b 654 426 568 839 651 688 b 417 39 658 157 554 35 z m 363 244 b 456 433 419 238 456 293 b 374 621 456 561 429 628 b 289 411 317 614 289 535 b 363 244 289 307 317 250 z m 831 49 l 574 1081 l 826 1081 l 964 386 l 1101 1081 l 1354 1081 l 1097 49 z "},"㎵":{"ha":1389,"x_min":0,"x_max":0,"o":"m 69 50 l 69 814 l 285 814 l 285 769 b 429 832 335 813 378 831 l 442 832 b 619 565 547 831 619 757 l 619 50 l 404 50 l 404 438 b 353 594 404 583 385 594 b 285 525 317 592 299 567 l 285 50 z m 831 49 l 574 1081 l 826 1081 l 964 386 l 1101 1081 l 1354 1081 l 1097 49 z "},"㎶":{"ha":1389,"x_min":0,"x_max":0,"o":"m 285 319 b 339 274 285 286 310 267 b 414 404 392 286 414 328 l 414 814 l 629 814 l 629 50 l 414 50 l 414 94 b 285 43 379 56 361 38 l 285 -124 l 69 -124 l 69 814 l 285 814 z m 838 49 l 581 1081 l 833 1081 l 971 386 l 1101 1081 l 1354 1081 l 1104 49 z "},"㎷":{"ha":1389,"x_min":0,"x_max":0,"o":"m 56 50 l 56 814 l 239 814 l 239 767 b 346 833 257 813 314 831 l 354 833 b 449 746 390 833 438 811 b 558 833 465 806 531 833 l 574 833 b 694 593 643 833 694 779 l 694 50 l 521 50 l 521 531 b 490 646 521 643 513 653 b 467 604 479 642 474 628 l 467 50 l 294 50 l 294 531 b 265 646 294 644 282 651 b 239 594 251 642 246 624 l 239 50 z m 872 49 l 657 1081 l 896 1081 l 1006 386 l 1115 1081 l 1354 1081 l 1139 49 z "},"㎸":{"ha":1389,"x_min":0,"x_max":0,"o":"m 269 232 l 269 50 l 56 50 l 56 1081 l 269 1081 l 269 569 l 429 814 l 657 814 l 594 1081 l 847 1081 l 971 386 l 1094 1081 l 1347 1081 l 1104 49 l 838 49 l 658 810 l 439 461 l 682 50 l 442 50 l 308 297 z "},"㎹":{"ha":1389,"x_min":0,"x_max":0,"o":"m 943 1081 l 1053 346 l 1163 1081 l 1374 1081 l 1172 50 l 933 50 l 738 1050 l 793 50 l 594 50 l 589 676 l 582 676 l 486 50 l 333 50 l 238 676 l 231 676 l 225 50 l 26 50 l 83 1081 l 326 1081 l 406 393 l 413 393 l 521 1081 z "},"㎀":{"ha":1389,"x_min":0,"x_max":0,"o":"m 396 39 b 267 104 328 40 290 65 l 267 -124 l 63 -124 l 63 814 l 267 814 l 267 746 b 396 826 307 806 336 822 b 626 433 525 835 624 694 b 396 39 631 164 533 35 z m 342 244 b 428 433 399 238 428 293 b 353 621 428 561 408 628 b 268 411 296 614 268 535 b 342 244 268 307 296 250 z m 1333 50 l 1110 50 l 1067 251 l 878 251 l 826 50 l 604 50 l 847 1081 l 1093 1081 z m 975 779 l 921 474 l 1024 474 z "},"㎁":{"ha":1389,"x_min":0,"x_max":0,"o":"m 69 50 l 69 814 l 285 814 l 285 769 b 429 832 335 813 378 831 l 442 832 b 619 565 547 831 619 757 l 619 50 l 404 50 l 404 438 b 353 594 404 583 385 594 b 285 525 317 592 299 567 l 285 50 z m 1333 50 l 1113 50 l 1061 260 l 897 260 l 851 50 l 632 50 l 854 1081 l 1100 1081 z m 982 779 l 928 474 l 1031 474 z "},"㎂":{"ha":1389,"x_min":0,"x_max":0,"o":"m 982 779 l 928 474 l 1031 474 z m 421 50 l 407 94 b 285 43 372 56 361 38 l 285 -124 l 69 -124 l 69 814 l 285 814 l 285 319 b 346 274 285 286 317 267 b 421 404 399 286 421 328 l 421 814 l 636 814 l 636 69 l 854 1081 l 1100 1081 l 1333 50 l 1113 50 l 1061 260 l 897 260 l 851 50 z "},"㎃":{"ha":1389,"x_min":0,"x_max":0,"o":"m 1333 50 l 1131 50 l 1085 260 l 943 260 l 903 50 l 701 50 l 910 1081 l 1114 1081 z m 1017 779 l 972 474 l 1056 474 z m 63 50 l 63 814 l 246 814 l 246 767 b 360 833 264 813 328 831 l 368 833 b 456 746 404 833 444 811 b 572 833 472 806 544 833 l 588 833 b 701 593 657 833 701 779 l 701 50 l 528 50 l 528 531 b 497 646 528 643 519 653 b 474 604 486 642 481 628 l 474 50 l 301 50 l 301 531 b 272 646 301 644 289 651 b 246 594 258 642 253 624 l 246 50 z "},"㎄":{"ha":1389,"x_min":0,"x_max":0,"o":"m 975 779 l 921 474 l 1024 474 z m 442 50 l 304 289 l 269 232 l 269 50 l 56 50 l 56 1081 l 269 1081 l 269 569 l 429 814 l 660 814 l 443 450 l 632 113 l 847 1081 l 1093 1081 l 1333 50 l 1113 50 l 1061 251 l 883 251 l 838 50 z "},"㎺":{"ha":1389,"x_min":0,"x_max":0,"o":"m 351 39 b 239 104 283 42 258 61 l 239 -124 l 56 -124 l 56 814 l 239 814 l 239 746 b 351 826 265 804 292 822 b 544 433 463 835 542 694 b 351 39 549 164 460 35 z m 297 244 b 374 433 347 239 374 293 b 308 621 374 561 353 628 b 240 411 265 614 240 535 b 297 244 240 307 265 249 z m 1049 1081 l 1106 353 l 1110 353 l 1149 1081 l 1350 1081 l 1242 50 l 1003 50 l 933 771 l 924 771 l 853 50 l 628 50 l 513 1081 l 707 1081 l 747 353 l 751 353 l 807 1081 z "},"㎻":{"ha":1389,"x_min":0,"x_max":0,"o":"m 1049 1081 l 1106 346 l 1110 346 l 1149 1081 l 1350 1081 l 1242 50 l 1003 50 l 933 771 l 924 771 l 853 50 l 628 50 l 513 1081 l 707 1081 l 747 346 l 751 346 l 807 1081 z m 63 50 l 63 814 l 243 814 l 243 769 b 367 832 282 815 332 832 l 379 832 b 529 565 456 832 529 757 l 529 50 l 349 50 l 349 438 b 297 594 349 583 319 594 b 243 525 282 594 249 568 l 243 50 z "},"㎼":{"ha":1389,"x_min":0,"x_max":0,"o":"m 1049 1081 l 1106 325 l 1110 325 l 1149 1081 l 1350 1081 l 1242 50 l 1003 50 l 933 771 l 924 771 l 853 50 l 628 50 l 546 781 l 546 50 l 365 50 l 365 94 b 243 43 340 61 278 47 l 243 -124 l 56 -124 l 56 814 l 243 814 l 243 306 b 290 260 243 272 268 254 b 365 390 331 269 365 314 l 365 814 l 542 814 l 513 1081 l 707 1081 l 747 325 l 751 325 l 807 1081 z "},"㎽":{"ha":1389,"x_min":0,"x_max":0,"o":"m 1069 1081 l 1126 325 l 1131 325 l 1169 1081 l 1350 1081 l 1256 50 l 1038 50 l 982 771 l 972 771 l 915 50 l 711 50 l 610 1081 l 783 1081 l 824 325 l 828 325 l 883 1081 z m 56 50 l 56 814 l 211 814 l 211 767 b 311 833 229 813 279 831 l 319 833 b 400 746 356 833 389 811 b 496 833 417 806 468 833 l 511 833 b 625 593 581 833 625 779 l 625 50 l 479 50 l 479 531 b 442 646 479 643 464 653 b 418 604 431 642 425 628 l 418 50 l 274 50 l 274 531 b 238 646 274 644 254 651 b 211 594 224 642 218 624 l 211 50 z "},"㎾":{"ha":1389,"x_min":0,"x_max":0,"o":"m 1046 1081 l 1106 339 l 1110 339 l 1149 1081 l 1350 1081 l 1242 50 l 1003 50 l 933 771 l 924 771 l 853 50 l 628 50 l 553 714 l 408 464 l 619 50 l 414 50 l 285 304 l 249 246 l 249 50 l 56 50 l 56 1081 l 249 1081 l 249 569 l 401 814 l 542 814 l 513 1081 l 707 1081 l 747 339 l 751 339 l 810 1081 z "},"㎿":{"ha":1389,"x_min":0,"x_max":0,"o":"m 1093 1081 l 1160 297 l 1165 297 l 1161 1081 l 1349 1081 l 1282 50 l 1058 50 l 1004 799 l 999 799 l 943 50 l 733 50 l 661 1081 l 842 1081 l 838 297 l 843 297 l 908 1081 z m 279 50 l 200 718 l 197 718 l 211 50 l 39 50 l 79 1081 l 286 1081 l 344 351 l 347 351 l 429 1081 l 614 1081 l 654 50 l 482 50 l 496 718 l 493 718 l 414 50 z "},"㎐":{"ha":1250,"x_min":0,"x_max":0,"o":"m 69 1081 l 296 1081 l 296 692 l 447 692 l 447 1081 l 674 1081 l 674 50 l 447 50 l 447 476 l 296 476 l 296 50 l 69 50 z m 1024 50 l 733 50 l 733 149 l 918 604 l 744 604 l 744 814 l 1188 814 l 1188 735 l 992 260 l 1060 260 b 1194 268 1104 260 1167 263 l 1194 63 b 1024 50 1151 53 1096 50 z "},"㎑":{"ha":1250,"x_min":0,"x_max":0,"o":"m 479 125 l 479 1047 l 360 588 z m 1051 50 l 907 50 l 907 149 l 1001 618 l 918 618 l 918 814 l 1174 814 l 1174 735 l 1075 246 l 1101 246 b 1181 254 1136 246 1150 246 l 1181 63 b 1051 50 1143 51 1110 50 z m 643 1081 l 643 692 l 718 692 l 718 1081 l 882 1081 l 882 50 l 718 50 l 718 490 l 643 490 l 643 50 l 361 50 l 263 435 l 229 300 l 229 50 l 69 50 l 69 1081 l 229 1081 l 229 621 l 344 1081 z "},"㎒":{"ha":1250,"x_min":0,"x_max":0,"o":"m 590 1081 l 726 1081 l 726 678 l 794 678 l 794 1081 l 931 1081 l 931 50 l 794 50 l 794 490 l 726 490 l 726 50 l 590 50 z m 1086 50 l 969 50 l 969 149 l 1057 632 l 981 632 l 981 814 l 1208 814 l 1208 735 l 1110 232 l 1136 232 b 1215 240 1171 232 1185 232 l 1215 63 b 1086 50 1178 51 1144 50 z m 258 50 l 194 676 l 189 676 l 203 50 l 69 50 l 90 1081 l 254 1081 l 307 393 l 308 393 l 382 1081 l 526 1081 l 547 50 l 414 50 l 428 676 l 422 676 l 358 50 z "},"㎓":{"ha":1250,"x_min":0,"x_max":0,"o":"m 542 1081 l 692 1081 l 692 692 l 767 692 l 767 1081 l 917 1081 l 917 50 l 767 50 l 767 511 l 692 511 l 692 50 l 542 50 z m 1079 50 l 949 50 l 949 149 l 1040 625 l 960 625 l 960 814 l 1194 814 l 1194 735 l 1096 239 l 1122 239 b 1201 247 1157 239 1171 239 l 1201 63 b 1079 50 1164 51 1138 50 z m 335 231 b 361 469 353 263 361 356 l 276 469 l 276 640 l 494 640 l 494 539 b 471 199 494 403 493 283 b 329 31 447 106 401 47 b 160 79 263 15 208 36 b 49 564 97 133 49 267 b 171 1057 49 831 85 978 b 374 1079 226 1108 331 1104 b 496 826 454 1033 479 972 l 364 796 b 286 926 351 901 321 931 b 200 564 231 919 200 839 b 247 219 200 346 215 250 b 335 231 275 193 313 192 z "},"㎔":{"ha":1250,"x_min":0,"x_max":0,"o":"m 622 1081 l 622 692 l 704 692 l 704 1081 l 868 1081 l 868 50 l 704 50 l 704 490 l 622 490 l 622 50 l 458 50 l 458 904 l 349 904 l 349 50 l 172 50 l 172 894 l 49 894 l 49 1081 z m 1051 50 l 907 50 l 907 149 l 1001 618 l 918 618 l 918 814 l 1174 814 l 1174 735 l 1075 246 l 1101 246 b 1181 254 1136 246 1150 246 l 1181 63 b 1051 50 1143 51 1110 50 z "},"Ω":{"ha":1060,"x_min":0,"x_max":0,"o":"m 842 50 l 589 50 l 589 463 l 594 463 b 768 675 708 483 768 556 b 529 889 768 796 676 889 b 290 675 382 889 290 796 b 464 463 290 556 350 483 l 469 463 l 469 50 l 56 50 l 56 260 l 236 260 l 236 308 b 61 661 132 367 61 488 b 529 1104 61 903 217 1104 b 997 661 842 1104 997 903 b 822 308 997 488 926 367 l 822 260 l 878 260 b 999 267 904 260 950 260 l 999 61 b 842 50 956 53 913 50 z "},"㏀":{"ha":1250,"x_min":0,"x_max":0,"o":"m 496 638 l 388 450 l 507 232 l 656 232 l 656 322 b 496 638 561 386 504 497 z m 407 50 l 269 303 l 235 246 l 235 50 l 42 50 l 42 1081 l 235 1081 l 235 556 l 394 814 l 508 814 b 851 1104 549 990 668 1104 b 1208 675 1079 1104 1208 929 b 1047 322 1208 517 1150 392 l 1047 232 l 1103 232 b 1196 239 1129 232 1147 232 l 1196 61 b 1067 50 1153 53 1138 50 l 897 50 l 897 435 l 903 435 b 1021 675 981 463 1021 556 b 851 917 1021 796 968 917 b 682 675 735 917 682 796 b 800 435 682 556 722 463 l 806 435 l 806 50 z "},"㏁":{"ha":1250,"x_min":0,"x_max":0,"o":"m 265 50 l 189 676 l 183 676 l 199 50 l 40 50 l 65 1081 l 260 1081 l 324 393 l 328 393 l 415 1081 l 588 1081 l 613 50 l 454 50 l 469 676 l 464 676 l 388 50 z m 749 322 b 636 675 676 392 636 510 b 914 1104 636 957 732 1104 b 1192 675 1096 1104 1192 957 b 1079 322 1192 510 1156 394 l 1079 232 l 1100 232 b 1175 239 1122 232 1136 232 l 1175 61 b 1086 50 1140 53 1142 50 l 943 50 l 943 424 l 947 435 b 1028 675 1010 463 1028 549 b 914 917 1028 850 986 917 b 800 675 842 917 800 854 b 881 435 800 549 818 463 l 885 424 l 885 50 l 665 50 l 665 232 l 749 232 z "},"㎊":{"ha":1250,"x_min":0,"x_max":0,"o":"m 389 39 b 267 104 321 40 290 65 l 267 -124 l 56 -124 l 56 814 l 267 814 l 267 746 b 389 826 307 806 329 824 b 619 426 557 835 617 688 b 389 39 624 157 526 35 z m 335 244 b 421 433 392 238 421 293 b 346 621 421 561 401 628 b 275 411 289 614 275 535 b 335 244 275 307 289 250 z m 658 50 l 658 1081 l 1194 1081 l 1194 858 l 907 858 l 907 657 l 975 657 b 1168 665 1029 657 1101 657 l 1168 450 b 944 436 1106 435 1022 436 l 907 436 l 907 50 z "},"㎋":{"ha":1250,"x_min":0,"x_max":0,"o":"m 69 50 l 69 814 l 285 814 l 285 769 b 415 832 335 813 364 831 l 428 832 b 592 565 533 831 592 757 l 592 50 l 376 50 l 376 438 b 339 594 376 583 371 594 b 285 525 303 592 299 567 l 285 50 z m 658 50 l 658 1081 l 1194 1081 l 1194 858 l 907 858 l 907 657 l 975 657 b 1168 665 1029 657 1101 657 l 1168 450 b 944 436 1106 435 1022 436 l 907 436 l 907 50 z "},"㎌":{"ha":1250,"x_min":0,"x_max":0,"o":"m 278 319 b 332 274 278 286 303 267 b 400 404 385 286 400 328 l 400 814 l 608 814 l 608 50 l 400 50 l 400 94 b 278 43 365 56 354 38 l 278 -124 l 69 -124 l 69 814 l 278 814 z m 679 50 l 679 1081 l 1194 1081 l 1194 858 l 928 858 l 928 657 l 1003 657 b 1168 665 1057 657 1101 657 l 1168 450 b 972 436 1106 435 1050 436 l 928 436 l 928 50 z "}}}
